<svg width="54" height="49" viewBox="0 0 54 49" fill="none" xmlns="http://www.w3.org/2000/svg">
<rect y="6.10352e-05" width="54" height="48.1846" rx="4.92594" fill="#17082F"/>
<rect y="6.10352e-05" width="54" height="48.1846" rx="4.92594" fill="#17082F"/>
<mask id="mask0_851_5" style="mask-type:alpha" maskUnits="userSpaceOnUse" x="0" y="0" width="54" height="49">
<rect y="6.10352e-05" width="54" height="48.1846" rx="4.92594" fill="#73787C"/>
</mask>
<g mask="url(#mask0_851_5)">
<path d="M37.1094 29.5276C37.1252 30.93 36.9984 32.1136 36.7288 33.0784C36.4988 34.0027 36.0664 34.7489 35.4316 35.3171C34.7969 35.8853 33.9199 36.2959 32.8007 36.549C31.6816 36.8021 30.2605 36.9384 28.5376 36.9579L25.833 36.9884L26.0381 55.1392L17.5037 55.2356L16.9508 6.31275L29.5722 6.17011C32.0564 6.14203 33.8863 6.72245 35.0618 7.91135C36.277 9.05974 36.9006 11.0563 36.9328 13.9012L37.1094 29.5276ZM28.3382 13.9983C28.3323 13.4774 28.1878 13.0983 27.9046 12.8611C27.621 12.5838 27.3189 12.447 26.9983 12.4506L25.5559 12.4669L25.761 30.6176L27.1434 30.602C27.4639 30.5984 27.7631 30.4748 28.0408 30.2312C28.3582 29.9471 28.5142 29.5647 28.5087 29.0838L28.3382 13.9983Z" fill="white"/>
<circle cx="46.9966" cy="40.9964" r="12.1588" transform="rotate(12.5026 46.9966 40.9964)" fill="#F6416C"/>
<path d="M46.9477 42.8197C45.5702 42.7827 44.3088 43.1391 43.1636 43.8889C42.0184 44.6386 41.1754 45.6448 40.6347 46.9074L53.0322 47.2402C52.5601 45.9504 51.7723 44.9004 50.669 44.0903C49.5656 43.2802 48.3252 42.8567 46.9477 42.8197ZM41.8918 40.8595L43.263 39.6192L44.505 40.9297L45.8154 39.6877L44.5735 38.3772L45.8856 37.0745L44.6436 35.764L43.3331 37.006L42.0304 35.6939L40.7199 36.9359L41.9603 38.3071L40.6498 39.5491L41.8918 40.8595ZM49.4883 41.0634L50.7987 39.8215L52.1015 41.1336L53.4119 39.8916L52.17 38.5812L53.4821 37.2784L52.2401 35.968L50.8689 37.2083L49.6269 35.8978L48.3165 37.1398L49.5568 38.511L48.2463 39.753L49.4883 41.0634ZM46.6704 53.151C44.989 53.1058 43.4175 52.7444 41.9558 52.0666C40.4942 51.3888 39.2311 50.4882 38.1665 49.365C37.102 48.2417 36.2705 46.9321 35.6721 45.4362C35.0737 43.9403 34.7971 42.3517 34.8422 40.6703C34.8873 38.9889 35.2488 37.4174 35.9266 35.9558C36.6044 34.4941 37.5049 33.231 38.6282 32.1665C39.7515 31.1019 41.061 30.2705 42.557 29.6721C44.0529 29.0736 45.6415 28.797 47.3229 28.8421C49.0042 28.8873 50.5758 29.2487 52.0374 29.9265C53.4991 30.6043 54.7622 31.5049 55.8267 32.6281C56.8912 33.7514 57.7227 35.061 58.3211 36.5569C58.9195 38.0528 59.1962 39.6415 59.151 41.3228C59.1059 43.0042 58.7444 44.5757 58.0666 46.0374C57.3888 47.499 56.4883 48.7621 55.365 49.8266C54.2418 50.8912 52.9322 51.7227 51.4363 52.3211C49.9404 52.9195 48.3517 53.1961 46.6704 53.151ZM46.7356 50.7201C49.4501 50.793 51.7746 49.9127 53.7091 48.0793C55.6436 46.246 56.6473 43.9721 56.7202 41.2576C56.793 38.5431 55.9128 36.2186 54.0794 34.2841C52.246 32.3496 49.9721 31.3459 47.2576 31.273C44.5431 31.2002 42.2186 32.0804 40.2841 33.9138C38.3496 35.7471 37.3459 38.0211 37.2731 40.7355C37.2002 43.45 38.0805 45.7745 39.9138 47.709C41.7472 49.6435 44.0211 50.6472 46.7356 50.7201Z" fill="black"/>
<ellipse cx="0.993258" cy="46.9414" rx="5.31558" ry="5.96967" transform="rotate(-48.2256 0.993258 46.9414)" fill="#00B8A9"/>
<ellipse cx="7.99326" cy="39.9413" rx="5.31558" ry="5.96967" transform="rotate(-48.2256 7.99326 39.9413)" fill="#2C60AC"/>
<path d="M0.421875 54.3751C-1.47118 54.3751 -3.07726 53.7155 -4.39635 52.3964C-5.71545 51.0773 -6.375 49.4712 -6.375 47.5782C-6.375 46.6719 -6.20382 45.806 -5.86146 44.9803C-5.5191 44.1546 -5.02569 43.4195 -4.38125 42.7751L3.775 34.6188C4.41944 33.9744 5.15451 33.481 5.98021 33.1386C6.8059 32.7962 7.67188 32.6251 8.57812 32.6251C10.4712 32.6251 12.0773 33.2846 13.3964 34.6037C14.7155 35.9228 15.375 37.5289 15.375 39.4219C15.375 40.3282 15.2038 41.1942 14.8615 42.0199C14.5191 42.8455 14.0257 43.5806 13.3813 44.2251L5.225 52.3813C4.58055 53.0258 3.84549 53.5192 3.01979 53.8615C2.1941 54.2039 1.32812 54.3751 0.421875 54.3751ZM8.45729 45.7355L11.6896 42.5334C12.0924 42.1306 12.4045 41.6574 12.626 41.1136C12.8476 40.5699 12.9583 40.006 12.9583 39.4219C12.9583 38.2136 12.5304 37.1815 11.6745 36.3256C10.8186 35.4697 9.78646 35.0417 8.57812 35.0417C7.9941 35.0417 7.43021 35.1525 6.88646 35.374C6.34271 35.5955 5.86944 35.9077 5.46667 36.3105L2.26458 39.5428L8.45729 45.7355ZM0.421875 51.9584C1.0059 51.9584 1.56979 51.8476 2.11354 51.6261C2.65729 51.4046 3.13056 51.0924 3.53333 50.6896L6.73542 47.4574L0.542708 41.2646L-2.68958 44.4667C-3.09236 44.8695 -3.40451 45.3428 -3.62604 45.8865C-3.84757 46.4303 -3.95833 46.9942 -3.95833 47.5782C-3.95833 48.7865 -3.53038 49.8186 -2.67448 50.6745C-1.81858 51.5304 -0.786458 51.9584 0.421875 51.9584Z" fill="black"/>
<mask id="path-10-outside-1_851_5" maskUnits="userSpaceOnUse" x="-5" y="-5.99994" width="19" height="19" fill="black">
<rect fill="white" x="-5" y="-5.99994" width="19" height="19"/>
<path d="M6.25558 -3.85826V0.839452L10.5563 -0.616179L11.8796 2.8244L7.57888 4.61086L10.2916 8.44843L7.38038 10.6319L4.40296 6.72814L1.55786 10.6319L-1.48573 8.44843L1.22704 4.47853L-3.13985 2.8244L-1.88272 -0.616179L2.6165 0.839452V-3.85826H6.25558Z"/>
</mask>
<path d="M6.25558 -3.85826V0.839452L10.5563 -0.616179L11.8796 2.8244L7.57888 4.61086L10.2916 8.44843L7.38038 10.6319L4.40296 6.72814L1.55786 10.6319L-1.48573 8.44843L1.22704 4.47853L-3.13985 2.8244L-1.88272 -0.616179L2.6165 0.839452V-3.85826H6.25558Z" fill="#FFDE7D"/>
<path d="M6.25558 -3.85826H7.64019V-5.24288H6.25558V-3.85826ZM6.25558 0.839453H4.87096V2.76987L6.69948 2.15098L6.25558 0.839453ZM10.5563 -0.616179L11.8486 -1.11323L11.3715 -2.35385L10.1124 -1.92771L10.5563 -0.616179ZM11.8796 2.8244L12.4108 4.10309L13.656 3.58585L13.1719 2.32735L11.8796 2.8244ZM7.57888 4.61086L7.04773 3.33217L5.44884 3.99633L6.44823 5.41011L7.57888 4.61086ZM10.2916 8.44843L11.1224 9.55612L12.1993 8.74842L11.4223 7.64918L10.2916 8.44843ZM7.38038 10.6319L6.27944 11.4716L7.11238 12.5636L8.21115 11.7396L7.38038 10.6319ZM4.40296 6.72814L5.5039 5.88844L4.37773 4.41191L3.28399 5.91262L4.40296 6.72814ZM1.55786 10.6319L0.750759 11.7569L1.8674 12.558L2.67683 11.4474L1.55786 10.6319ZM-1.48573 8.44843L-2.62893 7.66724L-3.39247 8.78461L-2.29283 9.57348L-1.48573 8.44843ZM1.22704 4.47853L2.37024 5.25972L3.36295 3.80697L1.71751 3.18369L1.22704 4.47853ZM-3.13985 2.8244L-4.44038 2.34921L-4.91 3.63451L-3.63032 4.11924L-3.13985 2.8244ZM-1.88272 -0.616179L-1.45651 -1.93356L-2.7255 -2.34412L-3.18324 -1.09137L-1.88272 -0.616179ZM2.6165 0.839453L2.19029 2.15684L4.00112 2.74269V0.839453H2.6165ZM2.6165 -3.85826V-5.24288H1.23189V-3.85826H2.6165ZM4.87096 -3.85826V0.839453H7.64019V-3.85826H4.87096ZM6.69948 2.15098L11.0002 0.695351L10.1124 -1.92771L5.81168 -0.472078L6.69948 2.15098ZM9.26398 -0.119131L10.5873 3.32145L13.1719 2.32735L11.8486 -1.11323L9.26398 -0.119131ZM11.3485 1.54571L7.04773 3.33217L8.11003 5.88954L12.4108 4.10309L11.3485 1.54571ZM6.44823 5.41011L9.161 9.24768L11.4223 7.64918L8.70952 3.81161L6.44823 5.41011ZM9.46087 7.34074L6.54961 9.52418L8.21115 11.7396L11.1224 9.55612L9.46087 7.34074ZM8.48132 9.79218L5.5039 5.88844L3.30202 7.56784L6.27944 11.4716L8.48132 9.79218ZM3.28399 5.91262L0.438894 9.81636L2.67683 11.4474L5.52192 7.54366L3.28399 5.91262ZM2.36496 9.50682L-0.678626 7.32338L-2.29283 9.57348L0.750759 11.7569L2.36496 9.50682ZM-0.342529 9.22962L2.37024 5.25972L0.0838361 3.69734L-2.62893 7.66724L-0.342529 9.22962ZM1.71751 3.18369L-2.64939 1.52956L-3.63032 4.11924L0.736567 5.77337L1.71751 3.18369ZM-1.83933 3.29959L-0.582199 -0.140989L-3.18324 -1.09137L-4.44038 2.34921L-1.83933 3.29959ZM-2.30893 0.701204L2.19029 2.15684L3.04271 -0.477932L-1.45651 -1.93356L-2.30893 0.701204ZM4.00112 0.839453V-3.85826H1.23189V0.839453H4.00112ZM2.6165 -2.47365H6.25558V-5.24288H2.6165V-2.47365Z" fill="black" mask="url(#path-10-outside-1_851_5)"/>
</g>
</svg>
