<svg width="54" height="49" viewBox="0 0 54 49" fill="none" xmlns="http://www.w3.org/2000/svg">
<rect width="54" height="48.1846" rx="4.92594" fill="#73787C"/>
<mask id="mask0_845_166" style="mask-type:alpha" maskUnits="userSpaceOnUse" x="0" y="0" width="54" height="49">
<rect width="53.9824" height="48.4048" rx="4.92594" fill="white"/>
</mask>
<g mask="url(#mask0_845_166)">
<path fill-rule="evenodd" clip-rule="evenodd" d="M4.62686 27.4408C8.68319 27.157 12.859 29.2341 15.1668 33.3265C17.3342 37.1697 16.5051 42.1487 15.4528 46.6374C14.4925 50.7333 12.841 54.6678 9.7205 56.558C6.56229 58.4709 2.88515 57.9767 -0.323173 56.193C-3.63685 54.3507 -6.63722 51.3284 -7.48005 46.9952C-8.33085 42.621 -6.72206 38.2863 -4.50322 34.7025C-2.19699 30.9776 0.814402 27.7075 4.62686 27.4408Z" fill="#C5C6C8"/>
<path fill-rule="evenodd" clip-rule="evenodd" d="M54.2295 -11.6333C57.7498 -11.2602 60.3387 -7.75062 62.5532 -4.08827C64.7857 -0.396348 66.972 3.76677 66.3658 8.4372C65.7277 13.3535 62.8591 17.1097 59.511 19.3504C56.0823 21.645 52.0769 22.4743 48.5933 20.3312C45.0479 18.15 42.7492 13.5715 41.878 8.50261C41.0063 3.43002 41.5874 -2.01797 44.0597 -6.04839C46.5 -10.0268 50.3837 -12.0409 54.2295 -11.6333Z" stroke="#C5C6C8" stroke-width="0.985189"/>
</g>
<path d="M28.3812 40.7682C25.8682 40.8455 23.9924 40.1183 22.7538 38.5867C21.5341 37.0544 20.8813 34.8901 20.7953 32.0937L20.3621 18.0078C20.2755 15.1925 20.7941 12.9922 21.9179 11.4068C23.06 9.80194 24.8876 8.96087 27.4006 8.88358C29.9135 8.80629 31.7893 9.53347 33.0279 11.0651C34.2854 12.5962 34.9571 14.7599 35.0432 17.5563L35.1181 19.9937L29.3931 20.1698L29.2954 16.9955C29.2687 16.1263 29.133 15.4024 28.8882 14.8236C28.6435 14.2449 28.1999 13.9654 27.5575 13.9851C26.915 14.0049 26.4992 14.3203 26.31 14.9313C26.1201 15.5234 26.0383 16.2446 26.0645 17.0949L26.543 32.6545C26.5692 33.5048 26.6954 34.229 26.9219 34.8273C27.1477 35.4066 27.5819 35.6864 28.2243 35.6667C28.8667 35.6469 29.2923 35.3407 29.501 34.748C29.7097 34.1553 29.8007 33.4243 29.774 32.5552L29.6763 29.3809L35.4014 29.2048L35.4764 31.6422C35.5624 34.4386 35.0249 36.6395 33.8638 38.245C32.7217 39.8498 30.8942 40.6909 28.3812 40.7682Z" fill="#F8E5C1"/>
</svg>
