<svg width="488" height="193" viewBox="0 0 488 193" fill="none" xmlns="http://www.w3.org/2000/svg">
<g clip-path="url(#clip0_1321_185)">
<path d="M0 15C0 6.71573 6.71573 0 15 0H473C481.284 0 488 6.71573 488 15V193H0V15Z" fill="#D9D9D9"/>
<path d="M339.485 67.7008C338.564 65.8512 337.492 64.1862 336.047 63.1435C335.374 62.6446 334.562 62.3301 333.719 62.1972C333.297 62.1416 332.876 62.1313 332.472 62.175C332.067 62.2208 331.689 62.3312 331.351 62.4889C330.976 62.6641 330.656 62.9037 330.397 63.2056L328.238 61.4482C329.113 60.4296 329.622 59.0028 329.562 57.61C329.541 57.0377 329.442 56.4724 329.255 55.9444C329.068 55.4186 328.799 54.9278 328.455 54.4764C327.771 53.58 326.805 52.8648 325.742 52.4957C325.476 52.4045 325.208 52.3263 324.935 52.2784C324.799 52.2512 324.663 52.2261 324.527 52.2162L324.323 52.1938L324.142 52.1906C323.656 52.1786 323.13 52.29 322.662 52.483C322.425 52.5753 322.212 52.7019 322.012 52.8307C321.926 52.9046 321.818 52.9637 321.748 53.044L321.627 53.1528C321.595 53.1919 321.563 53.231 321.531 53.2679L321.479 53.3244L321.443 53.3829C321.417 53.422 321.392 53.4589 321.364 53.4958C321.347 53.5348 321.33 53.5738 321.311 53.6106L321.281 53.6648L321.266 53.7211C321.198 53.8662 321.21 54.0173 321.195 54.1708L321.181 54.3329C321.111 55.1671 320.376 55.7874 319.542 55.715C318.814 55.6527 318.248 55.0839 318.164 54.3846C317.831 51.6197 315.86 49.0403 313.337 47.7475C312.078 47.0989 310.687 46.7687 309.346 46.8572C308.67 46.9069 308.032 47.0319 307.416 47.2864C306.802 47.5344 306.21 47.873 305.675 48.3042C304.424 49.295 303.454 50.716 302.976 52.2441C302.493 53.7722 302.532 55.3963 303.16 56.738C303.561 57.5929 303.192 58.6105 302.337 59.0113C301.652 59.3332 300.862 59.159 300.369 58.6394L300.356 58.6265C299.114 57.3104 297.528 56.2772 295.838 55.7092C294.149 55.1389 292.356 55.0618 290.8 55.6205C289.352 56.1158 288.088 57.4156 287.458 58.9338C287.141 59.6897 286.982 60.4964 287.019 61.25C287.054 62.0058 287.281 62.6956 287.693 63.2718L284.9 65.2467C284.292 64.3995 283.363 63.7229 282.287 63.3777C281.218 63.0346 280.03 62.9796 278.999 63.2994L278.846 63.3414C278.794 63.3569 278.749 63.3788 278.699 63.3985L278.404 63.5084L278.124 63.6463L277.982 63.712C277.937 63.7361 277.894 63.7666 277.849 63.7949L277.58 63.9565L277.326 64.1482L277.197 64.2419L277.079 64.3507L276.836 64.5682L276.615 64.8116L276.502 64.9311L276.401 65.0635L276.195 65.3284L276.014 65.6125L275.922 65.7556L275.843 65.9074L275.683 66.2086L275.551 66.5248L275.483 66.683L275.43 66.8453C275.146 67.6744 274.995 68.399 274.88 69.0283C274.863 69.1083 274.846 69.1862 274.832 69.2619C274.817 69.3376 274.811 69.4111 274.799 69.4846C274.778 69.6295 274.742 69.7744 274.719 69.9106C274.701 70.0447 274.678 70.1766 274.653 70.3064C274.638 70.3712 274.623 70.4361 274.611 70.4967C274.6 70.5594 274.59 70.6178 274.579 70.6762C274.45 71.3661 274.119 71.6123 273.574 71.173C273.506 71.1172 273.435 71.0529 273.363 70.9777C273.296 70.9004 273.23 70.8101 273.16 70.709C273.093 70.6079 273.021 70.4961 272.951 70.3734C272.883 70.2507 272.828 70.1128 272.767 69.9642C272.521 69.3761 272.361 68.5908 272.389 67.6748C272.425 66.5146 272.72 65.3074 273.3 64.2129C273.872 63.1184 274.706 62.1259 275.727 61.4066C276.65 60.757 277.719 60.3267 278.795 60.1276C279.874 59.9263 280.971 59.9387 282.024 60.135C283.078 60.3335 284.095 60.7136 285.019 61.2758C285.941 61.8358 286.771 62.5843 287.407 63.494L287.414 63.5047C287.841 64.1154 287.691 64.9545 287.082 65.3818C286.474 65.809 285.633 65.661 285.207 65.0503C284.702 64.3299 284.325 63.5072 284.136 62.6552C283.934 61.8054 283.911 60.9373 283.999 60.1008C284.197 58.4276 284.859 56.8768 285.851 55.5636C286.346 54.9059 286.934 54.3125 287.6 53.7984C288.266 53.2952 289.026 52.8562 289.832 52.581L290.423 52.385C290.619 52.3189 290.824 52.2852 291.024 52.2342C291.426 52.128 291.836 52.0865 292.246 52.0277C293.062 51.9598 293.889 51.9459 294.693 52.0552C296.161 52.2186 297.598 52.663 298.907 53.3156C300.218 53.966 301.411 54.8246 302.373 55.8487C302.518 56.0077 302.666 56.1666 302.814 56.3254L300.109 58.1486C299.885 57.597 299.704 57.0279 299.581 56.4498C299.468 55.8717 299.401 55.2889 299.391 54.7079C299.375 53.5481 299.56 52.4107 299.905 51.3393C300.602 49.2028 301.895 47.3067 303.646 45.8957C304.082 45.5409 304.553 45.2246 305.048 44.9471C305.541 44.6632 306.067 44.433 306.61 44.2416C307.149 44.0459 307.72 43.917 308.288 43.8291C308.853 43.7391 309.425 43.7203 309.994 43.7296C312.275 43.7971 314.438 44.6472 316.183 45.9537C317.475 46.9131 318.573 48.1157 319.414 49.4906C320.254 50.8633 320.828 52.4278 321.009 54.0705L318.332 54.2626C318.328 53.6945 318.422 53.1107 318.647 52.5865C318.875 52.071 319.183 51.6024 319.55 51.2329C319.915 50.8612 320.315 50.5454 320.739 50.3051C320.947 50.172 321.167 50.0777 321.385 49.9726C321.606 49.8848 321.828 49.7883 322.057 49.7221C322.51 49.5723 322.98 49.4893 323.455 49.4366C323.697 49.4243 323.934 49.4012 324.18 49.4147L324.548 49.4318L324.889 49.4728C325.799 49.5901 326.676 49.8653 327.478 50.2706C328.611 50.8271 329.597 51.6459 330.387 52.6236C331.163 53.6123 331.74 54.7988 331.973 56.0415C332.096 56.6606 332.147 57.2867 332.134 57.911C332.114 58.5354 332.028 59.1538 331.878 59.7574C331.588 60.9667 331.005 62.1066 330.202 63.0773L330.197 63.0816C329.788 63.5746 329.056 63.6419 328.563 63.2325C328.074 62.8274 328.003 62.1042 328.401 61.6114C328.954 60.9274 329.69 60.3978 330.47 60.0688C331.254 59.7354 332.076 59.5855 332.881 59.5673C334.49 59.5398 336.055 59.9963 337.387 60.8863C338.671 61.7508 339.679 62.9064 340.488 64.1066C341.299 65.3131 341.934 66.5792 342.529 67.8239L340.831 67.7289C341.34 66.9588 341.99 66.3002 342.725 65.7727C343.713 65.0903 344.833 64.6425 345.979 64.5012C347.121 64.3427 348.29 64.4994 349.302 64.9163C351.333 65.7522 352.686 67.5191 353.071 69.2705C353.16 69.6739 353.147 69.985 353.081 70.1863C353.017 70.3876 352.916 70.4812 352.793 70.4819C352.536 70.4793 352.275 70.1051 351.867 69.4532C351.282 68.526 350.411 67.7604 349.431 67.3088C348.448 66.8442 347.404 66.7429 346.373 66.9633C345.05 67.2375 343.755 68.0234 343.034 69.1339L343.024 69.1513C342.532 69.9083 341.52 70.1265 340.763 69.6345C340.505 69.4677 340.307 69.2335 340.18 68.9751C339.968 68.538 339.755 68.1073 339.537 67.6918C339.519 67.6919 339.504 67.6942 339.485 67.6965L339.485 67.7008Z" fill="black"/>
<path fill-rule="evenodd" clip-rule="evenodd" d="M4.50376 138.925C22.4845 138.574 41.6484 132.739 56.2198 143.28C72.4458 155.017 83.2376 175.007 82.0152 194.996C80.8371 214.259 64.7334 227.985 50.259 240.751C36.9956 252.449 22.0809 261.408 4.50376 263.359C-15.5625 265.586 -36.8445 264.705 -52.676 252.175C-70.1219 238.369 -83.4233 217.19 -81.8778 194.996C-80.3907 173.64 -63.1873 156.916 -45.231 145.261C-30.6583 135.802 -12.8664 139.265 4.50376 138.925Z" fill="#C4C4C4"/>
<path fill-rule="evenodd" clip-rule="evenodd" d="M440.762 170.266C424.999 157.05 403.705 157.122 384.313 158.768C368.222 160.134 354.608 167.64 343.413 178.529C332.338 189.303 321.722 202.322 322.857 218.548C323.959 234.308 337.6 246.071 348.965 257.924C360.291 269.736 371.469 283.28 387.09 285.537C403.583 287.92 417.59 278.875 430.475 269.701C446.125 258.558 465.307 248.164 467.353 228.39C469.535 207.3 457.892 184.628 440.762 170.266Z" fill="black"/>
<path fill-rule="evenodd" clip-rule="evenodd" d="M95.276 176.52C104.321 177.898 113.171 181.374 118.735 188.637C123.742 195.174 123.299 203.898 122.528 212.096C121.848 219.321 119.368 225.963 114.7 231.519C109.488 237.722 103.274 243.239 95.276 244.531C85.8799 246.048 75.9095 244.811 68.3722 239C59.8976 232.465 54.1155 222.759 53.2104 212.096C52.2293 200.537 54.5239 187.692 63.3815 180.201C71.8763 173.017 84.2774 174.844 95.276 176.52Z" fill="black"/>
<g filter="url(#filter0_d_1321_185)">
<rect x="93.2502" y="65" width="303.75" height="68.1008" rx="8.74512" fill="black"/>
</g>
<g filter="url(#filter1_d_1321_185)">
<rect x="90" y="65" width="303.75" height="68.1008" rx="8.74512" fill="white"/>
<rect x="91.5" y="66.5" width="300.75" height="65.1008" rx="7.24512" stroke="black" stroke-width="3"/>
</g>
<path d="M120.157 90.0636C120.157 89.8287 120.12 89.6199 120.047 89.4372C119.979 89.2545 119.857 89.0874 119.679 88.936C119.502 88.7846 119.251 88.6385 118.928 88.4975C118.609 88.3514 118.202 88.2026 117.706 88.0512C117.163 87.8842 116.662 87.6988 116.203 87.4952C115.748 87.2864 115.352 87.0463 115.012 86.7748C114.673 86.4982 114.409 86.1824 114.222 85.8274C114.034 85.4672 113.94 85.0522 113.94 84.5823C113.94 84.1177 114.036 83.6949 114.229 83.3138C114.428 82.9327 114.707 82.6039 115.067 82.3272C115.433 82.0453 115.863 81.8287 116.359 81.6773C116.855 81.5207 117.403 81.4424 118.004 81.4424C118.849 81.4424 119.578 81.599 120.188 81.9122C120.804 82.2254 121.277 82.6456 121.606 83.1729C121.94 83.7001 122.107 84.2822 122.107 84.919H120.157C120.157 84.5432 120.076 84.2117 119.914 83.9246C119.758 83.6323 119.517 83.4026 119.194 83.2355C118.875 83.0685 118.471 82.9849 117.98 82.9849C117.516 82.9849 117.129 83.0554 116.821 83.1964C116.513 83.3373 116.284 83.5279 116.132 83.768C115.981 84.0081 115.905 84.2796 115.905 84.5823C115.905 84.7964 115.955 84.9921 116.054 85.1696C116.153 85.3419 116.304 85.5037 116.508 85.6551C116.712 85.8013 116.967 85.9396 117.275 86.0701C117.583 86.2006 117.946 86.3259 118.364 86.446C118.995 86.6339 119.546 86.8427 120.016 87.0724C120.486 87.2969 120.877 87.5527 121.191 87.8398C121.504 88.1269 121.739 88.4532 121.895 88.8186C122.052 89.1788 122.13 89.5886 122.13 90.0479C122.13 90.5282 122.034 90.9615 121.84 91.3478C121.647 91.7289 121.371 92.0551 121.01 92.3266C120.656 92.5928 120.227 92.799 119.726 92.9452C119.23 93.0861 118.677 93.1566 118.066 93.1566C117.518 93.1566 116.978 93.0835 116.445 92.9374C115.918 92.7912 115.438 92.5693 115.005 92.2718C114.571 91.969 114.227 91.5931 113.971 91.1442C113.715 90.69 113.587 90.1602 113.587 89.5546H115.553C115.553 89.9253 115.615 90.2411 115.741 90.5021C115.871 90.7631 116.051 90.9772 116.281 91.1442C116.511 91.306 116.777 91.4261 117.08 91.5044C117.388 91.5827 117.716 91.6219 118.066 91.6219C118.526 91.6219 118.909 91.5566 119.217 91.4261C119.531 91.2956 119.765 91.1129 119.922 90.878C120.079 90.6431 120.157 90.3716 120.157 90.0636ZM131.401 86.3598V87.9181H125.349V86.3598H131.401ZM125.834 81.599V93H123.869V81.599H125.834ZM132.913 81.599V93H130.955V81.599H132.913ZM142.787 86.3598V87.9181H136.734V86.3598H142.787ZM137.219 81.599V93H135.254V81.599H137.219ZM144.298 81.599V93H142.34V81.599H144.298ZM154.172 86.3598V87.9181H148.119V86.3598H154.172ZM148.605 81.599V93H146.639V81.599H148.605ZM155.683 81.599V93H153.726V81.599H155.683ZM165.558 86.3598V87.9181H159.505V86.3598H165.558ZM159.99 81.599V93H158.025V81.599H159.99ZM167.069 81.599V93H165.111V81.599H167.069ZM176.716 93H174.281L174.296 91.4418H176.716C177.421 91.4418 178.01 91.2878 178.485 90.9798C178.966 90.6718 179.326 90.2307 179.566 89.6564C179.811 89.0822 179.934 88.3983 179.934 87.6049V86.9863C179.934 86.3703 179.864 85.8248 179.723 85.3497C179.587 84.8747 179.383 84.4753 179.112 84.1517C178.846 83.828 178.517 83.5827 178.125 83.4156C177.739 83.2486 177.293 83.165 176.786 83.165H174.234V81.599H176.786C177.543 81.599 178.235 81.7269 178.861 81.9827C179.488 82.2332 180.028 82.596 180.482 83.0711C180.942 83.5461 181.294 84.1151 181.539 84.7781C181.785 85.4411 181.907 86.1824 181.907 87.0019V87.6049C181.907 88.4244 181.785 89.1657 181.539 89.8287C181.294 90.4917 180.942 91.0607 180.482 91.5357C180.023 92.0055 179.475 92.3683 178.838 92.6241C178.206 92.8747 177.499 93 176.716 93ZM175.369 81.599V93H173.404V81.599H175.369ZM183.332 88.8577V88.6776C183.332 88.0669 183.421 87.5005 183.599 86.9784C183.776 86.4512 184.032 85.9944 184.366 85.6081C184.705 85.2166 185.118 84.9138 185.603 84.6998C186.094 84.4805 186.647 84.3709 187.263 84.3709C187.885 84.3709 188.438 84.4805 188.923 84.6998C189.414 84.9138 189.829 85.2166 190.168 85.6081C190.508 85.9944 190.766 86.4512 190.944 86.9784C191.121 87.5005 191.21 88.0669 191.21 88.6776V88.8577C191.21 89.4685 191.121 90.0349 190.944 90.5569C190.766 91.0789 190.508 91.5357 190.168 91.9272C189.829 92.3135 189.417 92.6163 188.931 92.8356C188.446 93.0496 187.895 93.1566 187.279 93.1566C186.658 93.1566 186.102 93.0496 185.611 92.8356C185.126 92.6163 184.713 92.3135 184.374 91.9272C184.035 91.5357 183.776 91.0789 183.599 90.5569C183.421 90.0349 183.332 89.4685 183.332 88.8577ZM185.22 88.6776V88.8577C185.22 89.2388 185.259 89.599 185.337 89.9383C185.415 90.2776 185.538 90.5752 185.705 90.831C185.872 91.0868 186.086 91.2878 186.347 91.4339C186.608 91.5801 186.919 91.6532 187.279 91.6532C187.629 91.6532 187.931 91.5801 188.187 91.4339C188.448 91.2878 188.662 91.0868 188.829 90.831C188.996 90.5752 189.119 90.2776 189.197 89.9383C189.281 89.599 189.323 89.2388 189.323 88.8577V88.6776C189.323 88.3018 189.281 87.9468 189.197 87.6127C189.119 87.2734 188.994 86.9732 188.822 86.7122C188.655 86.4512 188.44 86.2476 188.179 86.1014C187.924 85.95 187.618 85.8744 187.263 85.8744C186.908 85.8744 186.6 85.95 186.339 86.1014C186.084 86.2476 185.872 86.4512 185.705 86.7122C185.538 86.9732 185.415 87.2734 185.337 87.6127C185.259 87.9468 185.22 88.3018 185.22 88.6776ZM194.663 86.3363V93H192.776V84.5275H194.553L194.663 86.3363ZM194.326 88.4506L193.716 88.4427C193.721 87.8424 193.804 87.2917 193.966 86.7905C194.133 86.2894 194.363 85.8587 194.655 85.4985C194.953 85.1383 195.308 84.8616 195.72 84.6685C196.133 84.4701 196.592 84.3709 197.098 84.3709C197.505 84.3709 197.873 84.4283 198.202 84.5432C198.536 84.6528 198.821 84.8329 199.056 85.0835C199.296 85.3341 199.479 85.6603 199.604 86.0623C199.729 86.459 199.792 86.9471 199.792 87.5266V93H197.897V87.5187C197.897 87.1116 197.837 86.7905 197.717 86.5556C197.602 86.3155 197.432 86.1458 197.208 86.0466C196.989 85.9422 196.715 85.89 196.386 85.89C196.062 85.89 195.772 85.9579 195.517 86.0936C195.261 86.2293 195.044 86.4147 194.867 86.6496C194.694 86.8845 194.561 87.1559 194.467 87.4639C194.373 87.7719 194.326 88.1008 194.326 88.4506ZM202.775 80.9725V82.0766C202.775 82.4055 202.715 82.7474 202.595 83.1024C202.48 83.4522 202.319 83.7889 202.11 84.1125C201.901 84.431 201.661 84.7076 201.389 84.9425L200.442 84.3474C200.656 84.0238 200.828 83.6818 200.959 83.3217C201.094 82.9562 201.162 82.5464 201.162 82.0923V80.9725H202.775ZM208.327 84.5275V85.9057H203.55V84.5275H208.327ZM204.929 82.4525H206.816V90.6587C206.816 90.9197 206.852 91.1207 206.925 91.2617C207.004 91.3974 207.111 91.4887 207.246 91.5357C207.382 91.5827 207.541 91.6062 207.724 91.6062C207.855 91.6062 207.98 91.5984 208.1 91.5827C208.22 91.567 208.317 91.5514 208.39 91.5357L208.397 92.9765C208.241 93.0235 208.058 93.0653 207.849 93.1018C207.646 93.1383 207.411 93.1566 207.145 93.1566C206.711 93.1566 206.328 93.0809 205.994 92.9295C205.659 92.7729 205.398 92.5197 205.211 92.17C205.023 91.8202 204.929 91.3556 204.929 90.7762V82.4525ZM217.661 84.5275V85.9057H212.884V84.5275H217.661ZM214.262 82.4525H216.15V90.6587C216.15 90.9197 216.186 91.1207 216.259 91.2617C216.338 91.3974 216.445 91.4887 216.58 91.5357C216.716 91.5827 216.875 91.6062 217.058 91.6062C217.188 91.6062 217.314 91.5984 217.434 91.5827C217.554 91.567 217.65 91.5514 217.723 91.5357L217.731 92.9765C217.575 93.0235 217.392 93.0653 217.183 93.1018C216.98 93.1383 216.745 93.1566 216.478 93.1566C216.045 93.1566 215.661 93.0809 215.327 92.9295C214.993 92.7729 214.732 92.5197 214.544 92.17C214.356 91.8202 214.262 91.3556 214.262 90.7762V82.4525ZM222.852 93.1566C222.226 93.1566 221.66 93.0548 221.153 92.8512C220.652 92.6424 220.224 92.3527 219.869 91.9821C219.519 91.6114 219.25 91.1755 219.062 90.6744C218.875 90.1732 218.781 89.6329 218.781 89.0535V88.7403C218.781 88.0773 218.877 87.477 219.07 86.9393C219.263 86.4016 219.532 85.9422 219.877 85.5611C220.221 85.1748 220.629 84.8799 221.098 84.6763C221.568 84.4727 222.077 84.3709 222.625 84.3709C223.231 84.3709 223.761 84.4727 224.215 84.6763C224.669 84.8799 225.045 85.167 225.342 85.5376C225.645 85.9031 225.87 86.339 226.016 86.8453C226.167 87.3517 226.243 87.9103 226.243 88.521V89.3276H219.697V87.9729H224.379V87.8241C224.369 87.4848 224.301 87.1664 224.176 86.8688C224.056 86.5713 223.87 86.3311 223.62 86.1484C223.369 85.9657 223.035 85.8744 222.617 85.8744C222.304 85.8744 222.025 85.9422 221.78 86.0779C221.539 86.2085 221.339 86.399 221.177 86.6496C221.015 86.9001 220.89 87.2029 220.801 87.5579C220.717 87.9076 220.676 88.3018 220.676 88.7403V89.0535C220.676 89.4241 220.725 89.7687 220.824 90.0871C220.929 90.4003 221.08 90.6744 221.278 90.9093C221.477 91.1442 221.717 91.3295 221.999 91.4652C222.281 91.5958 222.602 91.661 222.962 91.661C223.416 91.661 223.821 91.5697 224.176 91.3869C224.531 91.2042 224.839 90.9458 225.1 90.6117L226.094 91.5749C225.911 91.8411 225.674 92.0969 225.382 92.3422C225.089 92.5824 224.732 92.7781 224.309 92.9295C223.891 93.0809 223.406 93.1566 222.852 93.1566ZM229.735 80.9725V93H227.84V80.9725H229.735ZM233.823 80.9725V93H231.928V80.9725H233.823ZM239.523 88.8577V88.6776C239.523 88.0669 239.612 87.5005 239.789 86.9784C239.967 86.4512 240.223 85.9944 240.557 85.6081C240.896 85.2166 241.309 84.9138 241.794 84.6998C242.285 84.4805 242.838 84.3709 243.454 84.3709C244.075 84.3709 244.629 84.4805 245.114 84.6998C245.605 84.9138 246.02 85.2166 246.359 85.6081C246.698 85.9944 246.957 86.4512 247.134 86.9784C247.312 87.5005 247.401 88.0669 247.401 88.6776V88.8577C247.401 89.4685 247.312 90.0349 247.134 90.5569C246.957 91.0789 246.698 91.5357 246.359 91.9272C246.02 92.3135 245.607 92.6163 245.122 92.8356C244.636 93.0496 244.086 93.1566 243.47 93.1566C242.849 93.1566 242.293 93.0496 241.802 92.8356C241.316 92.6163 240.904 92.3135 240.565 91.9272C240.225 91.5357 239.967 91.0789 239.789 90.5569C239.612 90.0349 239.523 89.4685 239.523 88.8577ZM241.41 88.6776V88.8577C241.41 89.2388 241.45 89.599 241.528 89.9383C241.606 90.2776 241.729 90.5752 241.896 90.831C242.063 91.0868 242.277 91.2878 242.538 91.4339C242.799 91.5801 243.11 91.6532 243.47 91.6532C243.82 91.6532 244.122 91.5801 244.378 91.4339C244.639 91.2878 244.853 91.0868 245.02 90.831C245.187 90.5752 245.31 90.2776 245.388 89.9383C245.472 89.599 245.513 89.2388 245.513 88.8577V88.6776C245.513 88.3018 245.472 87.9468 245.388 87.6127C245.31 87.2734 245.185 86.9732 245.012 86.7122C244.845 86.4512 244.631 86.2476 244.37 86.1014C244.114 85.95 243.809 85.8744 243.454 85.8744C243.099 85.8744 242.791 85.95 242.53 86.1014C242.274 86.2476 242.063 86.4512 241.896 86.7122C241.729 86.9732 241.606 87.2734 241.528 87.6127C241.45 87.9468 241.41 88.3018 241.41 88.6776ZM252.866 84.5275V85.9057H248.09V84.5275H252.866ZM249.468 82.4525H251.355V90.6587C251.355 90.9197 251.391 91.1207 251.465 91.2617C251.543 91.3974 251.65 91.4887 251.786 91.5357C251.921 91.5827 252.081 91.6062 252.263 91.6062C252.394 91.6062 252.519 91.5984 252.639 91.5827C252.759 91.567 252.856 91.5514 252.929 91.5357L252.937 92.9765C252.78 93.0235 252.597 93.0653 252.389 93.1018C252.185 93.1383 251.95 93.1566 251.684 93.1566C251.251 93.1566 250.867 93.0809 250.533 92.9295C250.199 92.7729 249.938 92.5197 249.75 92.17C249.562 91.8202 249.468 91.3556 249.468 90.7762V82.4525ZM256.186 80.9725V93H254.307V80.9725H256.186ZM255.857 88.4506L255.247 88.4427C255.252 87.8581 255.333 87.3178 255.489 86.8218C255.651 86.3259 255.876 85.8952 256.163 85.5298C256.455 85.1592 256.805 84.8747 257.212 84.6763C257.619 84.4727 258.071 84.3709 258.567 84.3709C258.984 84.3709 259.36 84.4283 259.694 84.5432C260.034 84.658 260.326 84.8434 260.571 85.0991C260.817 85.3497 261.002 85.6786 261.127 86.0858C261.258 86.4877 261.323 86.9784 261.323 87.5579V93H259.428V87.5422C259.428 87.135 259.368 86.8114 259.248 86.5713C259.133 86.3311 258.963 86.1589 258.739 86.0545C258.515 85.9448 258.24 85.89 257.917 85.89C257.577 85.89 257.277 85.9579 257.016 86.0936C256.761 86.2293 256.546 86.4147 256.374 86.6496C256.202 86.8845 256.071 87.1559 255.983 87.4639C255.899 87.7719 255.857 88.1008 255.857 88.4506ZM266.969 93.1566C266.342 93.1566 265.776 93.0548 265.27 92.8512C264.768 92.6424 264.34 92.3527 263.985 91.9821C263.636 91.6114 263.367 91.1755 263.179 90.6744C262.991 90.1732 262.897 89.6329 262.897 89.0535V88.7403C262.897 88.0773 262.994 87.477 263.187 86.9393C263.38 86.4016 263.649 85.9422 263.993 85.5611C264.338 85.1748 264.745 84.8799 265.215 84.6763C265.685 84.4727 266.194 84.3709 266.742 84.3709C267.347 84.3709 267.877 84.4727 268.331 84.6763C268.785 84.8799 269.161 85.167 269.459 85.5376C269.762 85.9031 269.986 86.339 270.132 86.8453C270.284 87.3517 270.359 87.9103 270.359 88.521V89.3276H263.813V87.9729H268.496V87.8241C268.485 87.4848 268.417 87.1664 268.292 86.8688C268.172 86.5713 267.987 86.3311 267.736 86.1484C267.486 85.9657 267.151 85.8744 266.734 85.8744C266.421 85.8744 266.141 85.9422 265.896 86.0779C265.656 86.2085 265.455 86.399 265.293 86.6496C265.131 86.9001 265.006 87.2029 264.917 87.5579C264.834 87.9076 264.792 88.3018 264.792 88.7403V89.0535C264.792 89.4241 264.841 89.7687 264.941 90.0871C265.045 90.4003 265.196 90.6744 265.395 90.9093C265.593 91.1442 265.833 91.3295 266.115 91.4652C266.397 91.5958 266.718 91.661 267.078 91.661C267.533 91.661 267.937 91.5697 268.292 91.3869C268.647 91.2042 268.955 90.9458 269.216 90.6117L270.211 91.5749C270.028 91.8411 269.79 92.0969 269.498 92.3422C269.206 92.5824 268.848 92.7781 268.425 92.9295C268.008 93.0809 267.522 93.1566 266.969 93.1566ZM273.726 86.1406V93H271.839V84.5275H273.64L273.726 86.1406ZM276.318 84.4727L276.303 86.2267C276.188 86.2058 276.062 86.1902 275.927 86.1797C275.796 86.1693 275.666 86.1641 275.535 86.1641C275.212 86.1641 274.927 86.2111 274.682 86.305C274.436 86.3938 274.23 86.5243 274.063 86.6965C273.901 86.8636 273.776 87.0672 273.687 87.3073C273.598 87.5474 273.546 87.8163 273.531 88.1138L273.1 88.1452C273.1 87.6127 273.152 87.1194 273.257 86.6652C273.361 86.2111 273.518 85.8117 273.726 85.4672C273.94 85.1226 274.207 84.8538 274.525 84.6606C274.849 84.4675 275.222 84.3709 275.645 84.3709C275.76 84.3709 275.882 84.3814 276.013 84.4022C276.149 84.4231 276.25 84.4466 276.318 84.4727Z" fill="black"/>
<line x1="111" y1="117.818" x2="277" y2="117.818" stroke="#9D9D9D" stroke-width="0.364176"/>
<path d="M113.975 111.233V111.113C113.975 110.705 114.034 110.326 114.153 109.977C114.271 109.625 114.442 109.32 114.665 109.062C114.888 108.8 115.159 108.598 115.476 108.455C115.793 108.309 116.149 108.235 116.543 108.235C116.941 108.235 117.298 108.309 117.615 108.455C117.936 108.598 118.208 108.8 118.431 109.062C118.658 109.32 118.831 109.625 118.949 109.977C119.068 110.326 119.127 110.705 119.127 111.113V111.233C119.127 111.641 119.068 112.019 118.949 112.368C118.831 112.717 118.658 113.022 118.431 113.283C118.208 113.541 117.938 113.744 117.621 113.89C117.307 114.033 116.951 114.105 116.554 114.105C116.156 114.105 115.799 114.033 115.481 113.89C115.164 113.744 114.892 113.541 114.665 113.283C114.442 113.022 114.271 112.717 114.153 112.368C114.034 112.019 113.975 111.641 113.975 111.233ZM114.942 111.113V111.233C114.942 111.515 114.976 111.782 115.042 112.033C115.108 112.281 115.207 112.5 115.34 112.692C115.476 112.884 115.645 113.036 115.847 113.147C116.05 113.255 116.285 113.31 116.554 113.31C116.819 113.31 117.05 113.255 117.249 113.147C117.451 113.036 117.619 112.884 117.751 112.692C117.884 112.5 117.983 112.281 118.05 112.033C118.119 111.782 118.154 111.515 118.154 111.233V111.113C118.154 110.834 118.119 110.57 118.05 110.323C117.983 110.072 117.882 109.85 117.746 109.658C117.614 109.463 117.446 109.31 117.244 109.198C117.045 109.086 116.812 109.031 116.543 109.031C116.278 109.031 116.044 109.086 115.842 109.198C115.643 109.31 115.476 109.463 115.34 109.658C115.207 109.85 115.108 110.072 115.042 110.323C114.976 110.57 114.942 110.834 114.942 111.113ZM121.308 105.965V114H120.341V105.965H121.308ZM121.078 110.956L120.676 110.94C120.679 110.553 120.737 110.195 120.848 109.868C120.96 109.536 121.117 109.249 121.319 109.004C121.521 108.76 121.762 108.572 122.041 108.44C122.323 108.303 122.635 108.235 122.977 108.235C123.256 108.235 123.507 108.274 123.73 108.351C123.954 108.424 124.144 108.542 124.301 108.706C124.461 108.87 124.583 109.083 124.667 109.344C124.75 109.603 124.792 109.918 124.792 110.291V114H123.819V110.281C123.819 109.984 123.776 109.747 123.689 109.569C123.601 109.388 123.474 109.257 123.307 109.177C123.139 109.093 122.934 109.052 122.689 109.052C122.449 109.052 122.229 109.102 122.03 109.203C121.835 109.304 121.666 109.444 121.523 109.622C121.383 109.8 121.274 110.004 121.193 110.234C121.117 110.46 121.078 110.701 121.078 110.956ZM129.95 108.34V114H128.977V108.34H129.95ZM128.904 106.839C128.904 106.682 128.951 106.549 129.045 106.441C129.143 106.333 129.286 106.279 129.474 106.279C129.659 106.279 129.8 106.333 129.898 106.441C129.999 106.549 130.049 106.682 130.049 106.839C130.049 106.989 129.999 107.118 129.898 107.226C129.8 107.331 129.659 107.383 129.474 107.383C129.286 107.383 129.143 107.331 129.045 107.226C128.951 107.118 128.904 106.989 128.904 106.839ZM136.531 108.34V109.083H133.47V108.34H136.531ZM134.506 106.964H135.474V112.598C135.474 112.79 135.503 112.935 135.563 113.032C135.622 113.13 135.699 113.194 135.793 113.226C135.887 113.257 135.988 113.273 136.096 113.273C136.177 113.273 136.26 113.266 136.347 113.252C136.438 113.235 136.506 113.221 136.551 113.21L136.557 114C136.48 114.024 136.379 114.047 136.253 114.068C136.131 114.092 135.983 114.105 135.809 114.105C135.572 114.105 135.354 114.058 135.155 113.963C134.956 113.869 134.797 113.712 134.679 113.493C134.564 113.269 134.506 112.97 134.506 112.593V106.964ZM138.633 105.965V114H137.666V105.965H138.633ZM138.403 110.956L138 110.94C138.004 110.553 138.061 110.195 138.173 109.868C138.285 109.536 138.442 109.249 138.644 109.004C138.846 108.76 139.087 108.572 139.366 108.44C139.648 108.303 139.96 108.235 140.302 108.235C140.581 108.235 140.832 108.274 141.055 108.351C141.278 108.424 141.469 108.542 141.625 108.706C141.786 108.87 141.908 109.083 141.992 109.344C142.075 109.603 142.117 109.918 142.117 110.291V114H141.144V110.281C141.144 109.984 141.101 109.747 141.013 109.569C140.926 109.388 140.799 109.257 140.632 109.177C140.464 109.093 140.258 109.052 140.014 109.052C139.774 109.052 139.554 109.102 139.355 109.203C139.16 109.304 138.991 109.444 138.848 109.622C138.708 109.8 138.598 110.004 138.518 110.234C138.442 110.46 138.403 110.701 138.403 110.956ZM144.618 108.34V114H143.645V108.34H144.618ZM143.571 106.839C143.571 106.682 143.618 106.549 143.713 106.441C143.81 106.333 143.953 106.279 144.142 106.279C144.326 106.279 144.468 106.333 144.565 106.441C144.666 106.549 144.717 106.682 144.717 106.839C144.717 106.989 144.666 107.118 144.565 107.226C144.468 107.331 144.326 107.383 144.142 107.383C143.953 107.383 143.81 107.331 143.713 107.226C143.618 107.118 143.571 106.989 143.571 106.839ZM147.139 109.548V114H146.171V108.34H147.087L147.139 109.548ZM146.909 110.956L146.506 110.94C146.509 110.553 146.567 110.195 146.679 109.868C146.79 109.536 146.947 109.249 147.149 109.004C147.352 108.76 147.592 108.572 147.871 108.44C148.154 108.303 148.466 108.235 148.808 108.235C149.087 108.235 149.338 108.274 149.561 108.351C149.784 108.424 149.974 108.542 150.131 108.706C150.291 108.87 150.413 109.083 150.497 109.344C150.581 109.603 150.623 109.918 150.623 110.291V114H149.65V110.281C149.65 109.984 149.606 109.747 149.519 109.569C149.432 109.388 149.304 109.257 149.137 109.177C148.97 109.093 148.764 109.052 148.52 109.052C148.279 109.052 148.06 109.102 147.861 109.203C147.665 109.304 147.496 109.444 147.353 109.622C147.214 109.8 147.104 110.004 147.024 110.234C146.947 110.46 146.909 110.701 146.909 110.956ZM153.066 105.965V114H152.093V105.965H153.066ZM156.523 108.34L154.054 110.982L152.673 112.415L152.595 111.385L153.583 110.202L155.341 108.34H156.523ZM155.639 114L153.62 111.301L154.122 110.438L156.78 114H155.639ZM161.142 109.465V114H160.169V108.34H161.09L161.142 109.465ZM160.943 110.956L160.493 110.94C160.497 110.553 160.548 110.195 160.645 109.868C160.743 109.536 160.888 109.249 161.079 109.004C161.271 108.76 161.51 108.572 161.796 108.44C162.082 108.303 162.413 108.235 162.79 108.235C163.055 108.235 163.299 108.274 163.522 108.351C163.745 108.424 163.939 108.541 164.103 108.701C164.267 108.861 164.394 109.067 164.485 109.318C164.575 109.569 164.621 109.873 164.621 110.228V114H163.653V110.276C163.653 109.979 163.602 109.742 163.501 109.564C163.404 109.386 163.264 109.257 163.083 109.177C162.901 109.093 162.689 109.052 162.445 109.052C162.159 109.052 161.92 109.102 161.728 109.203C161.536 109.304 161.383 109.444 161.268 109.622C161.153 109.8 161.069 110.004 161.017 110.234C160.968 110.46 160.943 110.701 160.943 110.956ZM164.61 110.422L163.962 110.621C163.965 110.31 164.016 110.012 164.113 109.726C164.214 109.44 164.359 109.186 164.547 108.963C164.739 108.739 164.975 108.563 165.254 108.434C165.533 108.302 165.852 108.235 166.211 108.235C166.514 108.235 166.783 108.276 167.016 108.356C167.254 108.436 167.452 108.56 167.613 108.727C167.777 108.891 167.901 109.102 167.984 109.36C168.068 109.618 168.11 109.925 168.11 110.281V114H167.137V110.27C167.137 109.953 167.086 109.707 166.985 109.533C166.887 109.355 166.748 109.231 166.567 109.161C166.389 109.088 166.176 109.052 165.928 109.052C165.716 109.052 165.527 109.088 165.364 109.161C165.2 109.235 165.062 109.336 164.95 109.465C164.839 109.59 164.753 109.735 164.694 109.899C164.638 110.063 164.61 110.237 164.61 110.422ZM172.912 113.032V110.119C172.912 109.895 172.866 109.702 172.776 109.538C172.689 109.371 172.556 109.242 172.378 109.151C172.2 109.06 171.981 109.015 171.719 109.015C171.475 109.015 171.261 109.057 171.076 109.14C170.894 109.224 170.751 109.334 170.647 109.47C170.546 109.606 170.495 109.752 170.495 109.909H169.527C169.527 109.707 169.58 109.507 169.684 109.308C169.789 109.109 169.939 108.929 170.134 108.769C170.333 108.605 170.57 108.476 170.846 108.382C171.125 108.284 171.435 108.235 171.777 108.235C172.188 108.235 172.551 108.305 172.865 108.445C173.182 108.584 173.43 108.795 173.607 109.078C173.789 109.357 173.879 109.707 173.879 110.129V112.765C173.879 112.954 173.895 113.154 173.927 113.367C173.961 113.58 174.012 113.763 174.078 113.916V114H173.069C173.02 113.888 172.982 113.74 172.954 113.555C172.926 113.367 172.912 113.193 172.912 113.032ZM173.079 110.568L173.09 111.249H172.111C171.836 111.249 171.59 111.271 171.374 111.317C171.158 111.358 170.976 111.423 170.83 111.51C170.683 111.597 170.572 111.707 170.495 111.84C170.418 111.969 170.38 112.12 170.38 112.295C170.38 112.473 170.42 112.635 170.5 112.781C170.58 112.928 170.701 113.044 170.861 113.132C171.025 113.215 171.226 113.257 171.463 113.257C171.759 113.257 172.021 113.194 172.247 113.069C172.474 112.943 172.654 112.79 172.786 112.609C172.922 112.427 172.995 112.251 173.006 112.08L173.419 112.546C173.395 112.692 173.328 112.854 173.22 113.032C173.112 113.21 172.968 113.381 172.786 113.545C172.608 113.705 172.396 113.84 172.148 113.948C171.904 114.052 171.628 114.105 171.322 114.105C170.938 114.105 170.601 114.03 170.312 113.88C170.026 113.73 169.803 113.529 169.642 113.278C169.485 113.024 169.407 112.739 169.407 112.425C169.407 112.122 169.466 111.855 169.585 111.625C169.703 111.391 169.874 111.198 170.098 111.045C170.321 110.888 170.589 110.769 170.903 110.689C171.217 110.609 171.567 110.568 171.954 110.568H173.079ZM176.908 113.414L178.483 108.34H179.518L177.248 114.874C177.196 115.013 177.126 115.163 177.039 115.323C176.955 115.487 176.847 115.643 176.715 115.789C176.582 115.935 176.422 116.054 176.233 116.145C176.049 116.239 175.827 116.286 175.569 116.286C175.492 116.286 175.395 116.275 175.276 116.255C175.158 116.234 175.074 116.216 175.025 116.202L175.02 115.418C175.048 115.421 175.091 115.425 175.151 115.428C175.213 115.435 175.257 115.439 175.281 115.439C175.501 115.439 175.688 115.409 175.841 115.35C175.995 115.294 176.124 115.198 176.228 115.062C176.336 114.929 176.429 114.746 176.505 114.513L176.908 113.414ZM175.752 108.34L177.222 112.734L177.473 113.754L176.777 114.11L174.696 108.34H175.752ZM183.044 105.965H184.017V112.902L183.933 114H183.044V105.965ZM187.841 111.123V111.233C187.841 111.644 187.792 112.026 187.694 112.378C187.597 112.727 187.454 113.031 187.265 113.289C187.077 113.547 186.847 113.747 186.575 113.89C186.303 114.033 185.991 114.105 185.639 114.105C185.279 114.105 184.964 114.044 184.692 113.922C184.423 113.796 184.197 113.616 184.012 113.383C183.827 113.149 183.679 112.867 183.567 112.535C183.459 112.204 183.384 111.831 183.342 111.416V110.935C183.384 110.516 183.459 110.141 183.567 109.81C183.679 109.479 183.827 109.196 184.012 108.963C184.197 108.725 184.423 108.546 184.692 108.424C184.96 108.298 185.272 108.235 185.628 108.235C185.984 108.235 186.3 108.305 186.575 108.445C186.85 108.581 187.081 108.776 187.265 109.031C187.454 109.285 187.597 109.59 187.694 109.946C187.792 110.298 187.841 110.691 187.841 111.123ZM186.868 111.233V111.123C186.868 110.841 186.842 110.575 186.789 110.328C186.737 110.077 186.653 109.857 186.538 109.669C186.423 109.477 186.272 109.327 186.083 109.219C185.895 109.107 185.663 109.052 185.388 109.052C185.143 109.052 184.931 109.093 184.749 109.177C184.572 109.261 184.42 109.374 184.294 109.517C184.169 109.657 184.066 109.817 183.986 109.998C183.909 110.176 183.851 110.361 183.813 110.553V111.813C183.869 112.058 183.96 112.293 184.085 112.52C184.214 112.743 184.385 112.926 184.598 113.069C184.814 113.212 185.081 113.283 185.398 113.283C185.66 113.283 185.883 113.231 186.068 113.126C186.256 113.018 186.408 112.87 186.523 112.682C186.641 112.493 186.728 112.276 186.784 112.028C186.84 111.78 186.868 111.515 186.868 111.233ZM191.414 114.105C191.02 114.105 190.662 114.038 190.341 113.906C190.024 113.77 189.75 113.58 189.52 113.336C189.293 113.092 189.119 112.802 188.997 112.467C188.875 112.133 188.814 111.766 188.814 111.369V111.149C188.814 110.689 188.882 110.279 189.018 109.92C189.154 109.557 189.339 109.25 189.572 108.999C189.806 108.748 190.071 108.558 190.367 108.429C190.664 108.3 190.971 108.235 191.288 108.235C191.693 108.235 192.041 108.305 192.334 108.445C192.631 108.584 192.873 108.78 193.061 109.031C193.25 109.278 193.389 109.571 193.48 109.909C193.571 110.244 193.616 110.61 193.616 111.008V111.442H189.389V110.652H192.648V110.579C192.634 110.328 192.582 110.084 192.491 109.847C192.404 109.609 192.265 109.414 192.073 109.261C191.881 109.107 191.619 109.031 191.288 109.031C191.068 109.031 190.866 109.078 190.681 109.172C190.496 109.263 190.338 109.399 190.205 109.58C190.073 109.761 189.97 109.983 189.897 110.244C189.823 110.506 189.787 110.807 189.787 111.149V111.369C189.787 111.637 189.823 111.89 189.897 112.127C189.973 112.361 190.083 112.567 190.226 112.745C190.373 112.922 190.549 113.062 190.755 113.163C190.964 113.264 191.201 113.315 191.466 113.315C191.808 113.315 192.097 113.245 192.334 113.106C192.571 112.966 192.779 112.779 192.957 112.546L193.543 113.011C193.421 113.196 193.265 113.372 193.077 113.54C192.889 113.707 192.657 113.843 192.381 113.948C192.109 114.052 191.787 114.105 191.414 114.105ZM197.34 110.296L198.392 108.853L196.812 108.382L197.058 107.597L198.638 108.178L198.59 106.379H199.386L199.333 108.209L200.892 107.629L201.133 108.429L199.527 108.905L200.557 110.323L199.909 110.809L198.941 109.303L197.994 110.773L197.34 110.296ZM201.954 110.296L203.005 108.853L201.426 108.382L201.672 107.597L203.251 108.178L203.204 106.379H203.999L203.947 108.209L205.506 107.629L205.746 108.429L204.141 108.905L205.171 110.323L204.522 110.809L203.555 109.303L202.608 110.773L201.954 110.296ZM206.568 110.296L207.619 108.853L206.039 108.382L206.285 107.597L207.865 108.178L207.818 106.379H208.613L208.561 108.209L210.12 107.629L210.36 108.429L208.754 108.905L209.785 110.323L209.136 110.809L208.168 109.303L207.222 110.773L206.568 110.296Z" fill="#636363"/>
<g clip-path="url(#clip1_1321_185)">
<path d="M61.574 103.798L59.3989 104.872C59.0351 105.048 58.6761 105.234 58.3176 105.422L57.241 105.983C56.8614 106.183 56.477 106.378 56.1006 106.586C55.7249 106.795 55.3506 107.006 54.9809 107.224C54.4882 107.515 53.9937 107.802 53.5039 108.099L52.0435 109.001C51.0657 109.595 50.1104 110.224 49.1486 110.843L48.4289 111.31L47.7172 111.788L46.2923 112.743L45.9365 112.982L45.5843 113.227L44.8799 113.717L43.4699 114.694L41.7536 115.926C41.4684 116.132 41.1801 116.334 40.8961 116.543L40.0495 117.174C39.4856 117.597 38.9167 118.011 38.3567 118.438L36.6845 119.729C34.4687 121.467 32.2801 123.243 30.1606 125.099C29.8397 125.377 29.5076 125.647 29.1731 125.91C28.8415 126.178 28.5096 126.444 28.1789 126.704C27.5459 127.203 27.0351 127.416 26.6313 127.455C26.0424 127.512 26.1401 126.916 26.9353 126.078C27.1864 125.814 27.4601 125.547 27.7416 125.286C27.8822 125.156 28.0257 125.027 28.1697 124.899C28.3151 124.774 28.4627 124.653 28.6079 124.533C31.269 122.309 33.932 120.114 36.5955 117.904C36.9633 117.599 37.3331 117.282 37.7114 116.98C38.0927 116.681 38.4775 116.394 38.8648 116.137C40.095 115.306 41.3224 114.466 42.5342 113.604L44.3763 112.344C44.6843 112.135 44.9899 111.924 45.3024 111.722L46.2436 111.125C46.7113 110.833 47.178 110.536 47.643 110.238C48.1126 109.945 48.5822 109.653 49.0527 109.361L50.4633 108.486C50.9394 108.204 51.4164 107.923 51.8925 107.642C55.2987 105.654 58.7816 103.808 62.3219 102.086C62.6752 101.915 63.0267 101.751 63.374 101.597C63.548 101.52 63.7206 101.445 63.8937 101.372C64.0677 101.304 64.2404 101.237 64.4133 101.173C65.1015 100.919 65.7751 100.709 66.4302 100.558C67.0326 100.42 67.1322 100.732 66.5325 101.098C66.1082 101.358 65.6695 101.614 65.223 101.866C64.7752 102.114 64.322 102.363 63.871 102.612C63.1285 103.023 62.338 103.386 61.5717 103.774C61.5729 103.781 61.5741 103.789 61.5751 103.797L61.574 103.798Z" fill="black"/>
<path d="M54.7579 110.876C55.7685 109.643 56.8467 108.467 57.9802 107.35C58.2843 107.058 58.5887 106.765 58.8938 106.473C59.2051 106.189 59.514 105.902 59.8182 105.61C61.1293 104.385 62.5021 103.234 63.9071 102.133C65.3131 101.032 66.749 99.9778 68.1989 98.9492L68.7933 100.281C67.9299 100.492 67.0665 100.704 66.2021 100.915C60.8989 102.201 55.585 103.448 50.2719 104.701C49.4703 104.89 48.649 105.028 47.8447 105.162C47.0744 105.289 46.5412 105.225 46.1815 105.062C45.6574 104.824 46.0175 104.352 47.072 104.011C47.7391 103.794 48.4829 103.618 49.1901 103.473C52.4517 102.8 55.6755 102.017 58.8759 101.131C59.7596 100.887 60.674 100.611 61.5517 100.453C63.8726 100.035 66.1661 99.4435 68.4668 98.9136L68.4723 98.9119C68.8293 98.8294 69.1855 99.0524 69.268 99.4093C69.3307 99.6818 69.2149 99.9542 68.9988 100.104C68.5948 100.384 68.1895 100.661 67.7811 100.933C66.032 102.114 64.3375 103.385 62.7002 104.703C61.2381 105.876 59.8344 107.117 58.523 108.451C57.2109 109.783 55.9923 111.208 54.8718 112.711C54.6528 113.013 54.4324 113.31 54.2093 113.596C54.1536 113.667 54.097 113.738 54.0413 113.809C53.9876 113.881 53.9328 113.952 53.8791 114.024C53.7708 114.166 53.6623 114.305 53.5531 114.443C53.4432 114.58 53.3337 114.714 53.2221 114.845C53.1656 114.911 53.1095 114.976 53.0545 115.041C53.0002 115.106 52.9459 115.172 52.8919 115.236C52.6738 115.494 52.4526 115.739 52.2253 115.972C51.8065 116.4 51.5453 116.205 51.8386 115.585C52.2462 114.703 52.7426 113.812 53.2801 112.951C53.5057 112.601 53.7467 112.253 53.993 111.908C54.2508 111.571 54.5095 111.233 54.767 110.897C54.7625 110.891 54.7589 110.885 54.7546 110.878L54.7579 110.876Z" fill="black"/>
</g>
<path fill-rule="evenodd" clip-rule="evenodd" d="M555.708 42.285C552.267 56.8312 537.641 64.7776 524.72 72.2927C512.844 79.2004 500.134 83.5559 486.429 82.5794C470.365 81.4347 452.43 79.3961 442.839 66.4583C432.999 53.1834 434.313 34.6839 439.232 18.9089C443.67 4.67637 455.745 -4.45167 467.721 -13.3307C480.662 -22.9256 493.862 -36.3277 509.692 -33.3296C525.581 -30.3199 533.251 -13.1415 541.659 0.673758C549.571 13.6744 559.21 27.4748 555.708 42.285Z" fill="#C4C4C4"/>
<path d="M424.199 23.4741C424.575 24.0951 425.016 24.6811 425.533 25.1881C425.791 25.442 426.062 25.6803 426.353 25.8928C426.644 26.1044 426.948 26.2939 427.267 26.4567C427.535 26.5957 427.816 26.7061 428.1 26.8036L428.13 26.8137C428.434 26.9186 428.596 27.2498 428.491 27.5534C428.438 27.7089 428.324 27.8275 428.186 27.8919C427.713 28.1109 427.235 28.3041 426.778 28.501C426.38 28.673 425.997 28.8432 425.642 29.0373C425.286 29.2296 424.961 29.4523 424.658 29.7071C424.583 29.7706 424.507 29.835 424.437 29.9049L424.328 30.007C424.293 30.0411 424.269 30.0733 424.24 30.1055C424.183 30.1708 424.123 30.2297 424.07 30.3115C424.015 30.3897 423.957 30.4597 423.906 30.5443L423.751 30.7964C423.701 30.8819 423.655 30.9739 423.607 31.0623L423.535 31.1957L423.469 31.3355L423.336 31.6143C423 32.3742 422.721 33.1764 422.487 33.9897C422.375 34.3973 422.265 34.8067 422.18 35.217C422.094 35.6255 422.017 36.0385 421.979 36.4286C421.943 36.8104 421.603 37.0901 421.221 37.0533C420.931 37.0248 420.699 36.8215 420.621 36.5565L420.62 36.5482C420.475 36.0496 420.384 35.5758 420.295 35.1057L420.045 33.7155C419.909 32.9621 419.764 32.2187 419.562 31.525C419.459 31.1819 419.339 30.8525 419.198 30.5682L419.087 30.3704C419.043 30.3033 418.994 30.2343 418.948 30.1662C418.849 30.0319 418.746 29.8985 418.63 29.7715C418.402 29.5157 418.148 29.2738 417.874 29.0465C417.599 28.8221 417.308 28.6114 417.004 28.4154C416.397 28.0244 415.741 27.6932 415.069 27.431C414.692 27.2838 414.505 26.8579 414.653 26.4807C414.729 26.2865 414.878 26.143 415.056 26.0694L415.063 26.0667C415.594 25.8495 416.124 25.6315 416.618 25.3748C417.121 25.1283 417.584 24.8394 418.01 24.5183L418.321 24.2699L418.608 23.9985C418.708 23.912 418.789 23.809 418.876 23.7115C418.96 23.6112 419.056 23.5201 419.127 23.4088L419.358 23.0895C419.431 22.9791 419.494 22.8614 419.563 22.7482L419.666 22.5771C419.697 22.5173 419.724 22.4557 419.754 22.3959L419.93 22.0325C420.23 21.3369 420.494 20.5899 420.718 19.8355C420.768 19.6533 420.821 19.4877 420.878 19.3387C420.907 19.2642 420.936 19.1933 420.966 19.1262C420.975 19.1059 420.979 19.1013 420.986 19.0921C420.991 19.0839 420.998 19.0756 421.004 19.0682C421.017 19.0526 421.031 19.0379 421.046 19.0231C421.107 18.9643 421.191 18.9035 421.272 18.8189C421.354 18.7352 421.43 18.6312 421.491 18.5217C421.667 18.197 421.691 18.0029 421.805 18.1289C421.832 18.1611 421.865 18.2154 421.902 18.3C421.939 18.3837 421.978 18.5006 422.007 18.6496C422.035 18.7977 422.049 18.9762 422.043 19.163C422.041 19.209 422.038 19.2587 422.035 19.3019C422.033 19.3332 422.031 19.3654 422.028 19.3985C422.023 19.4647 422.015 19.5328 422.006 19.6037C421.984 19.7831 421.957 19.9652 421.928 20.1501C421.897 20.3351 421.849 20.5209 421.805 20.7077C421.725 21.0821 421.59 21.4538 421.469 21.8126C421.405 21.9745 421.335 22.1346 421.269 22.2956L421.169 22.5366L421.051 22.7721C420.97 22.9285 420.896 23.0877 420.809 23.2404L420.532 23.694C420.139 24.2865 419.664 24.8302 419.125 25.292L418.711 25.6223C418.571 25.7272 418.424 25.821 418.281 25.9213C418.138 26.0243 417.988 26.1081 417.839 26.1964C417.69 26.2838 417.543 26.3767 417.391 26.4512L416.938 26.6886L416.48 26.9057L416.25 27.0133L416.02 27.1136L415.56 27.3151L415.554 26.1725C416.256 26.4291 416.931 26.741 417.581 27.1127C418.003 27.3547 418.424 27.6242 418.819 27.937C419.214 28.2489 419.581 28.6049 419.881 29.0079C419.978 29.1477 420.08 29.2811 420.169 29.4293C420.214 29.5038 420.262 29.5691 420.304 29.6519L420.43 29.8929C420.476 29.9739 420.501 30.0521 420.537 30.1321C420.569 30.2113 420.606 30.2913 420.633 30.3695C420.685 30.5259 420.747 30.6841 420.79 30.8387C420.977 31.4606 421.104 32.0715 421.221 32.6769C421.336 33.2822 421.436 33.8821 421.538 34.4736C421.641 35.0624 421.744 35.6503 421.885 36.1811L420.668 36.2879C420.724 35.8039 420.82 35.355 420.929 34.9079C421.06 34.3743 421.212 33.8517 421.38 33.3319C421.548 32.8121 421.731 32.2969 421.943 31.7881C422.154 31.2794 422.38 30.7743 422.671 30.2821C422.817 30.0365 422.974 29.7927 423.162 29.5553C423.185 29.5259 423.207 29.4955 423.232 29.4661L423.312 29.3787L423.474 29.2057C423.529 29.1477 423.581 29.1063 423.635 29.0567C423.69 29.0088 423.741 28.9591 423.797 28.9141C424.091 28.6629 424.412 28.4393 424.744 28.2434C425.076 28.0474 425.418 27.8827 425.757 27.7355C426.436 27.443 427.091 27.2038 427.715 26.9103L427.787 27.8367C427.18 27.6417 426.604 27.3648 426.072 27.0281C425.543 26.6867 425.059 26.2865 424.621 25.8468C424.185 25.4043 423.795 24.9203 423.45 24.4088C423.106 23.8982 422.816 23.3453 422.571 22.7878C422.259 22.0711 422.043 21.348 421.903 20.646C421.761 19.9441 421.697 19.2614 421.696 18.6137C421.697 18.3699 421.749 18.2227 421.826 18.1823L421.743 18.3939C421.723 18.4123 421.692 18.4288 421.662 18.4362C421.632 18.4435 421.603 18.4435 421.583 18.4417C421.541 18.4371 421.526 18.4316 421.522 18.4371C421.52 18.4417 421.531 18.4592 421.577 18.4767C421.6 18.4849 421.633 18.4923 421.672 18.4886C421.711 18.4859 421.753 18.4721 421.784 18.4527L421.897 18.1685C421.996 18.1795 422.113 18.335 422.212 18.6358C422.509 19.5374 422.817 20.4703 423.175 21.3581C423.468 22.0867 423.773 22.8237 424.179 23.4732C424.185 23.4713 424.192 23.4695 424.2 23.4677L424.199 23.4741Z" fill="black"/>
<path d="M440.253 32.836C440.377 33.1966 440.51 33.5545 440.648 33.9069C440.683 33.9933 440.718 34.0853 440.753 34.1663C440.788 34.2427 440.818 34.3218 440.857 34.3972C440.931 34.5481 441.013 34.6962 441.104 34.8379C441.469 35.4074 441.977 35.895 442.578 36.2759C443.09 36.608 443.668 36.8656 444.27 37.0606C444.574 37.1591 444.739 37.4847 444.642 37.7874C444.594 37.9346 444.492 38.0505 444.366 38.1186L444.35 38.1269C444.223 38.195 444.094 38.2566 443.972 38.3339C443.266 38.758 442.632 39.3312 442.081 39.9743C441.529 40.6183 441.06 41.3386 440.683 42.0985C440.307 42.8585 440.02 43.6616 439.87 44.4758C439.72 45.2882 439.705 46.1153 439.891 46.866L438.523 47.1457C438.378 46.3471 438.238 45.5541 438.066 44.7785C437.913 44.0802 437.738 43.393 437.519 42.7287C437.299 42.0654 437.036 41.4242 436.716 40.8207C436.635 40.6716 436.549 40.5226 436.465 40.3772C436.378 40.2355 436.289 40.0966 436.193 39.9641C436.003 39.6973 435.795 39.4499 435.57 39.2327C435.121 38.7967 434.601 38.505 434.068 38.4342C433.667 38.3808 433.385 38.0119 433.438 37.6108C433.469 37.378 433.605 37.1857 433.792 37.0753L433.798 37.0726C434.284 36.7892 434.734 36.4516 435.123 36.0486C435.225 35.952 435.313 35.8425 435.408 35.7395C435.495 35.63 435.587 35.5233 435.669 35.4083C435.839 35.1829 435.991 34.9428 436.132 34.6944C436.697 33.6989 437.035 32.5508 437.247 31.3713C437.384 30.5995 437.516 29.8064 437.613 29.018C437.658 28.6408 437.725 28.3289 437.809 28.0731C437.85 27.9453 437.897 27.8312 437.948 27.73C437.973 27.649 438.006 27.5589 438.045 27.4917C438.085 27.4218 438.129 27.3703 438.165 27.3381C438.371 27.1807 438.213 27.4577 438.458 27.6821C438.518 27.7327 438.606 27.7502 438.663 27.7419C438.691 27.741 438.712 27.7309 438.726 27.7383C438.739 27.7815 438.752 27.8266 438.763 27.8753C438.811 28.0695 438.842 28.3096 438.852 28.5911C438.877 29.3041 438.82 30.087 438.702 30.8221C438.589 31.5296 438.444 32.2343 438.244 32.9317C438.144 33.2794 438.032 33.6263 437.901 33.9667C437.771 34.308 437.626 34.6456 437.458 34.9741C437.128 35.6328 436.711 36.2602 436.209 36.8187C435.956 37.0965 435.685 37.3578 435.394 37.5988C435.101 37.8362 434.793 38.0533 434.472 38.2502L434.241 37.0882C434.908 37.1627 435.536 37.4341 436.053 37.8003C436.489 38.1067 436.875 38.4756 437.197 38.8758C437.361 39.0754 437.507 39.2833 437.64 39.4959L437.736 39.6559C437.766 39.7093 437.794 39.7627 437.824 39.816C437.88 39.9227 437.938 40.0285 437.987 40.1362C438.507 41.2356 438.869 42.3764 439.152 43.5144C439.435 44.6543 439.64 45.796 439.827 46.9221L439.829 46.9331C439.885 47.2726 439.656 47.5946 439.316 47.6507C438.988 47.705 438.677 47.4925 438.605 47.1723C438.465 46.5504 438.427 45.9193 438.478 45.3075C438.575 44.1612 438.899 43.0701 439.36 42.0535C439.825 41.0387 440.431 40.0929 441.17 39.2567C441.922 38.4066 442.816 37.6577 443.874 37.1471L443.945 38.0965C443.61 37.9815 443.276 37.861 442.952 37.7092C442.626 37.5639 442.309 37.3927 442.002 37.2005C441.695 37.0109 441.404 36.7892 441.131 36.5473C440.858 36.3053 440.605 36.0357 440.384 35.7413C440.162 35.4479 439.969 35.1323 439.812 34.8002C439.775 34.7174 439.733 34.6318 439.699 34.5518L439.601 34.3135C439.536 34.1543 439.474 33.9952 439.412 33.8351C439.169 33.1957 438.945 32.5517 438.743 31.8985C438.517 31.1699 438.343 30.444 438.25 29.7328C438.16 29.0244 438.142 28.3206 438.283 27.6858C438.327 27.523 438.382 27.4144 438.44 27.3629L438.427 27.2902C438.422 27.2571 438.404 27.2175 438.378 27.1863C438.353 27.1541 438.323 27.132 438.3 27.1163C438.254 27.0851 438.23 27.0685 438.226 27.0501C438.223 27.0335 438.235 27.0105 438.308 27.005C438.344 27.0032 438.401 27.0105 438.465 27.0446C438.528 27.0768 438.587 27.1366 438.623 27.1927L438.658 27.3859C438.688 27.4236 438.714 27.4788 438.735 27.5487C438.757 27.6196 438.766 27.7024 438.785 27.8109C438.802 27.9195 438.811 28.0253 438.835 28.1366C438.856 28.247 438.877 28.3583 438.899 28.4697C438.952 28.6951 439.001 28.9205 439.065 29.1495C439.185 29.6059 439.323 30.0686 439.473 30.5286C439.716 31.2849 439.951 32.0733 440.237 32.8332C440.244 32.8332 440.25 32.8332 440.259 32.8332L440.253 32.836Z" fill="black"/>
<path d="M428.348 46.3233C428.577 46.9774 428.963 47.5285 429.518 47.9223C429.569 47.9655 429.63 47.9977 429.688 48.0327L429.864 48.1385C429.987 48.201 430.116 48.2544 430.243 48.3114L430.288 48.3317C430.577 48.4614 430.706 48.7999 430.576 49.0888C430.511 49.2333 430.392 49.3381 430.255 49.3906C430.154 49.4292 430.053 49.4679 429.956 49.5083C429.753 49.5921 429.561 49.6758 429.391 49.7659C429.221 49.857 429.072 49.9527 428.938 50.0668C428.673 50.2931 428.44 50.6077 428.243 50.9509C428.048 51.2959 427.888 51.6676 427.792 52.031C427.694 52.3907 427.675 52.7541 427.749 52.9758L426.4 53.3135C426.296 52.859 426.186 52.4165 426.05 51.9979C425.842 51.3539 425.57 50.7623 425.186 50.2876C424.804 49.8101 424.313 49.4467 423.791 49.3059C423.401 49.2011 423.171 48.7999 423.276 48.4099C423.327 48.2194 423.449 48.0667 423.607 47.9729L423.64 47.9535L423.818 47.8477L423.908 47.7953L423.992 47.7346L424.163 47.6141L424.325 47.4779L424.406 47.4098L424.483 47.3353L424.636 47.1853L424.78 47.0234L424.852 46.9425C424.875 46.9149 424.898 46.8845 424.92 46.856C425.283 46.3978 425.584 45.8697 425.82 45.303C425.972 44.947 426.151 44.5891 426.304 44.2229C426.382 44.05 426.468 43.9101 426.577 43.8034C426.681 43.6949 426.799 43.6167 426.927 43.5624C427.113 43.4833 427.281 43.5127 427.397 43.6415C427.513 43.7694 427.58 43.9985 427.545 44.2975C427.503 44.6756 427.383 45.0767 427.224 45.4383C427.151 45.6186 427.062 45.7952 426.981 45.9728L426.848 46.235L426.781 46.3656L426.708 46.4944C426.522 46.8403 426.303 47.1734 426.069 47.4954C425.833 47.8183 425.561 48.1201 425.268 48.4053C424.969 48.6859 424.636 48.9361 424.277 49.1569L424.147 47.9913C424.431 48.0557 424.707 48.155 424.967 48.2811C425.479 48.5258 425.961 48.8864 426.262 49.328C426.466 49.6206 426.641 49.9297 426.794 50.2379C426.946 50.5461 427.073 50.8598 427.187 51.1726C427.409 51.8001 427.566 52.4275 427.686 53.0421L427.689 53.0577C427.755 53.3944 427.536 53.7219 427.199 53.7882C426.878 53.8517 426.566 53.6539 426.479 53.3438C426.39 53.0209 426.387 52.7127 426.42 52.4293C426.46 52.0972 426.543 51.7918 426.644 51.502C426.746 51.2122 426.869 50.9371 427.01 50.6712C427.151 50.4063 427.309 50.1514 427.493 49.9067C427.678 49.6629 427.886 49.4274 428.141 49.2213C428.409 48.9996 428.718 48.8266 429.011 48.7006C429.306 48.5718 429.585 48.4761 429.857 48.3777L429.868 49.3335C429.169 49.0631 428.511 48.6159 428.022 48.0281C427.963 47.9535 427.908 47.8763 427.851 47.7999L427.767 47.6849C427.741 47.6453 427.718 47.6049 427.693 47.5644L427.549 47.3224L427.427 47.0713L427.366 46.9461L427.315 46.8173L427.215 46.5607L427.133 46.3003C427.106 46.2138 427.079 46.1273 427.06 46.039C427.035 45.9397 427.012 45.8403 426.991 45.7419C426.976 45.6434 426.961 45.545 426.949 45.4475C426.935 45.3499 426.929 45.2533 426.926 45.1577C426.922 45.062 426.92 44.9672 426.922 44.8734C426.934 44.498 426.991 44.1411 427.108 43.808C427.214 43.5017 427.52 43.5099 427.612 43.8402C427.743 44.3085 427.86 44.7869 427.991 45.2395C428.095 45.6121 428.18 45.9884 428.325 46.3279C428.331 46.3261 428.337 46.3251 428.345 46.3233H428.348Z" fill="black"/>
<path d="M449.758 23.5477C449.841 23.8347 449.954 24.1098 450.085 24.3739C450.12 24.4383 450.15 24.5073 450.189 24.5689L450.302 24.7584C450.385 24.878 450.466 25.0022 450.56 25.1126C450.695 25.2856 450.853 25.4383 451.018 25.5791L451.026 25.5855C451.274 25.7962 451.305 26.1679 451.095 26.4172C451.061 26.4567 451.021 26.4926 450.981 26.5211C450.908 26.5717 450.835 26.6233 450.764 26.6757C450.304 27.0584 449.924 27.5644 449.66 28.1247C449.527 28.4035 449.419 28.6951 449.348 28.9849C449.332 29.0567 449.311 29.1293 449.302 29.2002C449.29 29.271 449.276 29.3428 449.271 29.4099L449.261 29.5111V29.605L449.258 29.6519C449.258 29.6666 449.261 29.6795 449.262 29.6924C449.265 29.7191 449.267 29.7457 449.267 29.7724L449.269 29.8046C449.286 30.1846 448.991 30.5075 448.612 30.5241C448.305 30.5379 448.036 30.3474 447.934 30.0751C447.837 29.8111 447.754 29.5479 447.684 29.3014C447.613 29.0557 447.55 28.8156 447.479 28.6022C447.462 28.5479 447.445 28.4964 447.427 28.4467C447.408 28.397 447.392 28.3455 447.372 28.2977C447.332 28.2057 447.295 28.1091 447.249 28.029C447.209 27.9407 447.156 27.8699 447.11 27.7917C447.084 27.7558 447.056 27.7236 447.03 27.6886L446.99 27.6371L446.944 27.592C446.711 27.3464 446.392 27.1605 445.998 27.0345C445.614 26.9121 445.403 26.5018 445.525 26.1182C445.581 25.9415 445.699 25.8017 445.846 25.7134L445.882 25.6922L446.062 25.5846C446.093 25.5671 446.123 25.5496 446.152 25.5312L446.236 25.4696C446.291 25.4282 446.35 25.3905 446.404 25.3472L446.561 25.2111C446.76 25.0206 446.951 24.8173 447.101 24.5763C447.255 24.3398 447.391 24.0859 447.494 23.809C447.553 23.6747 447.59 23.5293 447.639 23.3885L447.696 23.1696L447.725 23.0601L447.747 22.9479C447.817 22.6397 447.902 22.3204 447.983 22.0003C448 21.923 448.025 21.8531 448.055 21.7887C448.087 21.7187 448.119 21.693 448.168 21.5531C448.218 21.4437 448.282 21.3581 448.346 21.3075C448.408 21.256 448.468 21.2357 448.516 21.2357C448.655 21.2403 448.688 21.4308 448.825 21.5853C448.889 21.6626 448.989 21.7233 449.077 21.7261C449.12 21.7289 449.155 21.7197 449.176 21.7114L449.18 21.7095C449.18 21.7095 449.183 21.7095 449.183 21.7141L449.188 21.7353C449.191 21.7491 449.195 21.7638 449.198 21.7785C449.203 21.808 449.208 21.8383 449.211 21.8705C449.22 21.9506 449.225 22.0334 449.228 22.1162C449.228 22.1999 449.223 22.2845 449.217 22.3692C449.208 22.5385 449.175 22.7087 449.141 22.8733C449.053 23.2505 448.957 23.6268 448.82 23.9967C448.686 24.3656 448.531 24.7317 448.326 25.0786C447.932 25.7769 447.358 26.4071 446.665 26.8625C446.625 26.8891 446.587 26.9167 446.546 26.9434L446.438 25.6876C446.638 25.7483 446.844 25.7943 447.044 25.8928C447.144 25.9379 447.243 25.9829 447.335 26.0483C447.382 26.0786 447.427 26.1099 447.473 26.143C447.518 26.1743 447.561 26.2083 447.6 26.2488C447.873 26.4917 448.103 26.7861 448.286 27.0869C448.471 27.3905 448.597 27.7061 448.696 28.0051C448.796 28.3041 448.874 28.5957 448.945 28.8671C449.016 29.1385 449.086 29.3952 449.161 29.6363L447.97 29.9058C447.968 29.7862 447.96 29.6583 447.974 29.5507C447.995 29.2637 448.053 29.0079 448.122 28.7567L448.175 28.5709L448.238 28.3897C448.278 28.2673 448.328 28.1523 448.375 28.0345C448.571 27.5681 448.827 27.1311 449.141 26.7346C449.489 26.3013 449.905 25.9112 450.391 25.6122L450.358 26.4439C449.87 26.04 449.465 25.5524 449.168 25.0188L449.057 24.8182L448.957 24.6131L448.908 24.5109L448.865 24.4061L448.778 24.1963C448.674 23.9139 448.58 23.6287 448.513 23.3379C448.349 22.67 448.385 21.9993 448.647 21.451C448.682 21.3774 448.734 21.3268 448.79 21.3029C448.8 21.2983 448.805 21.2873 448.8 21.2771C448.8 21.2753 448.798 21.2735 448.796 21.2716L448.712 21.1787C448.677 21.1401 448.613 21.1198 448.575 21.1125C448.534 21.1042 448.51 21.0977 448.501 21.0821C448.493 21.0674 448.497 21.0416 448.543 21.0113C448.566 20.9965 448.602 20.9809 448.65 20.9754C448.697 20.9689 448.754 20.9754 448.805 20.991L449 21.3029C449.066 21.3342 449.122 21.3986 449.149 21.4943C449.256 21.8761 449.359 22.2615 449.471 22.6341C449.562 22.9396 449.628 23.257 449.737 23.556C449.743 23.5541 449.75 23.5532 449.757 23.5514L449.758 23.5477Z" fill="black"/>
<path d="M447.852 51.4164C447.869 51.4918 447.887 51.57 447.906 51.6418C447.915 51.6795 447.925 51.7136 447.934 51.7448C447.944 51.777 447.953 51.8102 447.965 51.8414C448.008 51.9693 448.062 52.0963 448.128 52.2131C448.258 52.4486 448.429 52.6566 448.628 52.8065C448.738 52.8884 448.857 52.9537 448.983 52.9951L449.024 53.0089C449.324 53.1083 449.488 53.433 449.388 53.7339C449.341 53.8756 449.243 53.9878 449.122 54.055C448.993 54.1267 448.872 54.2086 448.762 54.3043C448.535 54.5039 448.346 54.7468 448.167 55.0292C448.078 55.17 447.99 55.3209 447.902 55.4782L447.767 55.7192C447.726 55.7947 447.691 55.8591 447.657 55.9318C447.521 56.2142 447.423 56.5086 447.381 56.7975C447.338 57.0864 447.349 57.3651 447.415 57.6181L446.066 57.9107C445.96 57.4341 445.847 56.9732 445.7 56.5417C445.524 56.0238 445.3 55.55 444.999 55.1544C444.698 54.7569 444.326 54.4386 443.917 54.2629C443.546 54.1028 443.374 53.6722 443.534 53.3015C443.605 53.1368 443.729 53.0117 443.878 52.9372L443.913 52.9197L444.08 52.836L444.163 52.7955L444.242 52.7467L444.401 52.6492L444.55 52.537L444.625 52.4818L444.695 52.4183L444.835 52.2932L444.964 52.1542C444.985 52.1312 445.008 52.1092 445.028 52.0852L445.087 52.0098C445.127 51.9592 445.167 51.9104 445.206 51.8589L445.314 51.6979C445.352 51.6455 445.384 51.5884 445.416 51.5314C445.449 51.4744 445.483 51.4182 445.513 51.3603C445.568 51.2398 445.633 51.1248 445.679 50.9978C445.703 50.9352 445.729 50.8745 445.753 50.811L445.817 50.6188C445.91 50.3124 446.035 50.0042 446.125 49.684C446.171 49.5332 446.232 49.4025 446.321 49.3059C446.356 49.3243 446.426 49.3666 446.516 49.3593C446.606 49.3538 446.689 49.2903 446.73 49.2102C446.848 48.9683 446.748 48.7696 446.884 48.7456C446.918 48.742 446.972 48.753 447.045 48.8054C447.116 48.856 447.202 48.9582 447.252 49.086C447.277 49.1495 447.295 49.2158 447.307 49.2802C447.312 49.3096 447.316 49.339 447.321 49.3694C447.324 49.3832 447.328 49.397 447.332 49.4117C447.346 49.4697 447.355 49.5322 447.359 49.6003C447.375 49.7724 447.357 49.9518 447.336 50.1312C447.323 50.2204 447.303 50.3096 447.284 50.398C447.274 50.4421 447.264 50.4863 447.253 50.5295C447.24 50.5728 447.226 50.616 447.213 50.6583C446.993 51.3713 446.672 52.0576 446.222 52.675C445.997 52.9832 445.732 53.2656 445.441 53.5241C445.146 53.7799 444.816 53.9942 444.466 54.181L444.462 52.997C444.613 53.0558 444.764 53.1184 444.907 53.1948C445.35 53.4211 445.773 53.7403 446.031 54.1322C446.782 55.2694 447.143 56.4948 447.347 57.6558L447.354 57.6908C447.413 58.0257 447.189 58.3458 446.853 58.4047C446.522 58.4627 446.207 58.2446 446.141 57.9171C446.113 57.7736 446.093 57.6301 446.086 57.4875C446.057 56.9014 446.175 56.3412 446.376 55.837C446.476 55.5849 446.599 55.3411 446.738 55.1157C446.861 54.917 446.987 54.7091 447.129 54.5002C447.307 54.2399 447.51 53.9749 447.753 53.7357C447.993 53.4947 448.275 53.2886 448.568 53.123L448.689 54.0402C448.354 53.9354 448.05 53.7606 447.799 53.5425C447.546 53.3254 447.342 53.0696 447.179 52.7982C447.096 52.6621 447.027 52.5204 446.964 52.376C446.904 52.2324 446.85 52.0779 446.811 51.938C446.729 51.6538 446.669 51.3759 446.617 51.0962C446.553 50.7531 446.526 50.4154 446.547 50.087C446.568 49.7595 446.635 49.4393 446.772 49.156C446.804 49.0943 446.845 49.0492 446.891 49.0235L446.889 49.0382C446.898 49.0492 446.898 49.0759 446.885 49.0998C446.871 49.1247 446.847 49.1431 446.829 49.155C446.793 49.179 446.773 49.1928 446.771 49.2158C446.771 49.236 446.78 49.2719 446.857 49.2866C446.895 49.293 446.958 49.2866 447.022 49.2452C447.085 49.2056 447.129 49.1366 447.148 49.086L447.153 49.0345C447.208 49.0695 447.25 49.1265 447.272 49.2102C447.377 49.5976 447.487 50.0033 447.597 50.4072C447.687 50.7411 447.737 51.0944 447.829 51.4201C447.836 51.4201 447.842 51.4182 447.85 51.4173L447.852 51.4164Z" fill="black"/>
<path d="M395.5 163.5C395.5 166.859 394.519 169.879 392.958 172.047C391.397 174.215 389.284 175.5 387 175.5C384.716 175.5 382.603 174.215 381.042 172.047C379.481 169.879 378.5 166.859 378.5 163.5C378.5 160.141 379.481 157.121 381.042 154.953C382.603 152.785 384.716 151.5 387 151.5C389.284 151.5 391.397 152.785 392.958 154.953C394.519 157.121 395.5 160.141 395.5 163.5Z" fill="white" stroke="black"/>
<ellipse cx="387.5" cy="162" rx="6.5" ry="9" fill="black"/>
<path d="M389.382 159.891L393.067 157.233L393.921 159.68L389.382 159.891Z" fill="white"/>
<path d="M376.472 164.191C376.199 167.538 374.976 170.469 373.244 172.503C371.511 174.537 369.301 175.646 367.025 175.46C364.748 175.275 362.747 173.822 361.367 171.534C359.987 169.247 359.255 166.157 359.528 162.809C359.801 159.462 361.024 156.531 362.756 154.497C364.489 152.463 366.699 151.354 368.975 151.54C371.251 151.725 373.253 153.177 374.633 155.466C376.013 157.753 376.745 160.843 376.472 164.191Z" fill="white" stroke="black"/>
<ellipse cx="368.62" cy="162.046" rx="6.5" ry="9" transform="rotate(4.66202 368.62 162.046)" fill="black"/>
<path d="M370.667 160.096L374.556 157.747L375.208 160.255L370.667 160.096Z" fill="white"/>
<path d="M455.377 141.855C454.841 142.301 454.305 142.746 453.769 143.193C453.483 143.427 453.198 143.666 452.893 143.874C451.263 144.98 449.616 146.061 448.019 147.215C446.053 148.635 444.126 150.111 442.212 151.6C441.922 151.824 441.674 152.107 441.432 152.385C441.201 152.652 441.17 152.977 441.253 153.309C441.372 153.791 441.831 154.049 442.288 153.84C442.577 153.708 442.844 153.5 443.079 153.284C444.168 152.284 445.35 151.41 446.617 150.653C446.967 150.443 447.347 150.249 447.626 149.961C448.512 149.043 449.606 148.39 450.574 147.577C451.292 146.972 452.067 146.434 452.807 145.853C454.126 144.818 455.442 143.778 456.772 142.754C457.301 142.345 457.734 141.864 457.978 141.235C458.089 140.944 457.834 140.611 457.535 140.707C457.111 140.842 456.697 141.029 456.305 141.243C455.983 141.419 455.696 141.663 455.395 141.878C455.389 141.871 455.383 141.864 455.376 141.857L455.377 141.855Z" fill="black"/>
<path d="M439.374 129.472C439.153 130.023 438.935 130.576 438.702 131.124C438.58 131.414 438.458 131.708 438.303 131.981C437.889 132.71 437.459 133.432 437.029 134.152C436.598 134.873 436.166 135.591 435.746 136.317C434.706 138.099 433.684 139.893 432.623 141.664C432.464 141.931 432.361 142.237 432.261 142.537C432.167 142.824 432.269 143.112 432.474 143.377C432.77 143.763 433.275 143.869 433.592 143.568C433.794 143.378 433.947 143.13 434.066 142.879C434.618 141.727 435.282 140.65 436.056 139.632C436.271 139.352 436.516 139.072 436.629 138.744C436.996 137.701 437.642 136.808 438.094 135.813C438.43 135.075 438.837 134.37 439.185 133.636C439.809 132.329 440.4 131.009 440.989 129.689C441.223 129.162 441.334 128.61 441.209 128.014C441.15 127.738 440.767 127.569 440.57 127.757C440.289 128.024 440.047 128.327 439.832 128.641C439.654 128.9 439.543 129.2 439.402 129.482C439.394 129.478 439.385 129.475 439.376 129.471L439.374 129.472Z" fill="black"/>
<path d="M420.593 128.302C420.694 128.808 420.802 129.314 420.895 129.82C420.945 130.089 420.996 130.36 421.01 130.632C421.083 132.086 421.099 133.542 421.175 134.994C421.264 136.783 421.386 138.568 421.477 140.356C421.491 140.626 421.574 140.895 421.656 141.158C421.737 141.41 421.982 141.566 422.297 141.657C422.758 141.788 423.237 141.617 423.335 141.248C423.398 141.014 423.388 140.761 423.348 140.523C423.173 139.429 423.139 138.334 423.232 137.228C423.259 136.923 423.313 136.604 423.23 136.313C422.97 135.387 423.031 134.433 422.88 133.498C422.766 132.805 422.731 132.1 422.636 131.404C422.467 130.162 422.27 128.925 422.076 127.688C421.998 127.194 421.805 126.742 421.387 126.369C421.193 126.198 420.778 126.257 420.709 126.488C420.609 126.815 420.561 127.15 420.544 127.483C420.528 127.755 420.591 128.026 420.619 128.298C420.61 128.299 420.601 128.301 420.591 128.302L420.593 128.302Z" fill="black"/>
<path d="M409.393 139.119C409.581 139.328 409.772 139.535 409.956 139.746C410.052 139.859 410.152 139.971 410.219 140.101C410.576 140.799 410.898 141.518 411.28 142.199C411.751 143.038 412.266 143.851 412.777 144.668C412.853 144.791 412.99 144.879 413.126 144.964C413.257 145.046 413.506 144.997 413.801 144.881C414.231 144.712 414.602 144.39 414.598 144.164C414.596 144.02 414.526 143.906 414.436 143.811C414.023 143.376 413.738 142.865 413.569 142.282C413.522 142.121 413.498 141.939 413.361 141.838C412.929 141.514 412.775 141.015 412.445 140.629C412.199 140.341 412.022 140.009 411.798 139.707C411.399 139.17 410.983 138.641 410.58 138.105C410.418 137.892 410.165 137.753 409.729 137.758C409.527 137.761 409.174 137.986 409.155 138.137C409.13 138.35 409.149 138.546 409.195 138.723C409.233 138.87 409.341 138.979 409.418 139.103C409.41 139.109 409.403 139.113 409.394 139.12L409.393 139.119Z" fill="black"/>
<path d="M453.957 162.835L452.954 162.862C452.778 162.865 452.601 162.874 452.428 162.846C451.968 162.769 451.506 162.697 451.042 162.632C450.577 162.568 450.112 162.52 449.643 162.496C449.068 162.472 448.49 162.467 447.913 162.487C447.335 162.508 446.76 162.545 446.185 162.599C446.012 162.614 445.843 162.7 445.68 162.79C445.523 162.875 445.444 163.124 445.412 163.44C445.369 163.901 445.516 164.374 445.747 164.465C445.893 164.525 446.045 164.506 446.187 164.469C446.839 164.283 447.511 164.271 448.179 164.413C448.362 164.451 448.554 164.522 448.73 164.458C449.297 164.251 449.871 164.39 450.442 164.334C450.655 164.313 450.869 164.313 451.082 164.321C451.295 164.327 451.508 164.34 451.722 164.341C452.484 164.343 453.25 164.353 454.016 164.403C454.322 164.42 454.627 164.329 454.948 164.003C455.097 163.852 455.164 163.439 455.041 163.323C454.867 163.158 454.673 163.036 454.473 162.952C454.309 162.883 454.127 162.89 453.953 162.865C453.955 162.855 453.955 162.846 453.956 162.836L453.957 162.835Z" fill="black"/>
<ellipse cx="379" cy="153" rx="20" ry="6" fill="#D9D9D9"/>
<path d="M354 150C360.169 160.919 393.392 163.034 402 150" stroke="black"/>
</g>
<defs>
<filter id="filter0_d_1321_185" x="89.9271" y="61.6769" width="310.396" height="74.7471" filterUnits="userSpaceOnUse" color-interpolation-filters="sRGB">
<feFlood flood-opacity="0" result="BackgroundImageFix"/>
<feColorMatrix in="SourceAlpha" type="matrix" values="0 0 0 0 0 0 0 0 0 0 0 0 0 0 0 0 0 0 127 0" result="hardAlpha"/>
<feMorphology radius="5.94668" operator="erode" in="SourceAlpha" result="effect1_dropShadow_1321_185"/>
<feOffset/>
<feGaussianBlur stdDeviation="4.63491"/>
<feComposite in2="hardAlpha" operator="out"/>
<feColorMatrix type="matrix" values="0 0 0 0 0 0 0 0 0 0 0 0 0 0 0 0 0 0 0.25 0"/>
<feBlend mode="normal" in2="BackgroundImageFix" result="effect1_dropShadow_1321_185"/>
<feBlend mode="normal" in="SourceGraphic" in2="effect1_dropShadow_1321_185" result="shape"/>
</filter>
<filter id="filter1_d_1321_185" x="86.6769" y="61.6769" width="310.396" height="74.7471" filterUnits="userSpaceOnUse" color-interpolation-filters="sRGB">
<feFlood flood-opacity="0" result="BackgroundImageFix"/>
<feColorMatrix in="SourceAlpha" type="matrix" values="0 0 0 0 0 0 0 0 0 0 0 0 0 0 0 0 0 0 127 0" result="hardAlpha"/>
<feMorphology radius="5.94668" operator="erode" in="SourceAlpha" result="effect1_dropShadow_1321_185"/>
<feOffset/>
<feGaussianBlur stdDeviation="4.63491"/>
<feComposite in2="hardAlpha" operator="out"/>
<feColorMatrix type="matrix" values="0 0 0 0 0 0 0 0 0 0 0 0 0 0 0 0 0 0 0.25 0"/>
<feBlend mode="normal" in2="BackgroundImageFix" result="effect1_dropShadow_1321_185"/>
<feBlend mode="normal" in="SourceGraphic" in2="effect1_dropShadow_1321_185" result="shape"/>
</filter>
<clipPath id="clip0_1321_185">
<path d="M0 15C0 6.71573 6.71573 0 15 0H473C481.284 0 488 6.71573 488 15V193H0V15Z" fill="white"/>
</clipPath>
<clipPath id="clip1_1321_185">
<rect width="49" height="49" fill="white" transform="translate(29.4951 83.8972) rotate(13.6913)"/>
</clipPath>
</defs>
</svg>
