<svg width="12" height="12" viewBox="0 0 12 12" fill="none" xmlns="http://www.w3.org/2000/svg">
<g clip-path="url(#clip0_916_200)">
<path d="M6.18481 3.68884L8.60474 6.10877" stroke="black" stroke-width="0.691408" stroke-linecap="round" stroke-linejoin="round"/>
<path d="M4.43444 10.2352L2.05859 7.85938" stroke="black" stroke-width="0.691408" stroke-linecap="round" stroke-linejoin="round"/>
<path d="M2.38208 2.65173L9.29616 10.2572" stroke="black" stroke-width="0.691408" stroke-linecap="round" stroke-linejoin="round"/>
<path d="M6.99161 7.72195L4.55742 10.1561C4.49264 10.2208 4.40483 10.2572 4.31327 10.2573H2.38208C2.29039 10.2573 2.20246 10.2208 2.13763 10.156C2.0728 10.0912 2.03638 10.0032 2.03638 9.91155V7.98036C2.03642 7.8888 2.07279 7.80099 2.1375 7.73621L4.68706 5.18665" stroke="black" stroke-width="0.691408" stroke-linecap="round" stroke-linejoin="round"/>
<path d="M5.66626 4.2074L7.46694 2.40672C7.53177 2.34193 7.61967 2.30554 7.71131 2.30554C7.80296 2.30554 7.89086 2.34193 7.95568 2.40672L9.88644 4.33704C9.95122 4.40187 9.98761 4.48976 9.98761 4.58141C9.98761 4.67306 9.95122 4.76095 9.88644 4.82578L7.97038 6.74184" stroke="black" stroke-width="0.691408" stroke-linecap="round" stroke-linejoin="round"/>
<path d="M5.83912 6.45447L3.24634 9.04725" stroke="black" stroke-width="0.691408" stroke-linecap="round" stroke-linejoin="round"/>
<path d="M7.39476 4.8988L6.81787 5.4757" stroke="black" stroke-width="0.691408" stroke-linecap="round" stroke-linejoin="round"/>
</g>
<defs>
<clipPath id="clip0_916_200">
<rect width="11.0625" height="11.0625" fill="white" transform="translate(0.307861 0.923218)"/>
</clipPath>
</defs>
</svg>
