<svg width="57" height="57" viewBox="0 0 57 57" fill="none" xmlns="http://www.w3.org/2000/svg">
<circle cx="28.5" cy="28.5" r="28" fill="white" stroke="black"/>
<path d="M28.4577 25.8594C28.4577 31.4478 24.4094 35.8942 19.5137 35.8942C14.6179 35.8942 10.5696 31.4478 10.5696 25.8594C10.5696 20.2709 14.6179 15.8246 19.5137 15.8246C24.4094 15.8246 28.4577 20.2709 28.4577 25.8594Z" fill="white" stroke="black" stroke-width="0.872592"/>
<path d="M48.9638 26.2957C48.9638 31.8841 44.9155 36.3305 40.0198 36.3305C35.124 36.3305 31.0757 31.8841 31.0757 26.2957C31.0757 20.7072 35.124 16.2608 40.0198 16.2608C44.9155 16.2608 48.9638 20.7072 48.9638 26.2957Z" fill="white" stroke="black" stroke-width="0.872592"/>
<ellipse cx="21.2592" cy="26.0775" rx="7.19888" ry="8.50777" fill="black"/>
<ellipse cx="41.7648" cy="26.5138" rx="7.19888" ry="8.50777" fill="black"/>
<circle cx="30.203" cy="36.3305" r="3.92666" stroke="black" stroke-width="0.872592"/>
<ellipse cx="27.5851" cy="38.9482" rx="2.61777" ry="2.39963" fill="#F5F5F5"/>
<circle cx="48" cy="46" r="9" fill="#333333"/>
<g clip-path="url(#clip0_1373_9)">
<path d="M46.634 48.6317V49.0536C46.634 49.5011 46.8118 49.9303 47.1283 50.2468C47.4448 50.5633 47.874 50.7411 48.3215 50.7411C48.7691 50.7411 49.1983 50.5633 49.5148 50.2468C49.8312 49.9303 50.009 49.5011 50.009 49.0536V48.6317" stroke="white" stroke-width="1.26562" stroke-linecap="round" stroke-linejoin="round"/>
<path d="M44.5246 44.4129C44.5246 43.406 44.9246 42.4402 45.6366 41.7282C46.3487 41.0161 47.3144 40.6161 48.3214 40.6161C49.3284 40.6161 50.2942 41.0161 51.0062 41.7282C51.7183 42.4402 52.1183 43.406 52.1183 44.4129C52.1183 46.3019 52.556 47.3977 52.9041 47.9989C52.941 48.0629 52.9605 48.1355 52.9606 48.2095C52.9606 48.2834 52.9413 48.356 52.9044 48.4201C52.8676 48.4842 52.8145 48.5375 52.7506 48.5746C52.6867 48.6118 52.6141 48.6314 52.5402 48.6317H44.1027C44.0288 48.6313 43.9564 48.6114 43.8926 48.5742C43.8289 48.537 43.776 48.4837 43.7392 48.4197C43.7025 48.3556 43.6832 48.283 43.6834 48.2092C43.6835 48.1353 43.703 48.0628 43.7399 47.9989C44.0874 47.3977 44.5246 46.3014 44.5246 44.4129Z" stroke="white" stroke-width="1.26562" stroke-linecap="round" stroke-linejoin="round"/>
</g>
<defs>
<clipPath id="clip0_1373_9">
<rect width="13.5" height="13.5" fill="white" transform="translate(41.5715 38.9286)"/>
</clipPath>
</defs>
</svg>
