<svg width="85" height="91" viewBox="0 0 85 91" fill="none" xmlns="http://www.w3.org/2000/svg">
<path d="M20.2588 89.9952C19.9991 90.2921 19.7106 90.4448 19.3935 90.4533C19.0898 90.4736 18.6073 90.1945 17.9458 89.616C17.3384 89.0847 16.6432 88.286 15.8602 87.2199C15.0638 86.1421 14.2242 84.8955 13.3417 83.4802C12.4591 82.065 11.5774 80.567 10.6964 78.9864C9.80204 77.394 8.95233 75.805 8.14734 74.2193C7.34065 72.6084 6.62423 71.1121 5.9981 69.7305C5.77363 69.2245 5.66981 68.812 5.68662 68.4931C5.70344 68.1743 5.82401 67.8866 6.04834 67.6302C6.20183 67.4547 6.38569 67.3534 6.59994 67.3264C6.8125 67.2741 7.03351 67.3482 7.26299 67.549C7.34398 67.6198 7.53045 67.9378 7.82241 68.5029C8.12617 69.0545 8.51263 69.7976 8.9818 70.7321C9.46276 71.6531 10.002 72.6846 10.5994 73.8267C11.1968 74.9687 11.8355 76.1588 12.5156 77.3969C13.1957 78.6351 13.9003 79.8589 14.6293 81.0684C15.3448 82.266 16.0612 83.381 16.7783 84.4134C17.4955 85.4457 18.1831 86.3212 18.8412 87.0397C18.7331 86.3734 18.5583 85.5653 18.3169 84.6155C18.0755 83.6658 17.8105 82.6477 17.5218 81.5613C17.2331 80.4749 16.9571 79.3877 16.6937 78.2996C16.4304 77.2115 16.2218 76.1833 16.0681 75.215C15.9144 74.2466 15.846 73.4124 15.8627 72.7123C15.8778 71.9869 16.0211 71.4689 16.2926 71.1584C16.7413 70.6455 17.2634 70.3755 17.8589 70.3484C18.4527 70.296 19.1073 70.5827 19.8228 71.2084C20.2277 71.5626 20.6428 72.0687 21.0681 72.7265C21.5051 73.3709 21.9455 74.0659 22.3894 74.8115C22.8332 75.5571 23.2677 76.2588 23.693 76.9167C24.13 77.561 24.551 78.0603 24.956 78.4145C25.5094 78.8986 25.9691 78.9314 26.3352 78.513C26.9019 77.865 27.3269 77.0932 27.6101 76.1973C27.9052 75.2879 28.1033 74.3533 28.2043 73.3933C28.2919 72.4216 28.3381 71.4971 28.343 70.6198C28.3344 69.7308 28.3284 68.975 28.3249 68.3525C28.318 67.6793 28.4268 67.2145 28.6511 66.9581C28.9344 66.6341 29.2449 66.6197 29.5823 66.9149C29.6768 66.9975 29.7671 67.1122 29.8531 67.259C29.9392 67.4057 30 67.6495 30.0355 67.9903C30.0895 68.4188 30.1352 69.0067 30.1724 69.7541C30.2215 70.4879 30.2385 71.3129 30.2235 72.2289C30.2203 73.1315 30.1487 74.0577 30.0089 75.0075C29.8808 75.9438 29.6676 76.8414 29.3691 77.7001C29.069 78.5336 28.6592 79.2473 28.1397 79.8412C27.4313 80.6511 26.6528 81.078 25.8042 81.1221C24.9539 81.1408 24.1171 80.79 23.2937 80.0698C22.7808 79.6211 22.2307 78.997 21.6435 78.1975C21.0562 77.3979 20.4639 76.5225 19.8665 75.5711C19.2675 74.5944 18.6887 73.6354 18.1301 72.6942C18.0492 73.3859 18.0814 74.2479 18.2267 75.2804C18.3703 76.2875 18.5712 77.3925 18.8296 78.5953C19.0744 79.7863 19.3327 80.9891 19.6046 82.2037C19.8882 83.4048 20.1296 84.5452 20.3289 85.6249C20.5265 86.6792 20.6321 87.5936 20.6457 88.3679C20.6593 89.1423 20.5304 89.6847 20.2588 89.9952ZM46.9405 56.4265C47.1447 56.6289 47.2434 56.8701 47.2367 57.1501C47.23 57.4302 47.1322 57.6782 46.9433 57.8942C46.7308 58.1371 46.4727 58.2688 46.169 58.2891C45.8653 58.3094 45.5448 58.1719 45.2073 57.8768C44.3299 57.1093 43.4137 56.2365 42.4587 55.2581C41.4902 54.268 40.5528 53.2695 39.6467 52.2625C38.7271 51.2437 37.8885 50.2957 37.1308 49.4186C37.3756 50.419 37.6525 51.5188 37.9614 52.7183C38.2822 53.9042 38.5844 55.0977 38.868 56.2988C39.1517 57.5 39.3864 58.6344 39.5721 59.7023C39.7444 60.7584 39.8432 61.6668 39.8687 62.4277C39.8806 63.1767 39.7685 63.6862 39.5324 63.9562C39.0955 64.4556 38.522 64.7164 37.8118 64.7384C37.088 64.7487 36.4224 64.4881 35.815 63.9568C35.572 63.7443 35.2649 63.428 34.8937 63.008C34.509 62.5762 34.1099 62.12 33.6965 61.6392C33.2831 61.1585 32.8976 60.714 32.5398 60.3058C32.1686 59.8858 31.8818 59.5873 31.6793 59.4102C31.4903 59.2449 31.3106 59.1234 31.1402 59.0459C30.9681 58.943 30.8348 58.9455 30.7404 59.0535C30.5987 59.2155 30.5861 59.5976 30.7026 60.1999C30.8056 60.7903 30.9804 61.5031 31.2268 62.3381C31.4851 63.1596 31.7653 64.0242 32.0674 64.9318C32.3814 65.8258 32.6793 66.6701 32.9612 67.4647C33.2296 68.2474 33.4245 68.8825 33.5461 69.3701C33.6895 69.8053 33.7638 70.1562 33.7689 70.4227C33.7741 70.6893 33.6822 70.9306 33.4932 71.1465C33.2689 71.403 32.9273 71.5212 32.4684 71.501C32.0214 71.4673 31.6021 71.2793 31.2107 70.9369C30.9812 70.7362 30.6589 70.3828 30.2438 69.8768C29.8152 69.3589 29.3571 68.7795 28.8694 68.1385C28.3935 67.484 27.9253 66.8481 27.4646 66.2307C27.0022 65.5881 26.6099 65.0424 26.2876 64.5937C25.9231 64.0843 25.7307 63.6777 25.7104 63.3741C25.6901 63.0704 25.7626 62.8241 25.9279 62.6351C26.1522 62.3786 26.4238 62.2588 26.7427 62.2756C27.0599 62.2671 27.4074 62.4282 27.7854 62.7588C27.8529 62.8178 27.9997 63.0177 28.2258 63.3584C28.4384 63.6874 28.7008 64.0956 29.013 64.5831C29.3235 65.0453 29.6424 65.5387 29.9698 66.0633C30.309 66.5744 30.6321 67.0357 30.9393 67.4473C30.6996 66.7135 30.4312 65.9308 30.1341 65.0991C29.8489 64.254 29.5704 63.4147 29.2986 62.5814C29.0133 61.7362 28.7821 60.9383 28.6048 60.1876C28.414 59.4251 28.3186 58.7579 28.3185 58.186C28.3184 57.6141 28.4482 57.1796 28.708 56.8827C29.0149 56.5317 29.4063 56.3022 29.882 56.1942C30.3696 56.0726 30.8782 56.0767 31.4079 56.2065C31.9377 56.3363 32.4253 56.5961 32.8707 56.9857C33.1812 57.2572 33.5727 57.695 34.0451 58.2988C34.5041 58.8909 35.0044 59.531 35.5461 60.2193C36.0996 60.894 36.6547 61.4987 37.2115 62.0334C37.3465 62.1514 37.4494 62.17 37.5203 62.089C37.5793 62.0215 37.6029 61.8992 37.5911 61.722C37.5015 60.9528 37.3596 60.0663 37.1655 59.0625C36.9578 58.0469 36.7222 56.9951 36.4589 55.907C36.2073 54.8054 35.9633 53.7224 35.727 52.6579C35.4771 51.5817 35.2652 50.5982 35.0913 49.7074C34.9157 48.7914 34.8075 48.0297 34.7669 47.4224C34.7382 46.8016 34.8064 46.3967 34.9717 46.2077C35.3259 45.8028 35.7122 45.5926 36.1306 45.5774C36.549 45.5621 37.0281 45.7906 37.5681 46.2629C38 46.6407 38.5307 47.1645 39.1601 47.8341C39.8012 48.4902 40.4855 49.2198 41.2127 50.0227C41.9518 50.8121 42.6858 51.6209 43.4147 52.4491C44.142 53.252 44.8152 54.0076 45.4345 54.7161C46.0403 55.4127 46.5423 55.9828 46.9405 56.4265ZM64.2357 36.6535C64.4398 36.8559 64.5386 37.0971 64.5319 37.3772C64.5252 37.6572 64.4274 37.9052 64.2384 38.1212C64.0259 38.3642 63.7678 38.4958 63.4642 38.5161C63.1605 38.5364 62.8399 38.399 62.5025 38.1038C61.6251 37.3363 60.7089 36.4635 59.7538 35.4852C58.7853 34.495 57.848 33.4965 56.9419 32.4895C56.0223 31.4707 55.1836 30.5227 54.426 29.6456C54.6708 30.646 54.9477 31.7459 55.2566 32.9453C55.5773 34.1312 55.8795 35.3247 56.1632 36.5258C56.4468 37.727 56.6815 38.8615 56.8673 39.9293C57.0395 40.9854 57.1384 41.8938 57.1638 42.6547C57.1758 43.4037 57.0637 43.9132 56.8275 44.1832C56.3907 44.6826 55.8171 44.9434 55.1069 44.9654C54.3832 44.9757 53.7176 44.7151 53.1102 44.1838C52.8672 43.9713 52.5601 43.655 52.1889 43.235C51.8042 42.8032 51.4051 42.347 50.9917 41.8662C50.5783 41.3855 50.1927 40.941 49.835 40.5328C49.4638 40.1128 49.1769 39.8143 48.9744 39.6372C48.7855 39.4719 48.6058 39.3504 48.4354 39.2729C48.2633 39.17 48.13 39.1725 48.0355 39.2805C47.8939 39.4425 47.8813 39.8246 47.9978 40.4269C48.1008 41.0173 48.2755 41.7301 48.522 42.5651C48.7803 43.3866 49.0605 44.2512 49.3626 45.1588C49.6765 46.0528 49.9745 46.8971 50.2563 47.6917C50.5247 48.4744 50.7197 49.1095 50.8412 49.5971C50.9847 50.0323 51.059 50.3832 51.0641 50.6497C51.0692 50.9163 50.9773 51.1576 50.7884 51.3735C50.5641 51.63 50.2225 51.7482 49.7636 51.728C49.3165 51.6943 48.8973 51.5063 48.5058 51.1639C48.2763 50.9632 47.9541 50.6098 47.539 50.1038C47.1104 49.5859 46.6522 49.0065 46.1646 48.3655C45.6887 47.7111 45.2204 47.0751 44.7598 46.4578C44.2974 45.8151 43.9051 45.2694 43.5828 44.8207C43.2183 44.3113 43.0259 43.9047 43.0056 43.6011C42.9853 43.2974 43.0578 43.0511 43.2231 42.8621C43.4474 42.6056 43.719 42.4858 44.0378 42.5026C44.355 42.4941 44.7026 42.6552 45.0805 42.9858C45.148 43.0448 45.2948 43.2447 45.5209 43.5854C45.7336 43.9144 45.996 44.3226 46.3082 44.8101C46.6187 45.2723 46.9376 45.7657 47.265 46.2903C47.6042 46.8014 47.9273 47.2627 48.2344 47.6743C47.9947 46.9405 47.7264 46.1578 47.4293 45.3261C47.144 44.481 46.8655 43.6417 46.5938 42.8084C46.3085 41.9632 46.0772 41.1653 45.9 40.4146C45.7092 39.6521 45.6138 38.9849 45.6137 38.413C45.6135 37.8411 45.7434 37.4066 46.0031 37.1097C46.3101 36.7587 46.7015 36.5292 47.1772 36.4212C47.6647 36.2996 48.1733 36.3037 48.7031 36.4335C49.2329 36.5633 49.7205 36.8231 50.1659 37.2127C50.4764 37.4842 50.8678 37.922 51.3403 38.5258C51.7993 39.1179 52.2996 39.758 52.8413 40.4463C53.3947 41.121 53.9499 41.7257 54.5067 42.2604C54.6417 42.3784 54.7446 42.397 54.8154 42.316C54.8745 42.2485 54.8981 42.1262 54.8862 41.949C54.7967 41.1798 54.6548 40.2933 54.4606 39.2895C54.2529 38.274 54.0174 37.2221 53.754 36.134C53.5025 35.0325 53.2585 33.9494 53.0221 32.8849C52.7722 31.8087 52.5603 30.8252 52.3864 29.9344C52.2108 29.0184 52.1027 28.2567 52.0621 27.6494C52.0333 27.0286 52.1016 26.6237 52.2669 26.4347C52.6211 26.0298 53.0074 25.8197 53.4257 25.8044C53.8441 25.7891 54.3233 26.0176 54.8632 26.4899C55.2952 26.8677 55.8258 27.3915 56.4552 28.0611C57.0964 28.7172 57.7806 29.4468 58.5079 30.2497C59.2469 31.0391 59.9809 31.8479 60.7099 32.6761C61.4371 33.479 62.1104 34.2346 62.7297 34.9431C63.3354 35.6397 63.8374 36.2098 64.2357 36.6535ZM81.5308 16.8805C81.735 17.0829 81.8337 17.3241 81.827 17.6042C81.8203 17.8842 81.7225 18.1322 81.5336 18.3482C81.3211 18.5912 81.063 18.7228 80.7593 18.7431C80.4557 18.7634 80.1351 18.626 79.7976 18.3308C78.9202 17.5633 78.004 16.6905 77.049 15.7122C76.0805 14.722 75.1431 13.7235 74.237 12.7165C73.3174 11.6977 72.4788 10.7497 71.7211 9.8726C71.9659 10.873 72.2428 11.9729 72.5518 13.1723C72.8725 14.3582 73.1747 15.5517 73.4583 16.7529C73.742 17.954 73.9767 19.0885 74.1624 20.1563C74.3347 21.2124 74.4335 22.1208 74.459 22.8817C74.4709 23.6307 74.3588 24.1402 74.1227 24.4102C73.6858 24.9096 73.1123 25.1704 72.4021 25.1924C71.6783 25.2027 71.0127 24.9421 70.4053 24.4108C70.1623 24.1983 69.8553 23.8821 69.484 23.462C69.0993 23.0302 68.7002 22.574 68.2868 22.0932C67.8734 21.6125 67.4879 21.168 67.1301 20.7598C66.7589 20.3398 66.4721 20.0413 66.2696 19.8642C66.0806 19.6989 65.9009 19.5774 65.7305 19.4999C65.5584 19.397 65.4251 19.3996 65.3307 19.5075C65.189 19.6695 65.1764 20.0516 65.2929 20.6539C65.396 21.2443 65.5707 21.9571 65.8171 22.7921C66.0754 23.6136 66.3556 24.4782 66.6577 25.3858C66.9717 26.2798 67.2696 27.1241 67.5515 27.9187C67.8199 28.7014 68.0148 29.3366 68.1364 29.8241C68.2799 30.2593 68.3541 30.6102 68.3593 30.8768C68.3644 31.1433 68.2725 31.3846 68.0836 31.6005C67.8592 31.857 67.5176 31.9752 67.0587 31.955C66.6117 31.9213 66.1924 31.7333 65.801 31.3909C65.5715 31.1902 65.2492 30.8368 64.8341 30.3308C64.4055 29.8129 63.9474 29.2335 63.4597 28.5925C62.9838 27.9381 62.5156 27.3021 62.0549 26.6848C61.5925 26.0421 61.2002 25.4964 60.8779 25.0477C60.5134 24.5383 60.321 24.1317 60.3007 23.8281C60.2804 23.5244 60.3529 23.2781 60.5182 23.0891C60.7426 22.8327 61.0141 22.7128 61.333 22.7296C61.6502 22.7211 61.9977 22.8822 62.3757 23.2128C62.4432 23.2718 62.59 23.4717 62.8161 23.8125C63.0287 24.1414 63.2911 24.5496 63.6033 25.0371C63.9138 25.4993 64.2327 25.9927 64.5601 26.5173C64.8993 27.0284 65.2225 27.4898 65.5296 27.9013C65.2899 27.1675 65.0215 26.3848 64.7244 25.5531C64.4392 24.708 64.1607 23.8687 63.8889 23.0354C63.6037 22.1902 63.3724 21.3923 63.1951 20.6416C63.0043 19.8791 62.9089 19.2119 62.9088 18.64C62.9087 18.0681 63.0385 17.6337 63.2983 17.3367C63.6053 16.9857 63.9966 16.7562 64.4723 16.6482C64.9599 16.5266 65.4685 16.5307 65.9983 16.6606C66.528 16.7904 67.0156 17.0501 67.461 17.4397C67.7715 17.7113 68.163 18.149 68.6355 18.7528C69.0944 19.3449 69.5948 19.9851 70.1364 20.6733C70.6899 21.348 71.245 21.9527 71.8018 22.4874C71.9368 22.6054 72.0397 22.624 72.1106 22.543C72.1696 22.4755 72.1932 22.3532 72.1814 22.176C72.0918 21.4068 71.9499 20.5203 71.7558 19.5165C71.5481 18.501 71.3125 17.4491 71.0492 16.361C70.7976 15.2595 70.5536 14.1764 70.3173 13.112C70.0674 12.0357 69.8555 11.0522 69.6816 10.1614C69.506 9.24542 69.3979 8.48374 69.3573 7.87642C69.3285 7.25559 69.3967 6.85069 69.562 6.66172C69.9162 6.25677 70.3025 6.04666 70.7209 6.0314C71.1393 6.01615 71.6184 6.24465 72.1584 6.71693C72.5903 7.09475 73.121 7.61847 73.7504 8.28811C74.3916 8.94426 75.0758 9.67378 75.803 10.4767C76.5421 11.2661 77.2761 12.0749 78.005 12.9031C78.7323 13.706 79.4056 14.4616 80.0248 15.1701C80.6306 15.8667 81.1326 16.4369 81.5308 16.8805Z" fill="#696969"/>
</svg>
