<svg width="590" height="548" viewBox="0 0 590 548" fill="none" xmlns="http://www.w3.org/2000/svg">
<path fill-rule="evenodd" clip-rule="evenodd" d="M357.005 52.3695C283.667 35.1678 203.064 22.1916 139.894 63.225C75.8702 104.812 47.9075 183.208 38.873 259.017C30.4827 329.419 42.9437 406.155 93.0459 456.321C138.028 501.36 209.587 487.425 272.96 493.404C326.714 498.475 384.415 518.902 428.678 487.984C472.668 457.257 470.066 395.409 486.419 344.302C506.966 280.089 562.265 217.522 534.942 155.886C506.033 90.672 426.454 68.6591 357.005 52.3695Z" fill="#C4C4C4"/>
<path d="M361.226 387.27C361.357 381.707 361.606 376.151 362.119 370.648C362.666 365.145 363.405 359.676 364.497 354.308C365.632 348.954 367.084 343.691 369.033 338.668C369.562 337.433 370.02 336.178 370.603 334.946L372.442 331.273C373.576 328.771 375.1 326.493 376.502 324.133C377.207 322.858 378.113 321.721 378.965 320.537L380.254 318.772C380.692 318.191 381.087 317.573 381.587 317.043L384.46 313.741L385.176 312.913L385.971 312.152L387.556 310.626L389.141 309.1C389.666 308.591 390.271 308.161 390.838 307.689L392.554 306.305C393.141 305.859 393.671 305.345 394.302 304.957L397.979 302.479C399.235 301.698 400.566 301.013 401.847 300.276C408.823 296.493 416.604 294.059 424.608 292.648C428.617 291.974 432.69 291.512 436.804 291.386C437.305 291.37 437.847 291.325 438.326 291.332L439.769 291.347L441.212 291.362L442.654 291.481C443.616 291.561 444.576 291.618 445.524 291.791C446.478 291.958 447.439 292.026 448.38 292.276C455.978 293.762 463.174 297.155 469.206 301.728C472.217 304.027 474.958 306.62 477.271 309.5C479.583 312.379 481.481 315.484 482.952 318.782C484.422 322.08 485.47 325.554 486.06 329.103C486.627 332.652 486.753 336.269 486.447 339.845C485.832 346.985 483.439 353.993 479.247 359.8C478.246 361.296 477.16 362.522 476.097 363.474C475.027 364.421 474.024 364.945 473.276 365.108C473.089 365.148 472.895 365.184 472.73 365.191C472.581 365.17 472.43 365.22 472.268 365.178C471.961 365.18 471.6 365.042 471.202 364.895C470.41 364.53 469.454 363.86 468.733 362.897C468.006 361.96 467.419 360.838 467.23 359.781C467.024 358.844 467.041 357.532 467.375 356.277C467.97 353.75 469.752 351.073 472.16 348.747C472.911 348.032 473.692 347.343 474.565 346.71C475.4 346.035 476.317 345.461 477.222 344.876C479.063 343.732 481.068 342.811 483.146 342.045C487.306 340.486 491.893 339.777 496.528 339.684C505.832 339.589 515.357 342.26 523.283 346.999C527.254 349.355 530.803 352.264 533.769 355.569C535.245 357.189 536.498 359.092 537.823 360.91L539.534 363.815L539.961 364.54C540.091 364.786 540.205 365.049 540.323 365.295L541.043 366.811C542.924 370.872 544.366 375.16 545.084 379.599C545.339 380.692 545.436 381.819 545.569 382.934C545.689 384.049 545.863 385.167 545.86 386.293C545.892 387.417 545.966 388.545 545.969 389.665L545.841 393.047C545.51 397.553 544.728 402.034 543.438 406.389C542.069 410.72 540.238 414.912 537.958 418.85C533.383 426.694 526.532 433.329 518.51 438.768C510.495 444.235 501.304 448.396 491.724 451.622C482.112 454.79 472.056 457.01 461.84 458.281C449.53 459.842 436.886 460.549 424.543 459.921C421.581 459.785 418.88 459.659 416.415 459.545C415.183 459.488 413.999 459.451 412.875 459.434C411.756 459.388 410.69 459.357 409.668 459.351C407.623 459.362 405.801 459.341 404.145 459.428C402.483 459.531 401.028 459.631 399.719 459.813C395.921 460.34 395.452 461.71 398.169 463.572C398.848 464.041 399.73 464.533 400.801 465.05C401.878 465.54 403.162 466.037 404.623 466.549C407.552 467.556 411.264 468.501 415.681 469.259C421.277 470.185 427.2 470.791 433.188 471.033C439.175 471.265 445.226 471.112 451.074 470.694C464.542 469.7 477.898 467.389 490.779 463.509C503.63 459.613 516.121 454.191 527.15 446.461C532.643 442.588 537.729 438.121 542.109 433.017C546.512 427.912 550.009 422.168 552.636 416.161C557.859 404.12 559.7 390.868 557.729 377.871C556.622 370.711 554.275 363.456 550.476 356.836C549.998 356.015 549.542 355.171 549.036 354.368C548.488 353.582 547.929 352.798 547.382 352.012C546.811 351.239 546.305 350.446 545.676 349.686C545.042 348.943 544.447 348.159 543.768 347.461C541.142 344.568 538.178 342.016 535.032 339.855C524.954 332.956 512.917 328.857 500.435 328.278C497.313 328.143 494.166 328.217 491.034 328.574C487.908 328.937 484.788 329.555 481.748 330.461C475.653 332.228 469.918 335.291 465.143 339.341C462.739 341.388 460.569 343.748 458.784 346.474C457.016 349.194 455.642 352.35 455.169 355.786C454.947 357.5 454.914 359.217 455.204 361.122C455.49 362.963 456.119 364.673 456.938 366.283C457.751 367.899 458.807 369.395 460.103 370.738C461.394 372.088 462.909 373.313 464.719 374.296C466.534 375.262 468.645 375.976 470.926 376.207C472.056 376.344 473.229 376.289 474.359 376.186C475.463 376.041 476.557 375.814 477.574 375.471C479.633 374.804 481.367 373.779 482.855 372.683C484.343 371.576 485.548 370.378 486.629 369.168C487.703 367.953 488.634 366.711 489.43 365.481L490.668 363.631C491.044 362.997 491.397 362.354 491.761 361.71C493.229 359.156 494.337 356.464 495.301 353.746C496.665 349.683 497.509 345.505 497.873 341.299C497.933 340.242 498.052 339.193 498.053 338.138L498.055 334.974L497.839 331.815C497.769 330.763 497.569 329.717 497.446 328.673C496.795 324.499 495.656 320.384 494.029 316.42C492.389 312.458 490.174 308.678 487.554 305.205C482.324 298.215 475.297 292.519 467.356 288.415C463.387 286.343 459.139 284.715 454.732 283.58C450.325 282.435 445.764 281.754 441.148 281.634L438.057 281.639C437.047 281.666 436.093 281.739 435.115 281.792C433.162 281.869 431.213 282.127 429.265 282.303C427.321 282.555 425.378 282.829 423.45 283.157L420.565 283.733L419.119 284.018C418.64 284.126 418.168 284.261 417.695 284.374C410.073 286.222 402.69 289.055 395.93 292.883C389.169 296.701 383.088 301.489 377.843 306.908C372.667 312.396 368.431 318.499 364.786 324.828L362.321 329.687C361.924 330.501 361.472 331.291 361.118 332.131L360.056 334.651C359.311 336.322 358.74 338.035 358.145 339.738C357.509 341.437 357.051 343.161 356.545 344.876C354.6 351.762 353.345 358.727 352.474 365.693C350.75 379.628 350.599 393.584 351.176 407.444C351.399 412.981 351.817 418.421 352.384 423.747C352.938 429.072 353.67 434.287 354.538 439.364C356.261 449.519 358.56 459.137 361.396 468.026C362.716 472.117 364.092 473.873 364.92 473.401C365.755 472.955 366.066 470.303 365.53 465.463C364.031 451.735 362.753 437.326 361.988 423.027C361.356 411.273 360.733 399.224 361.083 387.379C361.147 387.349 361.21 387.319 361.273 387.279L361.226 387.27Z" fill="black"/>
</svg>
