<svg width="462" height="487" viewBox="0 0 462 487" fill="none" xmlns="http://www.w3.org/2000/svg">
<path fill-rule="evenodd" clip-rule="evenodd" d="M221.965 42.9985C150.529 50.9407 99.3208 104.929 56.6823 157.91C21.301 201.873 7.41469 254.391 7.91808 308.963C8.41612 362.954 15.7012 421.2 59.4457 457.491C101.934 492.739 164.582 486.653 221.965 486.535C279.15 486.417 340.356 490.855 383.757 456.825C429.582 420.895 440.528 363.668 448.439 308.963C458.047 242.52 478.07 168.959 433.032 116.068C384.999 59.6587 299.604 34.3668 221.965 42.9985Z" fill="black"/>
<path d="M57.0496 196.213C60.3693 204.8 60.8493 213.493 59.0018 220.585C57.1537 227.679 53.0162 233.068 47.1585 235.333C41.3007 237.597 34.6138 236.393 28.4745 232.387C22.3372 228.383 16.8445 221.627 13.5248 213.041C10.2051 204.454 9.72504 195.76 11.5726 188.669C13.4207 181.575 17.5582 176.186 23.4159 173.921C29.2736 171.656 35.9606 172.861 42.0999 176.867C48.2371 180.871 53.7299 187.627 57.0496 196.213Z" fill="white" stroke="black" stroke-width="2.55695"/>
<mask id="mask0_1399_24" style="mask-type:alpha" maskUnits="userSpaceOnUse" x="9" y="171" width="53" height="67">
<ellipse cx="35.2872" cy="204.627" rx="24.6107" ry="34.1993" transform="rotate(-21.1371 35.2872 204.627)" fill="#D9D9D9"/>
</mask>
<g mask="url(#mask0_1399_24)">
<ellipse cx="37.4971" cy="207.013" rx="14.1963" ry="23.9805" transform="rotate(-31.1976 37.4971 207.013)" fill="black"/>
<path d="M98.4487 223.012C104.941 239.806 94.3823 259.88 74.3241 267.635C54.2659 275.389 32.9494 267.639 26.4569 250.845C19.9644 234.052 30.5233 213.978 50.5815 206.223C70.6397 198.468 91.9562 206.219 98.4487 223.012Z" fill="#7D7D7D" stroke="black" stroke-width="2.55695"/>
<path d="M36.9017 200.472L45.5303 194.133L39.3026 185.656L36.9017 200.472Z" fill="white"/>
</g>
<path d="M2.87788 190.445C1.84151 172.063 4.88297 164.707 27.8082 165.834" stroke="black" stroke-width="2.55695"/>
<path d="M114.018 118.737C117.338 127.324 117.818 136.017 115.971 143.109C114.122 150.202 109.985 155.592 104.127 157.857C98.2695 160.121 91.5825 158.917 85.4432 154.911C79.306 150.907 73.8132 144.151 70.4935 135.565C67.1738 126.978 66.6938 118.284 68.5413 111.193C70.3894 104.099 74.5269 98.7097 80.3846 96.445C86.2424 94.1803 92.9293 95.3851 99.0686 99.3907C105.206 103.395 110.699 110.151 114.018 118.737Z" fill="white" stroke="black" stroke-width="2.55695"/>
<mask id="mask1_1399_24" style="mask-type:alpha" maskUnits="userSpaceOnUse" x="66" y="94" width="53" height="67">
<ellipse cx="92.2559" cy="127.151" rx="24.6107" ry="34.1993" transform="rotate(-21.1371 92.2559 127.151)" fill="#D9D9D9"/>
</mask>
<g mask="url(#mask1_1399_24)">
<ellipse cx="94.4659" cy="129.537" rx="14.1963" ry="23.9805" transform="rotate(-31.1976 94.4659 129.537)" fill="black"/>
<path d="M155.417 145.536C161.91 162.33 151.351 182.404 131.293 190.159C111.235 197.913 89.9181 190.162 83.4256 173.369C76.9331 156.576 87.492 136.502 107.55 128.747C127.608 120.992 148.925 128.743 155.417 145.536Z" fill="#7D7D7D" stroke="black" stroke-width="2.55695"/>
<path d="M93.8704 122.996L102.499 116.657L96.2713 108.18L93.8704 122.996Z" fill="white"/>
</g>
<path d="M59.8466 112.969C58.8103 94.587 61.8517 87.2306 84.7769 88.3583" stroke="black" stroke-width="2.55695"/>
<path d="M29.2588 93.9952C28.9991 94.2921 28.7106 94.4448 28.3935 94.4533C28.0898 94.4736 27.6073 94.1945 26.9458 93.616C26.3384 93.0847 25.6432 92.286 24.8602 91.2199C24.0638 90.1421 23.2242 88.8955 22.3417 87.4802C21.4591 86.065 20.5774 84.567 19.6964 82.9864C18.802 81.394 17.9523 79.805 17.1473 78.2193C16.3406 76.6084 15.6242 75.1121 14.9981 73.7305C14.7736 73.2245 14.6698 72.812 14.6866 72.4931C14.7034 72.1743 14.824 71.8866 15.0483 71.6302C15.2018 71.4547 15.3857 71.3534 15.5999 71.3264C15.8125 71.2741 16.0335 71.3482 16.263 71.549C16.344 71.6198 16.5304 71.9378 16.8224 72.5029C17.1262 73.0545 17.5126 73.7976 17.9818 74.7321C18.4628 75.6531 19.002 76.6846 19.5994 77.8267C20.1968 78.9687 20.8355 80.1588 21.5156 81.3969C22.1957 82.6351 22.9003 83.8589 23.6293 85.0684C24.3448 86.266 25.0612 87.381 25.7783 88.4134C26.4955 89.4457 27.1831 90.3212 27.8412 91.0397C27.7331 90.3734 27.5583 89.5653 27.3169 88.6155C27.0755 87.6658 26.8105 86.6477 26.5218 85.5613C26.2331 84.4749 25.9571 83.3877 25.6937 82.2996C25.4304 81.2115 25.2218 80.1833 25.0681 79.215C24.9144 78.2466 24.846 77.4124 24.8627 76.7123C24.8778 75.9869 25.0211 75.4689 25.2926 75.1584C25.7413 74.6455 26.2634 74.3755 26.8589 74.3484C27.4527 74.296 28.1073 74.5827 28.8228 75.2084C29.2277 75.5626 29.6428 76.0687 30.0681 76.7265C30.5051 77.3709 30.9455 78.0659 31.3894 78.8115C31.8332 79.5571 32.2677 80.2588 32.693 80.9167C33.13 81.561 33.551 82.0603 33.956 82.4145C34.5094 82.8986 34.9691 82.9314 35.3352 82.513C35.9019 81.865 36.3269 81.0932 36.6101 80.1973C36.9052 79.2879 37.1033 78.3533 37.2043 77.3933C37.2919 76.4216 37.3381 75.4971 37.343 74.6198C37.3344 73.7308 37.3284 72.975 37.3249 72.3525C37.318 71.6793 37.4268 71.2145 37.6511 70.9581C37.9344 70.6341 38.2449 70.6197 38.5823 70.9149C38.6768 70.9975 38.7671 71.1122 38.8531 71.259C38.9392 71.4057 39 71.6495 39.0355 71.9903C39.0895 72.4188 39.1352 73.0067 39.1724 73.7541C39.2215 74.4879 39.2385 75.3129 39.2235 76.2289C39.2203 77.1315 39.1487 78.0577 39.0089 79.0075C38.8808 79.9438 38.6676 80.8414 38.3691 81.7001C38.069 82.5336 37.6592 83.2473 37.1397 83.8412C36.4313 84.6511 35.6528 85.078 34.8042 85.1221C33.9539 85.1408 33.1171 84.79 32.2937 84.0698C31.7808 83.6211 31.2307 82.997 30.6435 82.1975C30.0562 81.3979 29.4639 80.5225 28.8665 79.5711C28.2675 78.5944 27.6887 77.6354 27.1301 76.6942C27.0492 77.3859 27.0814 78.2479 27.2267 79.2804C27.3703 80.2875 27.5712 81.3925 27.8296 82.5953C28.0744 83.7863 28.3327 84.9891 28.6046 86.2037C28.8882 87.4048 29.1296 88.5452 29.3289 89.6249C29.5265 90.6792 29.6321 91.5936 29.6457 92.3679C29.6593 93.1423 29.5304 93.6847 29.2588 93.9952ZM55.9405 60.4265C56.1447 60.6289 56.2434 60.8701 56.2367 61.1501C56.23 61.4302 56.1322 61.6782 55.9433 61.8942C55.7308 62.1371 55.4727 62.2688 55.169 62.2891C54.8653 62.3094 54.5448 62.1719 54.2073 61.8768C53.3299 61.1093 52.4137 60.2365 51.4587 59.2581C50.4902 58.268 49.5528 57.2695 48.6467 56.2625C47.7271 55.2437 46.8885 54.2957 46.1308 53.4186C46.3756 54.419 46.6525 55.5188 46.9614 56.7183C47.2822 57.9042 47.5844 59.0977 47.868 60.2988C48.1517 61.5 48.3864 62.6344 48.5721 63.7023C48.7444 64.7584 48.8432 65.6668 48.8687 66.4277C48.8806 67.1767 48.7685 67.6862 48.5324 67.9562C48.0955 68.4556 47.522 68.7164 46.8118 68.7384C46.088 68.7487 45.4224 68.4881 44.815 67.9568C44.572 67.7443 44.2649 67.428 43.8937 67.008C43.509 66.5762 43.1099 66.12 42.6965 65.6392C42.2831 65.1585 41.8976 64.714 41.5398 64.3058C41.1686 63.8858 40.8818 63.5873 40.6793 63.4102C40.4903 63.2449 40.3106 63.1234 40.1402 63.0459C39.9681 62.943 39.8348 62.9455 39.7404 63.0535C39.5987 63.2155 39.5861 63.5976 39.7026 64.1999C39.8056 64.7903 39.9804 65.5031 40.2268 66.3381C40.4851 67.1596 40.7653 68.0242 41.0674 68.9318C41.3814 69.8258 41.6793 70.6701 41.9612 71.4647C42.2296 72.2474 42.4245 72.8825 42.5461 73.3701C42.6895 73.8053 42.7638 74.1562 42.7689 74.4227C42.7741 74.6893 42.6822 74.9306 42.4932 75.1465C42.2689 75.403 41.9273 75.5212 41.4684 75.501C41.0214 75.4673 40.6021 75.2793 40.2107 74.9369C39.9812 74.7362 39.6589 74.3828 39.2438 73.8768C38.8152 73.3589 38.3571 72.7795 37.8694 72.1385C37.3935 71.484 36.9253 70.8481 36.4646 70.2307C36.0022 69.5881 35.6099 69.0424 35.2876 68.5937C34.9231 68.0843 34.7307 67.6777 34.7104 67.3741C34.6901 67.0704 34.7626 66.8241 34.9279 66.6351C35.1522 66.3786 35.4238 66.2588 35.7427 66.2756C36.0599 66.2671 36.4074 66.4282 36.7854 66.7588C36.8529 66.8178 36.9997 67.0177 37.2258 67.3584C37.4384 67.6874 37.7008 68.0956 38.013 68.5831C38.3235 69.0453 38.6424 69.5387 38.9698 70.0633C39.309 70.5744 39.6321 71.0357 39.9393 71.4473C39.6996 70.7135 39.4312 69.9308 39.1341 69.0991C38.8489 68.254 38.5704 67.4147 38.2986 66.5814C38.0133 65.7362 37.7821 64.9383 37.6048 64.1876C37.414 63.4251 37.3186 62.7579 37.3185 62.186C37.3184 61.6141 37.4482 61.1796 37.708 60.8827C38.0149 60.5317 38.4063 60.3022 38.882 60.1942C39.3696 60.0726 39.8782 60.0767 40.4079 60.2065C40.9377 60.3363 41.4253 60.5961 41.8707 60.9857C42.1812 61.2572 42.5727 61.695 43.0451 62.2988C43.5041 62.8909 44.0044 63.531 44.5461 64.2193C45.0996 64.894 45.6547 65.4987 46.2115 66.0334C46.3465 66.1514 46.4494 66.17 46.5203 66.089C46.5793 66.0215 46.6029 65.8992 46.5911 65.722C46.5015 64.9528 46.3596 64.0663 46.1655 63.0625C45.9578 62.0469 45.7222 60.9951 45.4589 59.907C45.2073 58.8054 44.9633 57.7224 44.727 56.6579C44.4771 55.5817 44.2652 54.5982 44.0913 53.7074C43.9157 52.7914 43.8075 52.0297 43.7669 51.4224C43.7382 50.8016 43.8064 50.3967 43.9717 50.2077C44.3259 49.8028 44.7122 49.5926 45.1306 49.5774C45.549 49.5621 46.0281 49.7906 46.5681 50.2629C47 50.6407 47.5307 51.1645 48.1601 51.8341C48.8012 52.4902 49.4855 53.2198 50.2127 54.0227C50.9518 54.8121 51.6858 55.6209 52.4147 56.4491C53.142 57.252 53.8152 58.0076 54.4345 58.7161C55.0403 59.4127 55.5423 59.9828 55.9405 60.4265ZM73.2357 40.6535C73.4398 40.8559 73.5386 41.0971 73.5319 41.3772C73.5252 41.6572 73.4274 41.9052 73.2384 42.1212C73.0259 42.3642 72.7678 42.4958 72.4642 42.5161C72.1605 42.5364 71.8399 42.399 71.5025 42.1038C70.6251 41.3363 69.7089 40.4635 68.7538 39.4852C67.7853 38.495 66.848 37.4965 65.9419 36.4895C65.0223 35.4707 64.1836 34.5227 63.426 33.6456C63.6708 34.646 63.9477 35.7459 64.2566 36.9453C64.5773 38.1312 64.8795 39.3247 65.1632 40.5258C65.4468 41.727 65.6815 42.8615 65.8673 43.9293C66.0395 44.9854 66.1384 45.8938 66.1638 46.6547C66.1758 47.4037 66.0637 47.9132 65.8275 48.1832C65.3907 48.6826 64.8171 48.9434 64.1069 48.9654C63.3832 48.9757 62.7176 48.7151 62.1102 48.1838C61.8672 47.9713 61.5601 47.655 61.1889 47.235C60.8042 46.8032 60.4051 46.347 59.9917 45.8662C59.5783 45.3855 59.1927 44.941 58.835 44.5328C58.4638 44.1128 58.1769 43.8143 57.9744 43.6372C57.7855 43.4719 57.6058 43.3504 57.4354 43.2729C57.2633 43.17 57.13 43.1725 57.0355 43.2805C56.8939 43.4425 56.8813 43.8246 56.9978 44.4269C57.1008 45.0173 57.2755 45.7301 57.522 46.5651C57.7803 47.3866 58.0605 48.2512 58.3626 49.1588C58.6765 50.0528 58.9745 50.8971 59.2563 51.6917C59.5247 52.4744 59.7197 53.1095 59.8412 53.5971C59.9847 54.0323 60.059 54.3832 60.0641 54.6497C60.0692 54.9163 59.9773 55.1576 59.7884 55.3735C59.5641 55.63 59.2225 55.7482 58.7636 55.728C58.3165 55.6943 57.8973 55.5063 57.5058 55.1639C57.2763 54.9632 56.9541 54.6098 56.539 54.1038C56.1104 53.5859 55.6522 53.0065 55.1646 52.3655C54.6887 51.7111 54.2204 51.0751 53.7598 50.4578C53.2974 49.8151 52.9051 49.2694 52.5828 48.8207C52.2183 48.3113 52.0259 47.9047 52.0056 47.6011C51.9853 47.2974 52.0578 47.0511 52.2231 46.8621C52.4474 46.6056 52.719 46.4858 53.0378 46.5026C53.355 46.4941 53.7026 46.6552 54.0805 46.9858C54.148 47.0448 54.2948 47.2447 54.5209 47.5854C54.7336 47.9144 54.996 48.3226 55.3082 48.8101C55.6187 49.2723 55.9376 49.7657 56.265 50.2903C56.6042 50.8014 56.9273 51.2627 57.2344 51.6743C56.9947 50.9405 56.7264 50.1578 56.4293 49.3261C56.144 48.481 55.8655 47.6417 55.5938 46.8084C55.3085 45.9632 55.0772 45.1653 54.9 44.4146C54.7092 43.6521 54.6138 42.9849 54.6137 42.413C54.6135 41.8411 54.7434 41.4066 55.0031 41.1097C55.3101 40.7587 55.7015 40.5292 56.1772 40.4212C56.6647 40.2996 57.1733 40.3037 57.7031 40.4335C58.2329 40.5633 58.7205 40.8231 59.1659 41.2127C59.4764 41.4842 59.8678 41.922 60.3403 42.5258C60.7993 43.1179 61.2996 43.758 61.8413 44.4463C62.3947 45.121 62.9499 45.7257 63.5067 46.2604C63.6417 46.3784 63.7446 46.397 63.8154 46.316C63.8745 46.2485 63.8981 46.1262 63.8862 45.949C63.7967 45.1798 63.6548 44.2933 63.4606 43.2895C63.2529 42.274 63.0174 41.2221 62.754 40.134C62.5025 39.0325 62.2585 37.9494 62.0221 36.8849C61.7722 35.8087 61.5603 34.8252 61.3864 33.9344C61.2108 33.0184 61.1027 32.2567 61.0621 31.6494C61.0333 31.0286 61.1016 30.6237 61.2669 30.4347C61.6211 30.0298 62.0074 29.8197 62.4257 29.8044C62.8441 29.7891 63.3233 30.0176 63.8632 30.4899C64.2952 30.8677 64.8258 31.3915 65.4552 32.0611C66.0964 32.7172 66.7806 33.4468 67.5079 34.2497C68.2469 35.0391 68.9809 35.8479 69.7099 36.6761C70.4371 37.479 71.1104 38.2346 71.7297 38.9431C72.3354 39.6397 72.8374 40.2098 73.2357 40.6535ZM90.5308 20.8805C90.735 21.0829 90.8337 21.3241 90.827 21.6042C90.8203 21.8842 90.7225 22.1322 90.5336 22.3482C90.3211 22.5912 90.063 22.7228 89.7593 22.7431C89.4557 22.7634 89.1351 22.626 88.7976 22.3308C87.9202 21.5633 87.004 20.6905 86.049 19.7122C85.0805 18.722 84.1431 17.7235 83.237 16.7165C82.3174 15.6977 81.4788 14.7497 80.7211 13.8726C80.9659 14.873 81.2428 15.9729 81.5518 17.1723C81.8725 18.3582 82.1747 19.5517 82.4583 20.7529C82.742 21.954 82.9767 23.0885 83.1624 24.1563C83.3347 25.2124 83.4335 26.1208 83.459 26.8817C83.4709 27.6307 83.3588 28.1402 83.1227 28.4102C82.6858 28.9096 82.1123 29.1704 81.4021 29.1924C80.6783 29.2027 80.0127 28.9421 79.4053 28.4108C79.1623 28.1983 78.8553 27.8821 78.484 27.462C78.0993 27.0302 77.7002 26.574 77.2868 26.0932C76.8734 25.6125 76.4879 25.168 76.1301 24.7598C75.7589 24.3398 75.4721 24.0413 75.2696 23.8642C75.0806 23.6989 74.9009 23.5774 74.7305 23.4999C74.5584 23.397 74.4251 23.3996 74.3307 23.5075C74.189 23.6695 74.1764 24.0516 74.2929 24.6539C74.396 25.2443 74.5707 25.9571 74.8171 26.7921C75.0754 27.6136 75.3556 28.4782 75.6577 29.3858C75.9717 30.2798 76.2696 31.1241 76.5515 31.9187C76.8199 32.7014 77.0148 33.3366 77.1364 33.8241C77.2799 34.2593 77.3541 34.6102 77.3593 34.8768C77.3644 35.1433 77.2725 35.3846 77.0836 35.6005C76.8592 35.857 76.5176 35.9752 76.0587 35.955C75.6117 35.9213 75.1924 35.7333 74.801 35.3909C74.5715 35.1902 74.2492 34.8368 73.8341 34.3308C73.4055 33.8129 72.9474 33.2335 72.4597 32.5925C71.9838 31.9381 71.5156 31.3021 71.0549 30.6848C70.5925 30.0421 70.2002 29.4964 69.8779 29.0477C69.5134 28.5383 69.321 28.1317 69.3007 27.8281C69.2804 27.5244 69.3529 27.2781 69.5182 27.0891C69.7426 26.8327 70.0141 26.7128 70.333 26.7296C70.6502 26.7211 70.9977 26.8822 71.3757 27.2128C71.4432 27.2718 71.59 27.4717 71.8161 27.8125C72.0287 28.1414 72.2911 28.5496 72.6033 29.0371C72.9138 29.4993 73.2327 29.9927 73.5601 30.5173C73.8993 31.0284 74.2225 31.4898 74.5296 31.9013C74.2899 31.1675 74.0215 30.3848 73.7244 29.5531C73.4392 28.708 73.1607 27.8687 72.8889 27.0354C72.6037 26.1902 72.3724 25.3923 72.1951 24.6416C72.0043 23.8791 71.9089 23.2119 71.9088 22.64C71.9087 22.0681 72.0385 21.6337 72.2983 21.3367C72.6053 20.9857 72.9966 20.7562 73.4723 20.6482C73.9599 20.5266 74.4685 20.5307 74.9983 20.6606C75.528 20.7904 76.0156 21.0501 76.461 21.4397C76.7715 21.7113 77.163 22.149 77.6355 22.7528C78.0944 23.3449 78.5948 23.9851 79.1364 24.6733C79.6899 25.348 80.245 25.9527 80.8018 26.4874C80.9368 26.6054 81.0397 26.624 81.1106 26.543C81.1696 26.4755 81.1932 26.3532 81.1814 26.176C81.0918 25.4068 80.9499 24.5203 80.7558 23.5165C80.5481 22.501 80.3125 21.4491 80.0492 20.361C79.7976 19.2595 79.5536 18.1764 79.3173 17.112C79.0674 16.0357 78.8555 15.0522 78.6816 14.1614C78.506 13.2454 78.3979 12.4837 78.3573 11.8764C78.3285 11.2556 78.3967 10.8507 78.562 10.6617C78.9162 10.2568 79.3025 10.0467 79.7209 10.0314C80.1393 10.0161 80.6184 10.2447 81.1584 10.7169C81.5903 11.0947 82.121 11.6185 82.7504 12.2881C83.3916 12.9443 84.0758 13.6738 84.803 14.4767C85.5421 15.2661 86.2761 16.0749 87.005 16.9031C87.7323 17.706 88.4056 18.4616 89.0248 19.1701C89.6306 19.8667 90.1326 20.4369 90.5308 20.8805Z" fill="#696969"/>
</svg>
