<svg width="146" height="100" viewBox="0 0 146 100" fill="none" xmlns="http://www.w3.org/2000/svg">
<g clip-path="url(#clip0_1442_4610)">
<mask id="mask0_1442_4610" style="mask-type:luminance" maskUnits="userSpaceOnUse" x="0" y="0" width="146" height="100">
<path d="M146 0H0V99.3491H146V0Z" fill="white"/>
</mask>
<g mask="url(#mask0_1442_4610)">
<mask id="path-2-inside-1_1442_4610" fill="white">
<path d="M68.3864 2.5606C71.0723 1.06997 74.9281 1.06997 77.6138 2.5606L83.4049 5.77464C85.2277 6.78592 87.6542 7.13801 89.9238 6.7205L97.1187 5.39722C100.46 4.7827 103.976 5.84916 105.538 7.95079L108.937 12.5256C109.996 13.9493 111.994 14.9405 114.309 15.1901L121.704 15.9872C125.111 16.3545 127.675 18.2946 127.852 20.6389L128.241 25.8001C128.36 27.3871 129.589 28.8393 131.545 29.707L137.872 32.513C140.752 33.7909 141.932 36.264 140.703 38.4498L137.981 43.2896C137.148 44.7702 137.404 46.4323 138.67 47.7634L142.801 52.1081C144.668 54.0717 144.269 56.6553 141.844 58.3124L136.493 61.968C134.847 63.0921 134.09 64.6832 134.455 66.2504L135.645 71.3664C136.183 73.6808 134.271 75.9365 131.058 76.779L124.043 78.6169C121.859 79.1892 120.211 80.4385 119.61 81.9774L117.667 86.9538C116.78 89.2269 113.673 90.7648 110.222 90.6392L102.77 90.3679C100.424 90.2825 98.1618 90.97 96.6901 92.2153L91.9904 96.1933C89.8194 98.0307 86.0497 98.5767 82.9669 97.4997L76.3341 95.1824C74.2412 94.4517 71.7591 94.4517 69.6663 95.1824L63.0331 97.4997C59.9509 98.5767 56.1811 98.0307 54.0101 96.1933L49.3102 92.2153C47.8386 90.97 45.5763 90.2825 43.231 90.3679L35.7783 90.6392C32.3275 90.7648 29.22 89.2269 28.3329 86.9538L26.3902 81.9774C25.7896 80.4385 24.1414 79.1892 21.958 78.6169L14.9426 76.779C11.7288 75.9365 9.81701 73.6808 10.3556 71.3664L11.546 66.2504C11.9106 64.6832 11.1532 63.0921 9.50771 61.968L4.15657 58.3124C1.73111 56.6553 1.3325 54.0717 3.1994 52.1081L7.33048 47.7634C8.59608 46.4323 8.85195 44.7702 8.01931 43.2896L5.29751 38.4498C4.0683 36.264 5.24784 33.7909 8.12903 32.513L14.4552 29.707C16.4115 28.8393 17.6396 27.3871 17.7593 25.8001L18.1485 20.6389C18.3253 18.2946 20.8895 16.3545 24.2966 15.9872L31.6908 15.1901C34.0064 14.9405 36.0048 13.9493 37.0629 12.5256L40.4628 7.95079C42.0247 5.84916 45.5408 4.78269 48.8819 5.39722L56.0765 6.7205C58.3465 7.13801 60.773 6.78592 62.5951 5.77464L68.3864 2.5606Z"/>
</mask>
<path d="M68.3864 2.5606C71.0723 1.06997 74.9281 1.06997 77.6138 2.5606L83.4049 5.77464C85.2277 6.78592 87.6542 7.13801 89.9238 6.7205L97.1187 5.39722C100.46 4.7827 103.976 5.84916 105.538 7.95079L108.937 12.5256C109.996 13.9493 111.994 14.9405 114.309 15.1901L121.704 15.9872C125.111 16.3545 127.675 18.2946 127.852 20.6389L128.241 25.8001C128.36 27.3871 129.589 28.8393 131.545 29.707L137.872 32.513C140.752 33.7909 141.932 36.264 140.703 38.4498L137.981 43.2896C137.148 44.7702 137.404 46.4323 138.67 47.7634L142.801 52.1081C144.668 54.0717 144.269 56.6553 141.844 58.3124L136.493 61.968C134.847 63.0921 134.09 64.6832 134.455 66.2504L135.645 71.3664C136.183 73.6808 134.271 75.9365 131.058 76.779L124.043 78.6169C121.859 79.1892 120.211 80.4385 119.61 81.9774L117.667 86.9538C116.78 89.2269 113.673 90.7648 110.222 90.6392L102.77 90.3679C100.424 90.2825 98.1618 90.97 96.6901 92.2153L91.9904 96.1933C89.8194 98.0307 86.0497 98.5767 82.9669 97.4997L76.3341 95.1824C74.2412 94.4517 71.7591 94.4517 69.6663 95.1824L63.0331 97.4997C59.9509 98.5767 56.1811 98.0307 54.0101 96.1933L49.3102 92.2153C47.8386 90.97 45.5763 90.2825 43.231 90.3679L35.7783 90.6392C32.3275 90.7648 29.22 89.2269 28.3329 86.9538L26.3902 81.9774C25.7896 80.4385 24.1414 79.1892 21.958 78.6169L14.9426 76.779C11.7288 75.9365 9.81701 73.6808 10.3556 71.3664L11.546 66.2504C11.9106 64.6832 11.1532 63.0921 9.50771 61.968L4.15657 58.3124C1.73111 56.6553 1.3325 54.0717 3.1994 52.1081L7.33048 47.7634C8.59608 46.4323 8.85195 44.7702 8.01931 43.2896L5.29751 38.4498C4.0683 36.264 5.24784 33.7909 8.12903 32.513L14.4552 29.707C16.4115 28.8393 17.6396 27.3871 17.7593 25.8001L18.1485 20.6389C18.3253 18.2946 20.8895 16.3545 24.2966 15.9872L31.6908 15.1901C34.0064 14.9405 36.0048 13.9493 37.0629 12.5256L40.4628 7.95079C42.0247 5.84916 45.5408 4.78269 48.8819 5.39722L56.0765 6.7205C58.3465 7.13801 60.773 6.78592 62.5951 5.77464L68.3864 2.5606Z" fill="#BB6486"/>
<path d="M68.3864 2.5606L66.5074 -0.825092L66.5074 -0.825091L68.3864 2.5606ZM77.6138 2.5606L75.7347 5.94622L75.7347 5.94626L77.6138 2.5606ZM83.4049 5.77464L81.5258 9.16031L81.5264 9.16061L83.4049 5.77464ZM89.9238 6.7205L89.2234 2.91222L89.2232 2.91225L89.9238 6.7205ZM97.1187 5.39722L97.8191 9.20549L97.8191 9.20549L97.1187 5.39722ZM105.538 7.95079L108.646 5.64122L108.645 5.64079L105.538 7.95079ZM108.937 12.5256L105.829 14.8352L105.83 14.836L108.937 12.5256ZM114.309 15.1901L114.724 11.3403L114.724 11.3403L114.309 15.1901ZM121.704 15.9872L122.119 12.1374L122.119 12.1374L121.704 15.9872ZM127.852 20.6389L123.99 20.9299L123.99 20.93L127.852 20.6389ZM128.241 25.8001L124.38 26.0912L124.38 26.0914L128.241 25.8001ZM131.545 29.707L133.115 26.1674L133.115 26.1674L131.545 29.707ZM137.872 32.513L139.442 28.9735L139.442 28.9734L137.872 32.513ZM140.703 38.4498L137.328 36.5517L137.327 36.552L140.703 38.4498ZM137.981 43.2896L141.356 45.1881L141.356 45.1875L137.981 43.2896ZM138.67 47.7634L135.863 50.431L135.864 50.4318L138.67 47.7634ZM142.801 52.1081L145.608 49.4403L145.607 49.4397L142.801 52.1081ZM141.844 58.3124L139.659 55.1151L139.659 55.1152L141.844 58.3124ZM136.493 61.968L134.308 58.7707L134.308 58.7708L136.493 61.968ZM134.455 66.2504L138.226 65.3727L138.226 65.3721L134.455 66.2504ZM135.645 71.3664L139.417 70.4896L139.416 70.4887L135.645 71.3664ZM131.058 76.779L132.039 80.5247L132.04 80.5245L131.058 76.779ZM124.043 78.6169L123.061 74.8712L123.061 74.8713L124.043 78.6169ZM119.61 81.9774L116.003 80.5692L116.003 80.5694L119.61 81.9774ZM117.667 86.9538L114.06 85.5458L114.06 85.5463L117.667 86.9538ZM110.222 90.6392L110.363 86.7696L110.363 86.7696L110.222 90.6392ZM102.77 90.3679L102.629 94.2375L102.629 94.2375L102.77 90.3679ZM96.6901 92.2153L94.1889 89.2595L94.1885 89.2598L96.6901 92.2153ZM91.9904 96.1933L94.4919 99.1489L94.492 99.1488L91.9904 96.1933ZM82.9669 97.4997L81.6897 101.155L81.6899 101.155L82.9669 97.4997ZM76.3341 95.1824L77.6112 91.5269L77.6104 91.5267L76.3341 95.1824ZM69.6663 95.1824L68.3899 91.5267L68.3893 91.5269L69.6663 95.1824ZM63.0331 97.4997L61.7561 93.8442L61.7559 93.8443L63.0331 97.4997ZM54.0101 96.1933L51.5085 99.1489L51.5085 99.1489L54.0101 96.1933ZM49.3102 92.2153L51.8118 89.2597L51.8116 89.2595L49.3102 92.2153ZM43.231 90.3679L43.3718 94.2375L43.372 94.2375L43.231 90.3679ZM35.7783 90.6392L35.6375 86.7696L35.6374 86.7696L35.7783 90.6392ZM28.3329 86.9538L31.9401 85.5461L31.9399 85.5457L28.3329 86.9538ZM26.3902 81.9774L22.7831 83.3853L22.7832 83.3855L26.3902 81.9774ZM21.958 78.6169L22.9397 74.8713L22.9393 74.8712L21.958 78.6169ZM14.9426 76.779L13.9608 80.5245L13.9613 80.5247L14.9426 76.779ZM10.3556 71.3664L14.127 72.2441L14.127 72.244L10.3556 71.3664ZM11.546 66.2504L15.3174 67.128L15.3174 67.1279L11.546 66.2504ZM9.50771 61.968L11.692 58.7707L11.6919 58.7707L9.50771 61.968ZM4.15657 58.3124L1.97216 61.5096L1.97237 61.5098L4.15657 58.3124ZM3.1994 52.1081L0.393249 49.4399L0.393121 49.4401L3.1994 52.1081ZM7.33048 47.7634L4.52436 45.0952L4.52433 45.0952L7.33048 47.7634ZM8.01931 43.2896L11.3944 41.3916L11.3944 41.3916L8.01931 43.2896ZM5.29751 38.4498L1.92245 40.3478L1.92247 40.3479L5.29751 38.4498ZM8.12903 32.513L6.55905 28.9734L6.55902 28.9734L8.12903 32.513ZM14.4552 29.707L16.0252 33.2466L16.0252 33.2466L14.4552 29.707ZM17.7593 25.8001L13.8981 25.509L13.8981 25.509L17.7593 25.8001ZM18.1485 20.6389L14.2873 20.3477L14.2873 20.3477L18.1485 20.6389ZM24.2966 15.9872L24.7116 19.8371L24.7117 19.8371L24.2966 15.9872ZM31.6908 15.1901L31.2758 11.3403L31.2758 11.3403L31.6908 15.1901ZM37.0629 12.5256L40.1707 14.8353L40.1707 14.8353L37.0629 12.5256ZM40.4628 7.95079L43.5707 10.2605L43.5707 10.2605L40.4628 7.95079ZM48.8819 5.39722L49.5824 1.58895L49.5824 1.58895L48.8819 5.39722ZM56.0765 6.7205L56.777 2.91223L56.777 2.91223L56.0765 6.7205ZM62.5951 5.77464L60.7161 2.38896L60.7161 2.38896L62.5951 5.77464ZM70.2654 5.94628C71.7826 5.10424 74.2178 5.10432 75.7347 5.94622L79.4929 -0.825027C75.6384 -2.96438 70.3619 -2.9643 66.5074 -0.825092L70.2654 5.94628ZM75.7347 5.94626L81.5258 9.16031L85.2839 2.38898L79.4928 -0.82507L75.7347 5.94626ZM81.5264 9.16061C84.219 10.6545 87.5728 11.0901 90.6243 10.5287L89.2232 2.91225C87.7356 3.18591 86.2363 2.91737 85.2834 2.38868L81.5264 9.16061ZM90.6242 10.5288L97.8191 9.20549L96.4182 1.58894L89.2234 2.91222L90.6242 10.5288ZM97.8191 9.20549C100.22 8.76387 102.021 9.70974 102.43 10.2608L108.645 5.64079C105.931 1.98857 100.7 0.801521 96.4182 1.58894L97.8191 9.20549ZM102.43 10.2604L105.829 14.8352L112.045 10.2161L108.646 5.64122L102.43 10.2604ZM105.83 14.836C107.717 17.374 110.859 18.7127 113.894 19.04L114.724 11.3403C113.129 11.1683 112.275 10.5246 112.045 10.2153L105.83 14.836ZM113.894 19.0399L121.289 19.8371L122.119 12.1374L114.724 11.3403L113.894 19.0399ZM121.289 19.8371C122.403 19.9572 123.204 20.3202 123.653 20.6596C124.108 21.0039 124.007 21.146 123.99 20.9299L131.713 20.3479C131.52 17.7876 130.048 15.7874 128.325 14.4838C126.596 13.1753 124.412 12.3846 122.119 12.1374L121.289 19.8371ZM123.99 20.93L124.38 26.0912L132.102 25.5091L131.713 20.3478L123.99 20.93ZM124.38 26.0914C124.643 29.5878 127.233 32.0303 129.976 33.2466L133.115 26.1674C132.581 25.9304 132.29 25.6758 132.161 25.5225C132.039 25.379 132.092 25.3715 132.102 25.5089L124.38 26.0914ZM129.975 33.2466L136.302 36.0526L139.442 28.9734L133.115 26.1674L129.975 33.2466ZM136.301 36.0524C137.11 36.4111 137.319 36.7787 137.333 36.8077C137.336 36.8129 137.311 36.7571 137.314 36.6603C137.317 36.5608 137.346 36.5186 137.328 36.5517L144.078 40.348C145.318 38.1429 145.36 35.6478 144.323 33.4742C143.335 31.4008 141.514 29.8928 139.442 28.9735L136.301 36.0524ZM137.327 36.552L134.606 41.3918L141.356 45.1875L144.078 40.3477L137.327 36.552ZM134.606 41.3911C132.851 44.5123 133.557 48.005 135.863 50.431L141.476 45.0957C141.392 45.0072 141.36 44.9503 141.352 44.9355C141.345 44.9223 141.358 44.9425 141.366 44.9934C141.374 45.0457 141.372 45.1019 141.363 45.151C141.354 45.199 141.342 45.212 141.356 45.1881L134.606 41.3911ZM135.864 50.4318L139.995 54.7765L145.607 49.4397L141.475 45.095L135.864 50.4318ZM139.995 54.7759C140.12 54.9081 140.131 54.968 140.119 54.9325C140.104 54.8908 140.093 54.8149 140.105 54.7346C140.117 54.6592 140.138 54.6549 140.093 54.7199C140.045 54.789 139.922 54.9356 139.659 55.1151L144.028 61.5098C145.921 60.2166 147.392 58.2952 147.759 55.9158C148.135 53.4779 147.254 51.1721 145.608 49.4403L139.995 54.7759ZM139.659 55.1152L134.308 58.7707L138.677 65.1653L144.028 61.5097L139.659 55.1152ZM134.308 58.7708C131.741 60.525 129.858 63.5852 130.683 67.1287L138.226 65.3721C138.236 65.4152 138.24 65.4717 138.233 65.5294C138.227 65.5854 138.213 65.6128 138.216 65.6073C138.223 65.5925 138.319 65.4099 138.677 65.1652L134.308 58.7708ZM130.683 67.1281L131.874 72.2441L139.416 70.4887L138.226 65.3727L130.683 67.1281ZM131.874 72.2432C131.858 72.1746 131.861 72.0895 131.878 72.0274C131.892 71.9772 131.895 72.0142 131.804 72.1211C131.608 72.3528 131.081 72.7698 130.076 73.0334L132.04 80.5245C134.248 79.9456 136.284 78.8136 137.712 77.1282C139.18 75.3965 140.008 73.0311 139.417 70.4896L131.874 72.2432ZM130.076 73.0332L123.061 74.8712L125.024 82.3626L132.039 80.5247L130.076 73.0332ZM123.061 74.8713C120.154 75.6331 117.207 77.4839 116.003 80.5692L123.217 83.3856C123.209 83.4057 123.265 83.2534 123.572 83.0204C123.876 82.7899 124.358 82.5373 125.024 82.3626L123.061 74.8713ZM116.003 80.5694L114.06 85.5458L121.275 88.3618L123.217 83.3854L116.003 80.5694ZM114.06 85.5463C114.066 85.5315 113.921 85.8633 113.189 86.2257C112.49 86.5713 111.496 86.8109 110.363 86.7696L110.081 94.5087C112.399 94.5931 114.684 94.1266 116.624 93.1663C118.53 92.2229 120.382 90.6492 121.275 88.3613L114.06 85.5463ZM110.363 86.7696L102.91 86.4983L102.629 94.2375L110.081 94.5087L110.363 86.7696ZM102.911 86.4984C99.8213 86.3858 96.5492 87.2622 94.1889 89.2595L99.1914 95.1712C99.7745 94.6778 101.027 94.1792 102.629 94.2375L102.911 86.4984ZM94.1885 89.2598L89.4888 93.2377L94.492 99.1488L99.1918 95.1709L94.1885 89.2598ZM89.4889 93.2376C88.537 94.0432 86.2606 94.5487 84.2439 93.8442L81.6899 101.155C85.8388 102.605 91.1018 102.018 94.4919 99.1489L89.4889 93.2376ZM84.244 93.8442L77.6112 91.5269L75.057 98.8379L81.6897 101.155L84.244 93.8442ZM77.6104 91.5267C74.6911 90.5074 71.3092 90.5074 68.3899 91.5267L70.9428 98.8381C72.209 98.396 73.7912 98.396 75.0577 98.8381L77.6104 91.5267ZM68.3893 91.5269L61.7561 93.8442L64.3102 101.155L70.9434 98.8379L68.3893 91.5269ZM61.7559 93.8443C59.74 94.5486 57.4635 94.0433 56.5117 93.2377L51.5085 99.1489C54.8986 102.018 60.1618 102.605 64.3104 101.155L61.7559 93.8443ZM56.5117 93.2377L51.8118 89.2597L46.8086 95.1709L51.5085 99.1489L56.5117 93.2377ZM51.8116 89.2595C49.4513 87.2622 46.1791 86.3858 43.09 86.4984L43.372 94.2375C44.9735 94.1792 46.2259 94.6778 46.8089 95.1711L51.8116 89.2595ZM43.0902 86.4983L35.6375 86.7696L35.9191 94.5087L43.3718 94.2375L43.0902 86.4983ZM35.6374 86.7696C34.5039 86.8109 33.5101 86.5713 32.8119 86.2257C32.0797 85.8633 31.9343 85.5314 31.9401 85.5461L24.7257 88.3615C25.6185 90.6493 27.4705 92.2229 29.3765 93.1663C31.3165 94.1266 33.6018 94.5931 35.9192 94.5087L35.6374 86.7696ZM31.9399 85.5457L29.9972 80.5693L22.7832 83.3855L24.7258 88.3619L31.9399 85.5457ZM29.9973 80.5695C28.7931 77.4841 25.8466 75.6331 22.9397 74.8713L20.9763 82.3626C21.6429 82.5373 22.1244 82.7899 22.4283 83.0203C22.7356 83.2532 22.7909 83.4055 22.7831 83.3853L29.9973 80.5695ZM22.9393 74.8712L15.924 73.0332L13.9613 80.5247L20.9767 82.3627L22.9393 74.8712ZM15.9245 73.0334C14.9189 72.7698 14.3922 72.3527 14.1959 72.1211C14.1055 72.0144 14.1084 71.9776 14.1225 72.028C14.1399 72.0902 14.1429 72.1755 14.127 72.2441L6.58423 70.4887C5.99275 73.0304 6.82015 75.3962 8.28797 77.1281C9.71645 78.8137 11.7525 79.9457 13.9608 80.5245L15.9245 73.0334ZM14.127 72.244L15.3174 67.128L7.77462 65.3729L6.5842 70.4889L14.127 72.244ZM15.3174 67.1279C16.1416 63.5854 14.2604 60.5254 11.692 58.7707L7.32346 65.1653C7.68151 65.4099 7.77729 65.5924 7.78438 65.6073C7.78698 65.6127 7.77357 65.5855 7.76702 65.5297C7.76026 65.4721 7.76463 65.4158 7.7746 65.373L15.3174 67.1279ZM11.6919 58.7707L6.34076 55.1151L1.97237 61.5098L7.32351 65.1653L11.6919 58.7707ZM6.34097 55.1153C6.07831 54.9358 5.95544 54.7892 5.90777 54.7201C5.86286 54.6551 5.8836 54.6595 5.89522 54.7348C5.90762 54.8152 5.89608 54.8911 5.88174 54.9328C5.86953 54.9682 5.87997 54.9083 6.00567 54.7761L0.393121 49.4401C-1.25337 51.1719 -2.13464 53.4777 -1.75852 55.9156C-1.39144 58.295 0.0794412 60.2165 1.97216 61.5096L6.34097 55.1153ZM6.00554 54.7762L10.1366 50.4315L4.52433 45.0952L0.393249 49.4399L6.00554 54.7762ZM10.1366 50.4315C12.4439 48.005 13.1492 44.5121 11.3944 41.3916L4.64425 45.1876C4.65774 45.2116 4.64634 45.1988 4.63721 45.1509C4.62788 45.1019 4.62663 45.0456 4.63468 44.9934C4.64253 44.9424 4.65497 44.9221 4.64818 44.9352C4.64062 44.9499 4.60845 45.0067 4.52436 45.0952L10.1366 50.4315ZM11.3944 41.3916L8.67255 36.5518L1.92247 40.3479L4.64427 45.1877L11.3944 41.3916ZM8.67257 36.5518C8.65394 36.5187 8.68343 36.5609 8.6865 36.6603C8.68949 36.7572 8.66442 36.813 8.66686 36.8079C8.68067 36.7789 8.89025 36.4113 9.69904 36.0525L6.55902 28.9734C4.48662 29.8926 2.66583 31.4005 1.67688 33.4741C0.640155 35.6478 0.682443 38.1429 1.92245 40.3478L8.67257 36.5518ZM9.69901 36.0526L16.0252 33.2466L12.8852 26.1674L6.55905 28.9734L9.69901 36.0526ZM16.0252 33.2466C18.7681 32.03 21.3569 29.5872 21.6204 26.0913L13.8981 25.509C13.9084 25.3719 13.9606 25.3795 13.8394 25.5229C13.7099 25.676 13.4193 25.9305 12.8852 26.1674L16.0252 33.2466ZM21.6204 26.0913L22.0097 20.9301L14.2873 20.3477L13.8981 25.509L21.6204 26.0913ZM22.0097 20.9301C21.9934 21.1459 21.8926 21.0038 22.3475 20.6596C22.7961 20.3202 23.5975 19.9572 24.7116 19.8371L23.8816 12.1374C21.5886 12.3846 19.4043 13.1753 17.6749 14.4838C15.9517 15.7875 14.4804 17.7876 14.2873 20.3477L22.0097 20.9301ZM24.7117 19.8371L32.1058 19.0399L31.2758 11.3403L23.8816 12.1374L24.7117 19.8371ZM32.1058 19.04C35.1412 18.7127 38.2838 17.3743 40.1707 14.8353L33.955 10.2159C33.7258 10.5243 32.8715 11.1682 31.2758 11.3403L32.1058 19.04ZM40.1707 14.8353L43.5707 10.2605L37.355 5.64106L33.955 10.2159L40.1707 14.8353ZM43.5707 10.2605C43.9799 9.7099 45.7802 8.76383 48.1815 9.20548L49.5824 1.58895C45.3014 0.801555 40.0696 1.98841 37.355 5.64107L43.5707 10.2605ZM48.1815 9.20548L55.3761 10.5288L56.777 2.91223L49.5824 1.58895L48.1815 9.20548ZM55.3761 10.5288C58.4277 11.09 61.7817 10.6546 64.4741 9.16032L60.7161 2.38896C59.7643 2.91722 58.2653 3.18598 56.777 2.91223L55.3761 10.5288ZM64.4741 9.16033L70.2654 5.94628L66.5074 -0.825091L60.7161 2.38896L64.4741 9.16033Z" fill="white" mask="url(#path-2-inside-1_1442_4610)"/>
</g>
<path d="M49.6333 52.0104H53.2008V56.5414C53.2008 57.8087 52.9751 58.6941 52.5238 59.1975C52.0724 59.6836 51.3259 59.9266 50.2843 59.9266H47.8626C46.7863 59.9266 45.9964 59.6662 45.4929 59.1454C44.9895 58.6246 44.7378 57.7566 44.7378 56.5414V41.5943C44.7378 40.327 44.9634 39.4503 45.4148 38.9643C45.8662 38.4608 46.6127 38.2091 47.6543 38.2091H50.05C51.1437 38.2091 51.9422 38.4695 52.4457 38.9903C52.9491 39.4937 53.2008 40.3618 53.2008 41.5943V45.3702H49.6333V41.5943C49.6333 41.3686 49.5726 41.2037 49.451 41.0996C49.3295 40.978 49.1993 40.9173 49.0604 40.9173C48.9216 40.9173 48.7827 40.978 48.6438 41.0996C48.5049 41.2037 48.4355 41.3686 48.4355 41.5943V56.5414C48.4355 56.7497 48.4962 56.9146 48.6178 57.0362C48.7566 57.1403 48.8955 57.1924 49.0344 57.1924C49.1733 57.1924 49.3035 57.1403 49.425 57.0362C49.5639 56.9146 49.6333 56.7497 49.6333 56.5414V52.0104ZM63.1252 59.6923H59.4015V51.9583C59.4015 51.75 59.332 51.5938 59.1931 51.4896C59.0716 51.3681 58.9414 51.3073 58.8025 51.3073H58.2036V59.6923H54.5059V38.4955H59.9743C61.0507 38.4955 61.8405 38.7559 62.344 39.2767C62.8648 39.7802 63.1252 40.6482 63.1252 41.8808V46.568C63.1252 47.6443 62.9603 48.4342 62.6304 48.9377C62.318 49.4411 61.7971 49.7623 61.068 49.9011C61.7971 50.0227 62.318 50.3438 62.6304 50.8646C62.9603 51.3681 63.1252 52.1493 63.1252 53.2083V59.6923ZM59.4015 41.8808C59.4015 41.6551 59.3407 41.4902 59.2192 41.386C59.0976 41.2645 58.9674 41.2037 58.8286 41.2037H58.2036V48.5471H58.8025C58.9414 48.5471 59.0716 48.495 59.1931 48.3908C59.332 48.2693 59.4015 48.1044 59.4015 47.8961V41.8808ZM71.0347 59.6923H64.5507V38.4955H71.0347V41.36H68.2484V47.4794H70.7743V50.3438H68.2484V56.8278H71.0347V59.6923ZM73.5331 38.4955H79.1318L81.1629 59.6923H77.6215L77.2048 54.354H75.382L74.9914 59.6923H71.4239L73.5331 38.4955ZM75.5903 51.4896H76.9965L76.2934 42.1412L75.5903 51.4896ZM82.6667 41.36H80.6356V38.4955H88.4216V41.36H86.3905V59.6923H82.6667V41.36ZM95.956 59.6923H89.472V38.4955H95.956V41.36H93.1697V47.4794H95.6956V50.3438H93.1697V56.8278H95.956V59.6923ZM96.7358 38.4955H100.668L99.8866 55.3696H97.517L96.7358 38.4955ZM100.407 59.6923H96.9962V56.5414H100.407V59.6923Z" fill="white"/>
<path d="M44.0868 62.9473H101.058V64.2493H44.0868V62.9473Z" fill="white"/>
<path d="M116.955 41.9735V46.0129L120.653 44.7613L121.791 47.7197L118.093 49.2558L120.425 52.5555L117.922 54.433L115.362 51.0763L112.915 54.433L110.298 52.5555L112.631 49.142L108.876 47.7197L109.957 44.7613L113.826 46.0129V41.9735H116.955Z" fill="#FED03C"/>
<path d="M32.2921 41.9735V46.0129L35.9901 44.7613L37.1279 47.7197L33.4299 49.2558L35.7625 52.5555L33.2593 54.433L30.6991 51.0763L28.2527 54.433L25.6356 52.5555L27.9682 49.142L24.2133 47.7197L25.2943 44.7613L29.163 46.0129V41.9735H32.2921Z" fill="#FED03C"/>
</g>
<defs>
<clipPath id="clip0_1442_4610">
<rect width="146" height="99.3491" fill="white"/>
</clipPath>
</defs>
</svg>
