<svg width="91" height="67" viewBox="0 0 91 67" fill="none" xmlns="http://www.w3.org/2000/svg">
<ellipse cx="44.5" cy="34.5" rx="30.5" ry="29.5" fill="#4D78E7"/>
<path d="M75.33 26.79C72.14 40.37 39 57.84 30.31 60.14C30.1798 60.1837 30.0411 60.1956 29.9054 60.1748C29.7697 60.1539 29.641 60.1008 29.53 60.02L26 57.12C26 57.12 52.89 44 57.61 39.46C62.33 34.92 75.05 25.77 75.05 25.77L75.33 26.79Z" fill="black"/>
<path d="M25.0001 60.83C22.7362 59.3492 20.6434 57.622 18.7601 55.68C16.9029 53.692 15.3037 51.4779 14.0001 49.09C11.4116 44.2727 10.1811 38.8425 10.4401 33.38C10.5108 31.4134 10.7483 29.4564 11.1501 27.53C11.5315 25.6064 12.1078 23.7267 12.8701 21.92C15.5489 15.5681 19.995 10.1189 25.6801 6.21998C28.5095 4.3015 31.6107 2.81833 34.8801 1.81998C35.7101 1.61998 36.5201 1.34998 37.3601 1.20998L39.8901 0.75998L42.4301 0.569979C43.2801 0.489979 44.1301 0.569979 44.9701 0.569979H46.1001L47.2201 0.689979C47.9601 0.779979 48.7101 0.819979 49.4501 0.939979C50.9218 1.18784 52.3776 1.52175 53.8101 1.93998C55.2334 2.34651 56.6324 2.83397 58.0001 3.39998C58.6901 3.67998 59.3401 4.02998 60.0001 4.33998C60.6876 4.63006 61.3556 4.96409 62.0001 5.33998C65.3708 7.18768 68.3684 9.64615 70.8401 12.59C73.3082 15.5898 74.9614 19.1751 75.6401 23C75.6401 24.22 75.5401 24.75 75.2801 24.77C75.0201 24.79 74.5801 24.3 73.8201 23.55L67.8201 16.64C63.4837 11.5658 57.6035 8.05313 51.0801 6.63998C47.8442 5.86632 44.5098 5.58649 41.1901 5.80998C39.5398 5.94926 37.904 6.2269 36.3001 6.63998C34.6744 7.10102 33.0864 7.68607 31.5501 8.38998C27.8196 10.2191 24.5539 12.8727 22.0001 16.15C19.3736 19.4988 17.4394 23.3366 16.3101 27.44C15.0039 31.9046 14.8764 36.6314 15.9401 41.16C17.058 45.71 19.4113 49.8628 22.7401 53.16C24.8134 55.2295 27.1703 56.9938 29.7401 58.4C32.3086 59.832 35.0805 60.8638 37.9601 61.46C42.2704 62.4125 46.749 62.2889 51.0001 61.1C55.27 59.7646 59.2519 57.6413 62.7401 54.84C65.3278 52.6218 67.525 49.9852 69.2401 47.04C70.8886 44.1104 72.1045 40.9578 72.8501 37.68L73.1001 36.61C73.1701 36.25 73.2101 35.89 73.2701 35.53C73.3601 34.81 73.5301 34.09 73.5801 33.36C73.9501 30.63 73.8501 28.87 74.0701 27.61C74.1617 27.0638 74.2954 26.5255 74.4701 26C74.6801 25.54 74.8601 25.18 75.0401 24.82C75.2201 24.46 75.3301 24.07 75.4601 23.82C75.7001 23.45 76.0801 23.77 76.8701 24.82C77.5775 25.8685 78.0326 27.0664 78.2001 28.32C78.3003 28.8749 78.3604 29.4364 78.3801 30C78.5691 33.474 78.232 36.9567 77.3801 40.33C76.46 43.7901 75.0347 47.0957 73.1501 50.14C72.1543 51.6661 71.0515 53.1198 69.8501 54.49C69.26 55.19 68.6324 55.8577 67.9701 56.49L65.9001 58.31L65.3901 58.77L64.8301 59.17L63.7001 60C62.9401 60.51 62.2201 61.1 61.4201 61.53L59.0001 62.8C58.6001 63.01 58.2001 63.24 57.7901 63.43L56.5201 63.94L54.6501 64.7C54.02 64.9714 53.3718 65.1986 52.7101 65.38C52.0301 65.57 51.3501 65.78 50.7101 65.94L48.6401 66.31C45.8895 66.7028 43.0994 66.7365 40.3401 66.41C34.8951 65.6959 29.6652 63.8276 25.0001 60.93V60.83Z" fill="black"/>
<path d="M66.4992 36.11C60.893 40.4829 54.8863 44.3166 48.5592 47.56C46.2692 48.73 43.9992 50 41.7092 51C37.6292 52.9 33.4859 54.6734 29.2792 56.32C25.0379 57.9574 20.6956 59.3202 16.2792 60.4C14.3041 60.9157 12.3007 61.3163 10.2792 61.6C9.22854 61.7378 8.16794 61.7846 7.10922 61.74C5.96065 61.7206 4.8279 61.4689 3.77922 61C3.00813 60.6333 2.34626 60.0714 1.85922 59.37C1.39091 58.6583 1.09634 57.8465 0.999217 57C0.902391 56.2099 0.936175 55.4092 1.09922 54.63C1.26932 53.9058 1.52442 53.2043 1.85922 52.54C3.12627 50.0128 5.19854 47.9792 7.74922 46.76C8.56922 46.39 9.05922 46.5 9.12922 46.76C9.19922 47.02 8.96922 47.57 8.63922 48.24C8.30922 48.91 7.84922 49.72 7.33922 50.68C7.07922 51.14 6.83922 51.68 6.54922 52.15L5.59922 53.69C5.09252 54.415 4.76991 55.2525 4.65922 56.13C4.63565 56.4673 4.67291 56.806 4.76922 57.13C4.82784 57.3414 4.95434 57.5276 5.12922 57.66C5.82942 58.103 6.64068 58.3387 7.46922 58.34C8.6087 58.3903 9.75039 58.3334 10.8792 58.17C12.0692 58.02 13.2792 57.79 14.4892 57.52C15.6992 57.25 16.8992 56.83 18.0992 56.45C20.4992 55.67 22.8992 54.81 25.2992 53.91C31.1923 51.685 36.9431 49.1001 42.5192 46.17C45.6392 44.62 48.6992 43.06 51.6492 41.29C54.5992 39.52 57.4892 37.62 60.2692 35.58C63.7017 33.0667 66.9902 30.3624 70.1192 27.48C72.4792 25.26 74.7792 23 76.9992 20.62C78.0892 19.44 79.1492 18.21 80.2592 16.99C81.3692 15.77 82.4092 14.59 83.3492 13.35C84.0757 12.4182 84.7025 11.4127 85.2192 10.35C85.3392 10.09 85.4692 9.84003 85.5592 9.58003L85.7092 9.20003C85.7439 9.10828 85.774 9.01483 85.7992 8.92003C85.8905 8.62153 85.9409 8.31206 85.9492 8.00003C85.9468 7.85253 85.9081 7.70789 85.8366 7.57885C85.7651 7.44981 85.663 7.34033 85.5392 7.26003C85.2875 7.114 85.0001 7.04126 84.7092 7.05003C84.373 7.06687 84.0386 7.11034 83.7092 7.18003C83.183 7.27325 82.6696 7.42763 82.1792 7.64003C81.2729 8.02103 80.4166 8.51133 79.6292 9.10003C78.4598 9.7382 77.2468 10.2929 75.9992 10.76C75.5932 10.8556 75.1761 10.896 74.7592 10.88C74.3693 10.8117 73.9849 10.7148 73.6092 10.59C73.2792 10.48 72.9092 10.44 72.6792 10.33C72.2792 10.15 72.3192 9.69003 72.5892 8.76003C73.0535 7.53526 73.8892 6.48632 74.9792 5.76003C77.0299 4.19889 79.4345 3.16838 81.9792 2.76003C82.7191 2.56547 83.4759 2.44158 84.2392 2.39003C85.3007 2.30647 86.3683 2.43566 87.3792 2.77003C88.35 3.10007 89.2022 3.70873 89.8292 4.52003C90.4413 5.35163 90.7707 6.35748 90.7692 7.39003C90.7092 8.47473 90.4832 9.54381 90.0992 10.56C90.0356 10.7681 89.9588 10.9718 89.8692 11.17L89.6592 11.66C89.5092 11.99 89.3492 12.29 89.1892 12.61C88.5627 13.8036 87.8297 14.9382 86.9992 16C85.4392 18 83.7392 19.78 82.2492 21.45C77.4598 26.8021 72.217 31.7304 66.5792 36.18L66.4992 36.11Z" fill="black"/>
<path d="M34.3087 27.93C33.8905 28.1884 33.4484 28.406 32.9887 28.58C32.5429 28.7068 32.0883 28.8004 31.6287 28.86C30.7862 28.9342 29.9372 28.8631 29.1187 28.65L28.2487 28.43C27.9524 28.3263 27.6648 28.1992 27.3887 28.05C26.3961 27.4801 25.6246 26.5923 25.1987 25.53C24.9989 25.0165 24.8939 24.471 24.8887 23.92C24.8887 23.65 24.8887 23.39 24.9787 23.14L25.1787 22.4C25.4619 21.5856 25.9076 20.8371 26.4887 20.2C27.1643 19.3736 28.1375 18.8457 29.1987 18.73C29.5187 18.73 29.5287 18.98 29.3987 19.36C29.2549 19.7867 29.0232 20.1784 28.7187 20.51C28.4323 20.7439 28.1916 21.0286 28.0087 21.35C27.835 21.6447 27.7101 21.9655 27.6387 22.3C27.567 22.5979 27.5334 22.9037 27.5387 23.21C27.5587 23.4963 27.5587 23.7837 27.5387 24.07C27.5387 24.8 28.2387 25.28 29.0087 25.57C29.897 25.9486 30.8934 25.9877 31.8087 25.68C32.3087 25.4585 32.7254 25.0838 32.9987 24.61C33.2283 24.22 33.3728 23.7858 33.4228 23.336C33.4728 22.8862 33.4271 22.4309 33.2887 22C33.044 21.3359 32.6179 20.7538 32.0587 20.32C31.9244 20.245 31.7972 20.158 31.6787 20.06C31.492 19.8936 31.359 19.6755 31.2966 19.4333C31.2343 19.1911 31.2455 18.9358 31.3287 18.7C31.3287 18.56 31.3787 18.41 31.4087 18.27C31.5287 17.82 31.9787 17.59 32.7287 17.65C33.896 17.8504 34.9569 18.4516 35.7287 19.35C36.1486 19.8278 36.4865 20.3718 36.7287 20.96C36.8087 21.27 36.8787 21.59 36.9287 21.91C36.9787 22.23 36.9287 22.57 36.9787 22.91C36.9663 23.9034 36.7232 24.8804 36.2685 25.7637C35.8138 26.6471 35.16 27.4127 34.3587 28L34.3087 27.93Z" fill="black"/>
</svg>
