<svg width="61" height="61" viewBox="0 0 61 61" fill="none" xmlns="http://www.w3.org/2000/svg">
    <path
        d="M58.2724 33.6738L55.892 43.989L50.3376 49.5433L40.8159 56.6846L21.7724 55.8912L9.87024 43.989L5.10938 38.4346V18.5977C8.54778 15.9528 15.5833 10.5042 16.2181 9.86943C16.8529 9.23465 24.9463 5.37306 28.9137 3.52161C30.7652 5.63755 34.6268 10.1868 35.2615 11.4564C35.8963 12.726 39.2289 15.1593 40.8159 16.2173L46.3702 19.3912L48.7507 23.3586C49.8086 24.9455 52.0833 28.2781 52.7181 28.9129C53.3529 29.5477 56.6855 32.3513 58.2724 33.6738Z"
        fill="#FF9356" stroke="black" stroke-width="1.58696" />
    <path
        d="M30.4987 60.9171C26.2911 60.9171 22.3369 60.1186 18.6362 58.5218C14.9355 56.9249 11.7164 54.7577 8.97891 52.0202C6.24141 49.2827 4.07422 46.0636 2.47734 42.3629C0.880469 38.6622 0.0820312 34.708 0.0820312 30.5004C0.0820312 26.6983 0.8171 22.9723 2.28724 19.3223C3.75738 15.6723 5.8105 12.4152 8.44661 9.55092C11.0827 6.68668 14.2511 4.38009 17.9518 2.63113C21.6525 0.88217 25.7081 0.00769043 30.1185 0.00769043C31.1831 0.00769043 32.273 0.0583849 33.3883 0.159774C34.5036 0.261163 35.6442 0.438593 36.8102 0.692065C36.3539 2.97332 36.506 5.12783 37.2664 7.15561C38.0268 9.18338 39.1674 10.869 40.6883 12.2124C42.2091 13.5558 44.0214 14.481 46.1253 14.9879C48.2291 15.4948 50.3963 15.3681 52.6268 14.6077C51.3088 17.5987 51.4989 20.4629 53.1971 23.2004C54.8954 25.9379 57.4174 27.3573 60.7633 27.4587C60.814 28.0164 60.852 28.536 60.8773 29.0176C60.9027 29.4992 60.9154 30.0188 60.9154 30.5764C60.9154 34.7334 60.1169 38.6495 58.5201 42.3249C56.9232 46.0002 54.756 49.2193 52.0185 51.9822C49.281 54.745 46.0619 56.9249 42.3612 58.5218C38.6605 60.1186 34.7063 60.9171 30.4987 60.9171ZM25.9362 24.4171C27.2036 24.4171 28.2808 23.9735 29.168 23.0863C30.0551 22.1992 30.4987 21.1219 30.4987 19.8546C30.4987 18.5872 30.0551 17.5099 29.168 16.6228C28.2808 15.7356 27.2036 15.2921 25.9362 15.2921C24.6688 15.2921 23.5916 15.7356 22.7044 16.6228C21.8173 17.5099 21.3737 18.5872 21.3737 19.8546C21.3737 21.1219 21.8173 22.1992 22.7044 23.0863C23.5916 23.9735 24.6688 24.4171 25.9362 24.4171ZM19.8529 39.6254C21.1202 39.6254 22.1975 39.1818 23.0846 38.2947C23.9718 37.4075 24.4154 36.3303 24.4154 35.0629C24.4154 33.7955 23.9718 32.7183 23.0846 31.8311C22.1975 30.944 21.1202 30.5004 19.8529 30.5004C18.5855 30.5004 17.5082 30.944 16.6211 31.8311C15.7339 32.7183 15.2904 33.7955 15.2904 35.0629C15.2904 36.3303 15.7339 37.4075 16.6211 38.2947C17.5082 39.1818 18.5855 39.6254 19.8529 39.6254ZM39.6237 42.6671C40.4855 42.6671 41.2079 42.3756 41.7909 41.7926C42.3739 41.2096 42.6654 40.4872 42.6654 39.6254C42.6654 38.7636 42.3739 38.0412 41.7909 37.4582C41.2079 36.8752 40.4855 36.5837 39.6237 36.5837C38.7619 36.5837 38.0395 36.8752 37.4565 37.4582C36.8735 38.0412 36.582 38.7636 36.582 39.6254C36.582 40.4872 36.8735 41.2096 37.4565 41.7926C38.0395 42.3756 38.7619 42.6671 39.6237 42.6671ZM30.4987 54.8337C36.6834 54.8337 42.1711 52.7046 46.9617 48.4462C51.7523 44.1879 54.3758 38.7636 54.832 32.1733C52.2973 31.058 50.3076 29.5372 48.8628 27.6108C47.418 25.6844 46.4421 23.5299 45.9352 21.1473C42.0317 20.5896 38.6858 18.9167 35.8977 16.1285C33.1095 13.3403 31.3858 9.9945 30.7268 6.09102C26.6713 5.98963 23.11 6.7247 20.043 8.29623C16.976 9.86776 14.4159 11.8829 12.3628 14.3415C10.3096 16.8002 8.76345 19.4744 7.72422 22.3639C6.68498 25.2535 6.16536 27.9657 6.16536 30.5004C6.16536 37.2428 8.53533 42.9839 13.2753 47.7238C18.0152 52.4638 23.7563 54.8337 30.4987 54.8337Z"
        fill="black" />
</svg>