<svg width="47" height="47" viewBox="0 0 47 47" fill="none" xmlns="http://www.w3.org/2000/svg">
<mask id="path-1-outside-1_1656_12" maskUnits="userSpaceOnUse" x="0" y="0" width="47" height="47" fill="black">
<rect fill="white" width="47" height="47"/>
<path fill-rule="evenodd" clip-rule="evenodd" d="M15.429 31.571C16.8242 38.313 19.9133 43 23.5001 43C27.0869 43 30.1761 38.3129 31.5713 31.571C38.3131 30.1758 43 27.0866 43 23.4999C43 19.9131 38.3131 16.824 31.5712 15.4288C30.176 8.68693 27.0869 4 23.5001 4C19.9134 4 16.8242 8.6869 15.429 15.4287C8.68706 16.8239 4 19.9131 4 23.4999C4 27.0867 8.68703 30.1758 15.429 31.571Z"/>
</mask>
<path fill-rule="evenodd" clip-rule="evenodd" d="M15.429 31.571C16.8242 38.313 19.9133 43 23.5001 43C27.0869 43 30.1761 38.3129 31.5713 31.571C38.3131 30.1758 43 27.0866 43 23.4999C43 19.9131 38.3131 16.824 31.5712 15.4288C30.176 8.68693 27.0869 4 23.5001 4C19.9134 4 16.8242 8.6869 15.429 15.4287C8.68706 16.8239 4 19.9131 4 23.4999C4 27.0867 8.68703 30.1758 15.429 31.571Z" fill="#FF9356"/>
<path d="M15.429 31.571L19.346 30.7604L18.8134 28.1866L16.2396 27.654L15.429 31.571ZM31.5713 31.571L30.7607 27.654L28.1869 28.1866L27.6543 30.7604L31.5713 31.571ZM31.5712 15.4288L27.6542 16.2394L28.1869 18.8131L30.7606 19.3458L31.5712 15.4288ZM15.429 15.4287L16.2396 19.3457L18.8134 18.8131L19.346 16.2393L15.429 15.4287ZM23.5001 39C23.4942 39 23.4743 39.0001 23.4285 38.985C23.379 38.9688 23.2834 38.9293 23.1433 38.8358C22.8499 38.6398 22.423 38.2467 21.9312 37.5365C20.9348 36.0977 19.9735 33.7926 19.346 30.7604L11.512 32.3816C12.2797 36.0914 13.5605 39.5008 15.3542 42.091C17.0963 44.6066 19.8209 47 23.5001 47V39ZM27.6543 30.7604C27.0268 33.7926 26.0655 36.0977 25.0691 37.5365C24.5773 38.2467 24.1504 38.6398 23.8569 38.8358C23.7169 38.9293 23.6213 38.9688 23.5718 38.985C23.526 39.0001 23.506 39 23.5001 39V47C27.1794 47 29.904 44.6066 31.6461 42.091C33.4398 39.5008 34.7206 36.0913 35.4883 32.3815L27.6543 30.7604ZM39 23.4999C39 23.5058 39.0001 23.5257 38.985 23.5715C38.9688 23.621 38.9293 23.7166 38.8358 23.8567C38.6399 24.1501 38.2468 24.5769 37.5365 25.0688C36.0978 26.0651 33.7928 27.0265 30.7607 27.654L32.3819 35.488C36.0916 34.7202 39.501 33.4394 42.0911 31.6457C44.6067 29.9037 47 27.179 47 23.4999H39ZM30.7606 19.3458C33.7928 19.9733 36.0978 20.9346 37.5365 21.9309C38.2467 22.4228 38.6399 22.8497 38.8358 23.1431C38.9293 23.2831 38.9688 23.3787 38.985 23.4282C39.0001 23.474 39 23.494 39 23.4999H47C47 19.8207 44.6066 17.0961 42.0911 15.354C39.5009 13.5603 36.0916 12.2795 32.3819 11.5118L30.7606 19.3458ZM23.5001 8C23.506 8 23.526 7.99995 23.5718 8.01497C23.6213 8.03123 23.7169 8.07072 23.8569 8.16422C24.1503 8.36015 24.5772 8.75325 25.0691 9.46348C26.0654 10.9022 27.0268 13.2072 27.6542 16.2394L35.4882 14.6182C34.7205 10.9084 33.4397 7.49908 31.646 4.90891C29.9039 2.39336 27.1793 0 23.5001 0V8ZM19.346 16.2393C19.9735 13.2072 20.9349 10.9022 21.9312 9.46347C22.4231 8.75325 22.8499 8.36015 23.1433 8.16422C23.2834 8.07072 23.379 8.03123 23.4285 8.01497C23.4743 7.99995 23.4942 8 23.5001 8V0C19.821 0 17.0963 2.39335 15.3543 4.90888C13.5606 7.49905 12.2797 10.9084 11.512 14.6181L19.346 16.2393ZM8 23.4999C8 23.494 7.99995 23.474 8.01498 23.4282C8.03123 23.3787 8.07072 23.2831 8.16423 23.1431C8.36017 22.8496 8.75329 22.4227 9.46354 21.9309C10.9023 20.9345 13.2074 19.9732 16.2396 19.3457L14.6185 11.5117C10.9087 12.2794 7.49924 13.5602 4.90901 15.3539C2.39343 17.096 0 19.8206 0 23.4999H8ZM16.2396 27.654C13.2074 27.0265 10.9023 26.0652 9.46353 25.0688C8.75328 24.577 8.36016 24.1501 8.16423 23.8567C8.07072 23.7166 8.03123 23.621 8.01497 23.5715C7.99995 23.5257 8 23.5058 8 23.4999H0C0 27.1791 2.39341 29.9037 4.90899 31.6458C7.49921 33.4395 10.9086 34.7203 14.6184 35.488L16.2396 27.654Z" fill="black" mask="url(#path-1-outside-1_1656_12)"/>
</svg>
