<svg width="98" height="98" viewBox="0 0 98 98" fill="none" xmlns="http://www.w3.org/2000/svg">
<circle cx="48.9267" cy="48.9272" r="27.8413" transform="rotate(-17.5738 48.9267 48.9272)" fill="#F7A9A0"/>
<g clip-path="url(#clip0_1656_142)">
<path d="M42.7376 77.7415C38.7184 76.8401 35.1123 75.2304 31.9194 72.9122C28.7265 70.5941 26.1158 67.8343 24.0873 64.633C22.0588 61.4316 20.6783 57.8924 19.9457 54.0153C19.2131 50.1382 19.2975 46.1901 20.1989 42.1709C21.1003 38.1516 22.71 34.5456 25.0282 31.3527C27.3463 28.1598 30.1061 25.5491 33.3074 23.5206C36.5088 21.4921 40.048 20.1116 43.9251 19.379C47.8021 18.6464 51.7503 18.7308 55.7695 19.6322C59.7887 20.5335 63.3948 22.1433 66.5877 24.4614C69.7806 26.7796 72.3913 29.5393 74.4198 32.7407C76.4482 35.9421 77.8288 39.4813 78.5614 43.3583C79.294 47.2354 79.2096 51.1836 78.3082 55.2028C77.4068 59.222 75.7971 62.8281 73.4789 66.021C71.1608 69.2139 68.401 71.8246 65.1997 73.853C61.9983 75.8815 58.4591 77.2621 54.582 77.9947C50.705 78.7273 46.7568 78.6429 42.7376 77.7415ZM44.0408 71.9306C50.4812 73.3749 56.473 72.341 62.0161 68.8287C67.5592 65.3164 71.0529 60.34 72.4973 53.8996C73.9416 47.4591 72.9077 41.4674 69.3954 35.9243C65.8831 30.3812 60.9068 26.8875 54.4663 25.4431C48.0259 23.9987 42.0341 25.0327 36.491 28.545C30.9479 32.0572 27.4542 37.0336 26.0098 43.4741C24.5654 49.9145 25.5994 55.9063 29.1117 61.4494C32.624 66.9925 37.6003 70.4862 44.0408 71.9306ZM54.3285 46.4682L55.9767 45.9224C55.8129 47.1063 56.0558 48.1779 56.7052 49.1373C57.3547 50.0968 58.2605 50.7068 59.4227 50.9674C60.6333 51.2389 61.7573 51.046 62.7948 50.3886C63.8323 49.7312 64.4868 48.7972 64.7583 47.5866C64.9212 46.8602 64.9064 46.1322 64.7141 45.4024C64.5217 44.6727 64.1784 44.049 63.6842 43.5312L65.8171 42.8652L64.9345 39.9971L53.4622 43.5275L54.3285 46.4682ZM45.6121 44.5134L47.6513 42.2243L38.7853 34.1328L36.7625 36.3493L38.4067 37.8624C37.7387 38.1194 37.1619 38.5368 36.6763 39.1145C36.1907 39.6922 35.8665 40.3443 35.7036 41.0707C35.4321 42.2813 35.625 43.4053 36.2824 44.4428C36.9398 45.4803 37.8738 46.1347 39.0844 46.4062C40.2466 46.6669 41.3262 46.5021 42.3232 45.9119C43.3201 45.3218 43.9974 44.4565 44.3548 43.316L45.6121 44.5134ZM48.6019 51.5923C45.1638 50.8212 41.8902 51.2442 38.7812 52.861C35.6721 54.4779 33.2103 56.8375 31.3956 59.9399L60.5955 66.4884C60.2795 62.9082 59.0611 59.7232 56.9403 56.9335C54.8195 54.1438 52.0401 52.3634 48.6019 51.5923Z" fill="black"/>
</g>
<defs>
<clipPath id="clip0_1656_142">
<rect width="71.4632" height="71.4632" fill="white" transform="translate(22.207 6.0022) rotate(12.6403)"/>
</clipPath>
</defs>
</svg>
