<svg width="73" height="73" viewBox="0 0 73 73" fill="none" xmlns="http://www.w3.org/2000/svg">
<circle cx="36.4041" cy="36.4032" r="25.3571" transform="rotate(15.4722 36.4041 36.4032)" fill="#FF9356"/>
<ellipse cx="34.5847" cy="43.9029" rx="8.708" ry="6.7176" transform="rotate(15.4722 34.5847 43.9029)" fill="#302244"/>
<path d="M24.998 33.2464L23.4196 38.9487C22.5515 42.0849 22.925 45.0788 24.5402 47.9304C26.1553 50.782 28.531 52.6418 31.6673 53.5099C34.8035 54.3781 37.7974 54.0045 40.649 52.3893C43.5006 50.7742 45.3604 48.3985 46.2286 45.2622L47.807 39.56L24.998 33.2464ZM32.8511 49.2333C30.8553 48.6808 29.3591 47.5249 28.3625 45.7654C27.3659 44.0059 27.1438 42.1282 27.6963 40.1325L28.0909 38.7069L42.3465 42.6529L41.9519 44.0784C41.3994 46.0742 40.2435 47.5704 38.484 48.567C36.7245 49.5636 34.8469 49.7857 32.8511 49.2333ZM30.3695 19.3854C28.5638 18.8856 26.7792 19.095 25.0157 20.0138C23.2522 20.9325 21.7696 22.4534 20.568 24.5765L24.4259 26.7187C25.053 25.5621 25.8012 24.7077 26.6703 24.1553C27.5394 23.6029 28.3779 23.4385 29.1857 23.6621C29.9935 23.8857 30.6281 24.4578 31.0895 25.3785C31.5509 26.2992 31.7532 27.4167 31.6963 28.7312L36.1066 28.8776C36.1678 26.4389 35.6783 24.3721 34.6382 22.6773C33.5981 20.9825 32.1752 19.8852 30.3695 19.3854ZM50.3274 24.9098C48.5217 24.4099 46.7371 24.6194 44.9735 25.5382C43.21 26.4569 41.7275 27.9778 40.5259 30.1009L44.3838 32.2431C45.0109 31.0865 45.759 30.232 46.6281 29.6796C47.4973 29.1272 48.3358 28.9629 49.1436 29.1865C49.9514 29.4101 50.586 29.9822 51.0474 30.9029C51.5088 31.8236 51.711 32.9411 51.6542 34.2555L56.0645 34.402C56.1256 31.9632 55.6362 29.8965 54.5961 28.2017C53.556 26.5069 52.1331 25.4096 50.3274 24.9098ZM28.5105 64.9144C24.5664 63.8227 21.0671 62.0483 18.0126 59.5913C14.9581 57.1343 12.5029 54.2676 10.6472 50.9913C8.79147 47.715 7.59528 44.1353 7.05863 40.2521C6.52198 36.3689 6.79951 32.4553 7.89123 28.5112C8.98296 24.5672 10.7573 21.0679 13.2144 18.0133C15.6714 14.9588 18.538 12.5037 21.8143 10.6479C25.0906 8.7922 28.6704 7.59601 32.5536 7.05936C36.4368 6.52271 40.3504 6.80025 44.2944 7.89197C48.2385 8.98369 51.7378 10.7581 54.7923 13.2151C57.8469 15.6721 60.302 18.5388 62.1577 21.8151C64.0135 25.0914 65.2097 28.6711 65.7463 32.5543C66.283 36.4375 66.0054 40.3511 64.9137 44.2952C63.822 48.2392 62.0476 51.7385 59.5906 54.7931C57.1335 57.8476 54.2669 60.3027 50.9906 62.1585C47.7143 64.0142 44.1346 65.2104 40.2514 65.747C36.3682 66.2837 32.4545 66.0062 28.5105 64.9144ZM30.0889 59.2122C36.4564 60.9747 42.4614 60.258 48.1039 57.062C53.7464 53.866 57.4489 49.0843 59.2114 42.7168C60.974 36.3493 60.2573 30.3443 57.0613 24.7018C53.8653 19.0593 49.0835 15.3568 42.716 13.5942C36.3485 11.8317 30.3435 12.5484 24.701 15.7444C19.0585 18.9404 15.356 23.7221 13.5935 30.0896C11.8309 36.4571 12.5477 42.4621 15.7436 48.1046C18.9396 53.7471 23.7214 57.4496 30.0889 59.2122Z" fill="black"/>
</svg>
