<svg width="80" height="80" viewBox="0 0 80 80" fill="none" xmlns="http://www.w3.org/2000/svg">
<circle cx="38.9414" cy="39.1772" r="31.7857" transform="rotate(14.1503 38.9414 39.1772)" fill="#FED83C"/>
<path fill-rule="evenodd" clip-rule="evenodd" d="M37.6988 55.589C44.5465 57.3154 50.9169 55.4655 51.9275 51.4571C52.9381 47.4486 48.2062 42.7996 41.3584 41.0732C38.6819 40.3984 36.0782 40.2699 33.839 40.6033C28.9835 40.0305 24.7656 41.8252 23.9532 45.0475C23.0269 48.7219 26.8793 52.8612 32.5579 54.2929C33.3789 54.4999 34.1932 54.6389 34.9883 54.7143C35.8449 55.0555 36.7516 55.3502 37.6988 55.589Z" fill="#302244"/>
<path d="M27.8911 57.0297C28.7908 57.2565 29.6908 57.3145 30.5911 57.2038C31.4915 57.0931 32.392 56.9261 33.2925 56.7029C33.6634 56.5712 34.0409 56.4694 34.4249 56.3974C34.8089 56.3253 35.1862 56.336 35.5566 56.4294C35.98 56.5361 36.6013 56.9742 37.4205 57.7436C38.1076 58.3671 38.8212 58.941 39.5615 59.4654C40.3017 59.9897 41.1217 60.3653 42.0214 60.5921C44.6675 61.2593 47.0344 60.8569 49.1222 59.3851C51.21 57.9133 52.6475 55.6162 53.4347 52.4938C54.3954 48.6834 53.8261 45.416 51.7268 42.6916C49.6275 39.9672 46.1169 37.9845 41.1952 36.7437L39.925 36.4234C35.0033 35.1826 30.9724 35.2639 27.8324 36.6674C24.6923 38.0709 22.642 40.6779 21.6813 44.4883C20.8941 47.6107 21.0708 50.3148 22.2112 52.6004C23.3517 54.8861 25.245 56.3625 27.8911 57.0297ZM29.0126 52.2467C27.7424 51.9264 26.8735 51.1867 26.4059 50.0275C25.9383 48.8684 25.9247 47.4155 26.365 45.6691C26.9787 43.2347 28.2924 41.6521 30.3059 40.9215C32.3194 40.1908 35.1255 40.2792 38.7242 41.1864L39.915 41.4867C43.5137 42.3939 46.013 43.6432 47.413 45.2345C48.813 46.8257 49.2061 48.8386 48.5923 51.273C48.152 53.0194 47.4644 54.2954 46.5296 55.101C45.5948 55.9067 44.4923 56.1494 43.2222 55.8291C42.5871 55.669 41.7675 55.1247 40.7633 54.1961C40.1821 53.5992 39.5676 53.0784 38.9198 52.6337C38.2721 52.189 37.5513 51.8665 36.7575 51.6664C35.9636 51.4663 35.1629 51.4051 34.3553 51.4829C33.5477 51.5607 32.7465 51.7246 31.9518 51.9745C31.4617 52.1324 30.9683 52.2472 30.4718 52.3191C29.9753 52.3909 29.4889 52.3667 29.0126 52.2467ZM22.6215 31.0478C26.117 30.5782 29.0109 29.8162 31.303 28.7618C33.5951 27.7074 35.9215 26.0706 38.2822 23.8514L34.9534 20.3105C33.0304 22.1334 31.168 23.4369 29.3662 24.2209C27.5644 25.0049 25.0811 25.6453 21.9164 26.142L22.6215 31.0478ZM58.8997 40.1941L61.8463 36.209C59.3349 34.3375 57.4851 32.6328 56.2968 31.095C55.1085 29.5571 54.0801 27.4966 53.2116 24.9137L48.602 26.4532C49.6284 29.5263 50.9041 32.0572 52.429 34.0458C53.9539 36.0344 56.1108 38.0838 58.8997 40.1941ZM31.754 71.5122C27.3615 70.4048 23.4437 68.5306 20.0006 65.8895C16.5576 63.2485 13.7674 60.1388 11.6301 56.5605C9.49283 52.9822 8.07765 49.0512 7.38461 44.7676C6.69156 40.484 6.89876 36.1459 8.00619 31.7534C9.11362 27.3608 10.9879 23.443 13.6289 20C16.27 16.5569 19.3797 13.7668 22.958 11.6295C26.5363 9.49217 30.4672 8.077 34.7508 7.38395C39.0344 6.69091 43.3725 6.8981 47.7651 8.00553C52.1576 9.11296 56.0754 10.9872 59.5184 13.6283C62.9615 16.2693 65.7517 19.379 67.889 22.9573C70.0263 26.5356 71.4414 30.4666 72.1345 34.7502C72.8275 39.0338 72.6203 43.3719 71.5129 47.7644C70.4055 52.157 68.5312 56.0748 65.8902 59.5178C63.2491 62.9608 60.1394 65.751 56.5611 67.8883C52.9828 70.0256 49.0519 71.4408 44.7683 72.1338C40.4846 72.8269 36.1466 72.6197 31.754 71.5122ZM33.3551 65.1616C40.4467 66.9495 47.0738 66.003 53.2364 62.3221C59.3991 58.6411 63.3743 53.2549 65.1622 46.1633C66.9501 39.0717 66.0036 32.4446 62.3227 26.282C58.6418 20.1194 53.2556 16.1441 46.164 14.3562C39.0724 12.5683 32.4453 13.5148 26.2827 17.1957C20.12 20.8766 16.1448 26.2629 14.3569 33.3545C12.569 40.446 13.5155 47.0732 17.1964 53.2358C20.8773 59.3984 26.2635 63.3737 33.3551 65.1616Z" fill="black"/>
</svg>
