<svg width="84" height="84" viewBox="0 0 84 84" fill="none" xmlns="http://www.w3.org/2000/svg">
<circle cx="42.4861" cy="43.843" r="28.7495" transform="rotate(-19.5122 42.4861 43.843)" fill="#FED83C"/>
<path d="M51.8917 35.3185C53.1678 34.8663 54.0942 34.0353 54.671 32.8255C55.2477 31.6157 55.31 30.3728 54.8578 29.0967C54.4056 27.8206 53.5746 26.8942 52.3648 26.3175C51.155 25.7407 49.9121 25.6785 48.636 26.1306C47.3599 26.5828 46.4335 27.4138 45.8568 28.6236C45.28 29.8334 45.2178 31.0764 45.67 32.3524C46.1221 33.6285 46.9531 34.5549 48.1629 35.1317C49.3727 35.7084 50.6157 35.7706 51.8917 35.3185ZM30.4535 42.9153C31.7296 42.4631 32.656 41.6321 33.2327 40.4223C33.8095 39.2125 33.8717 37.9696 33.4195 36.6935C32.9674 35.4174 32.1364 34.491 30.9266 33.9143C29.7168 33.3375 28.4738 33.2753 27.1978 33.7274C25.9217 34.1796 24.9953 35.0106 24.4185 36.2204C23.8418 37.4302 23.7795 38.6732 24.2317 39.9492C24.6839 41.2253 25.5149 42.1517 26.7247 42.7285C27.9345 43.3052 29.1774 43.3674 30.4535 42.9153ZM48.2268 59.0238C51.6978 57.7938 54.5015 55.6943 56.638 52.7253C58.7746 49.7563 59.9111 46.4378 60.0477 42.7699L54.9944 44.5605C54.5407 46.8471 53.5767 48.8691 52.1025 50.6268C50.6283 52.3844 48.7938 53.6521 46.5989 54.4299C44.4041 55.2076 42.1806 55.3779 39.9287 54.9407C37.6767 54.5034 35.6546 53.5395 33.8624 52.0488L28.8091 53.8395C31.2247 56.603 34.1972 58.4654 37.7265 59.4267C41.2557 60.3881 44.7559 60.2537 48.2268 59.0238ZM53.1105 72.8055C48.8739 74.3068 44.6076 74.9137 40.3117 74.6262C36.0157 74.3387 32.0012 73.3052 28.2682 71.5256C24.5351 69.746 21.2044 67.2779 18.2762 64.1215C15.3479 60.9651 13.1331 57.2686 11.6319 53.032C10.1306 48.7954 9.52369 44.5292 9.81116 40.2332C10.0986 35.9373 11.1322 31.9228 12.9118 28.1897C14.6914 24.4567 17.1594 21.126 20.3158 18.1977C23.4722 15.2695 27.1687 13.0547 31.4053 11.5534C35.6419 10.0522 39.9082 9.44526 44.2041 9.73273C48.5 10.0202 52.5145 11.0537 56.2476 12.8334C59.9807 14.613 63.3113 17.081 66.2396 20.2374C69.1679 23.3938 71.3826 27.0903 72.8839 31.3269C74.3852 35.5635 74.9921 39.8298 74.7046 44.1257C74.4171 48.4216 73.3836 52.4361 71.604 56.1692C69.8244 59.9022 67.3564 63.2329 64.2 66.1612C61.0436 69.0894 57.3471 71.3042 53.1105 72.8055ZM50.9399 66.6803C57.7798 64.2565 62.7321 59.8301 65.797 53.4009C68.8619 46.9717 69.1825 40.3372 66.7587 33.4974C64.335 26.6576 59.9085 21.7052 53.4793 18.6404C47.0501 15.5755 40.4156 15.2549 33.5758 17.6786C26.736 20.1024 21.7837 24.5288 18.7188 30.958C15.6539 37.3872 15.3333 44.0217 17.7571 50.8615C20.1808 57.7013 24.6073 62.6537 31.0365 65.7186C37.4656 68.7834 44.1001 69.104 50.9399 66.6803Z" fill="black"/>
</svg>
