<svg width="61" height="59" viewBox="0 0 61 59" fill="none" xmlns="http://www.w3.org/2000/svg">
<circle cx="29" cy="29" r="27" fill="#4D78E7"/>
<path d="M1.73891 25.5358C2.77722 19.035 5.77313 13.5947 10.7266 9.21487C15.6801 4.83509 21.577 2.55886 28.4172 2.38618C31.8373 2.29985 35.075 2.77308 38.1302 3.80588C41.1855 4.83868 43.9405 6.34154 46.3951 8.31444C45.7784 9.53244 45.2844 10.5739 44.9131 11.4389C44.5419 12.3038 44.2963 13.1078 44.1763 13.8507C42.0937 11.9609 39.7209 10.4831 37.0579 9.41729C34.3949 8.35146 31.5613 7.85647 28.5572 7.9323C23.8892 8.05014 19.7395 9.46138 16.108 12.166C12.4765 14.8707 9.88016 18.2776 8.319 22.3867C7.06995 22.372 5.86257 22.6337 4.69686 23.1719C3.53114 23.71 2.54516 24.498 1.73891 25.5358ZM29.8173 57.8474C22.9771 58.0201 16.9729 56.0443 11.8047 51.92C6.63651 47.7957 3.36993 42.5135 2.00492 36.0734C2.81629 37.0703 3.81796 37.8197 5.00993 38.3214C6.2019 38.8232 7.44434 39.0346 8.73727 38.9557C10.5038 42.9809 13.2684 46.2409 17.0312 48.7357C20.7939 51.2306 25.0093 52.4191 29.6773 52.3013C35.8242 52.1461 41.0038 49.8533 45.2161 45.4228C49.4283 40.9924 51.4569 35.7037 51.3017 29.5567C51.2819 28.771 51.2274 27.9862 51.1382 27.2023C51.0491 26.4183 50.9021 25.6358 50.6974 24.8548C51.2105 25.0268 51.7339 25.1524 52.2678 25.2314C52.8016 25.3104 53.3689 25.3423 53.9698 25.3272C54.3857 25.3167 54.8011 25.283 55.2159 25.2263C55.6307 25.1696 56.0218 25.0904 56.3892 24.9886C56.5003 25.7257 56.5995 26.4516 56.687 27.1663C56.7744 27.8809 56.828 28.631 56.8478 29.4167C56.9447 33.2528 56.3077 36.8762 54.9371 40.2868C53.5664 43.6974 51.6647 46.6821 49.2319 49.2409C46.7992 51.7997 43.9142 53.8495 40.5771 55.3906C37.2399 56.9316 33.6533 57.7505 29.8173 57.8474ZM19.1062 29.2596L24.7826 23.2891L18.7411 17.5451L15.9029 20.5304L18.9575 23.3668L16.0517 26.4231L19.1062 29.2596ZM53.8648 21.1676C52.3396 21.2061 51.0202 20.696 49.9067 19.6373C48.7931 18.5786 48.2171 17.2866 48.1786 15.7615C48.1471 14.5136 48.4602 13.1761 49.1179 11.7489C49.7756 10.3218 51.2179 7.91522 53.4447 4.52921C55.8396 7.79854 57.4015 10.1293 58.1303 11.5214C58.8592 12.9136 59.2394 14.2336 59.2709 15.4814C59.3094 17.0066 58.7993 18.326 57.7406 19.4395C56.6819 20.553 55.3899 21.1291 53.8648 21.1676ZM39.1433 28.8231L42.0491 25.7668L38.9928 22.861L41.831 19.8758L38.8458 17.0376L33.1018 23.0791L39.1433 28.8231ZM29.2222 34.2764C28.0206 34.3067 26.8571 34.4748 25.7317 34.7807C24.6064 35.0866 23.5418 35.5066 22.5378 36.0406L12.4789 30.5368C12.4602 29.7973 12.2578 29.1087 11.8718 28.471C11.4857 27.8333 10.9645 27.3377 10.3081 26.9843C9.27728 26.4554 8.22262 26.3548 7.14409 26.6827C6.06556 27.0105 5.23813 27.6673 4.6618 28.653C4.13286 29.6838 4.0323 30.7385 4.36013 31.817C4.68797 32.8955 5.34475 33.723 6.33049 34.2993C6.98687 34.6527 7.6848 34.8201 8.42429 34.8014C9.16377 34.7827 9.85237 34.5804 10.4901 34.1943L18.8607 38.7696C18.0948 39.5751 17.4113 40.4364 16.8101 41.3533C16.2089 42.2703 15.7138 43.2656 15.3246 44.3391L19.9002 44.2236C20.8288 42.5353 22.1121 41.1617 23.7503 40.1029C25.3885 39.0441 27.2474 38.4885 29.3272 38.436C31.407 38.3835 33.2917 38.8446 34.9812 39.8194C36.6707 40.7942 38.0217 42.1012 39.0343 43.7406L43.6099 43.6251C42.4283 40.7876 40.5553 38.4994 37.991 36.7605C35.4266 35.0216 32.5037 34.1935 29.2222 34.2764Z" fill="black"/>
</svg>
