<svg width="98" height="93" viewBox="0 0 98 93" fill="none" xmlns="http://www.w3.org/2000/svg">
<path d="M7.68557 18.8437C7.47863 19.1916 7.3614 19.5855 7.34443 19.9899C7.31342 20.1828 7.32418 20.38 7.37597 20.5683C7.42776 20.7567 7.51938 20.9317 7.64463 21.0816C8.69951 22.3207 10.1421 23.167 11.7384 23.4832C12.9552 23.6893 14.2019 23.6335 15.3955 23.3195C16.5021 23.113 17.5528 22.676 18.4794 22.0368C19.4707 21.3357 20.2969 20.4267 20.9003 19.3731C21.5037 18.3195 21.8697 17.1468 21.9728 15.9371C22.0605 14.6536 21.86 13.3668 21.386 12.1708C20.3574 9.87956 18.634 7.96996 16.4598 6.71251C15.0211 5.87424 13.4921 5.20132 11.9021 4.70657C11.0152 4.39272 10.251 4.07887 9.50047 3.86053C8.89534 3.65263 8.2566 3.56006 7.61734 3.58762C7.47806 3.61118 7.335 3.59703 7.20302 3.54664C7.07104 3.49625 6.95496 3.41145 6.86682 3.30105C6.72648 3.10122 6.65118 2.86296 6.65118 2.61876C6.65118 2.37457 6.72648 2.13631 6.86682 1.93647C7.43902 1.15785 8.28952 0.62996 9.2412 0.462721C10.3229 0.21018 11.4482 0.21018 12.5298 0.462721C13.3349 0.653763 14.3993 0.913034 15.3545 1.24053C16.3415 1.56678 17.3037 1.96353 18.2338 2.42772C20.1805 3.3816 21.9412 4.67553 23.4329 6.24856C25.0383 7.93588 26.2214 9.97937 26.8853 12.2118C27.5607 14.5196 27.5607 16.9726 26.8853 19.2803C26.1035 22.0118 24.5997 24.4819 22.5322 26.4307C20.4371 28.4605 17.733 29.7455 14.836 30.0878C14.4539 30.0878 14.0582 30.1697 13.6624 30.1833H12.4889C11.7121 30.16 10.9396 30.0594 10.1828 29.8831C8.68396 29.5512 7.24397 28.9945 5.91162 28.232C4.47373 27.4369 3.21858 26.3492 2.22724 25.0389C1.12977 23.5739 0.536139 21.793 0.535156 19.9626C0.589636 17.8258 1.39667 15.7768 2.81401 14.1768C4.16037 12.6382 5.97094 11.5796 7.97213 11.1611C9.50022 10.8512 11.0848 10.9789 12.5435 11.5295C13.9565 12.0796 15.2025 12.9871 16.1596 14.1631C17.8074 16.3189 18.8105 18.8975 19.0526 21.6001C19.324 23.6653 19.199 25.7633 18.6841 27.7817C18.135 29.9335 16.9624 31.8751 15.3136 33.3628C14.6496 34.0549 13.8748 34.6314 13.0211 35.0686C11.994 35.6457 10.8419 35.9641 9.66422 35.9965C9.3119 35.9929 8.96389 35.9186 8.64078 35.7781C8.3322 35.5956 8.044 35.3806 7.78109 35.1368C7.5528 34.9623 7.33414 34.7755 7.12609 34.5773C6.64849 34.127 7.31713 32.4213 8.79088 31.1386C9.28736 30.6434 9.74366 30.1095 10.1555 29.542C10.5512 29.0098 10.9606 28.5868 11.2335 28.1774C11.5047 27.7499 11.7245 27.2919 11.8885 26.8128C12.0625 26.3662 12.2128 25.9107 12.3388 25.4482C12.4581 24.9455 12.5402 24.4347 12.5844 23.9199C12.6316 23.3842 12.6316 22.8454 12.5844 22.3097C12.5027 21.2259 12.2349 20.1642 11.793 19.1712C11.5755 18.6568 11.255 18.1925 10.8514 17.8066C10.5704 17.5934 10.2205 17.4913 9.86891 17.52C9.44062 17.5511 9.02784 17.6933 8.67128 17.9326C8.31473 18.1719 8.02672 18.5 7.83568 18.8846L7.68557 18.8437Z" fill="#FED83C"/>
<path d="M33.19 74.0953C31.9577 75.1588 31.1769 76.652 31.0067 78.2709C30.9921 78.5309 31.0403 78.7906 31.1471 79.0281C31.254 79.2656 31.4164 79.4739 31.6207 79.6355L31.7845 79.8129L32.0301 79.963L32.535 80.3041C32.958 80.4406 33.4356 80.7271 33.8041 80.8226C34.2638 80.9623 34.7497 80.993 35.2234 80.9125C35.697 80.832 36.1455 80.6424 36.5332 80.3587C37.5294 79.6296 38.3155 78.6505 38.8121 77.5204C39.4251 76.2392 39.7688 74.8459 39.8219 73.4266C39.9503 70.3096 39.0855 67.2324 37.352 64.6387C35.6932 62.2439 33.5088 60.2602 30.9657 58.8392C27.7082 56.8713 23.9777 55.8243 20.1719 55.8098C18.9983 55.8098 19.012 55.5096 20.0081 54.8819C21.7138 53.9143 23.6809 53.5085 25.6302 53.722C30.0938 54.2339 34.3366 55.9404 37.9115 58.6618C39.8005 60.0773 41.3951 61.848 42.6056 63.8745C43.8499 65.933 44.684 68.2128 45.0619 70.5883C45.5279 73.5756 45.2273 76.6323 44.1885 79.4717C43.6467 80.9466 42.8778 82.3278 41.9097 83.5655C40.7976 85.007 39.2968 86.1006 37.584 86.7176C35.6803 87.3277 33.6294 87.2989 31.7435 86.6358C29.9939 86.0827 28.3995 85.1242 27.0903 83.8384C25.6703 82.3709 24.8564 80.4216 24.8115 78.38C24.7952 76.5651 25.2665 74.779 26.176 73.2083C27.176 71.4502 28.5278 69.9172 30.147 68.7052C31.7657 67.4872 33.6271 66.6309 35.6053 66.1943C38.5448 65.5678 41.608 65.9076 44.3386 67.1632C46.9931 68.3582 49.2785 70.2431 50.9569 72.6215C53.5899 76.2189 54.9965 80.5676 54.9688 85.0256C55.0242 85.9748 54.9693 86.9273 54.805 87.8639C54.0681 91.289 53.2494 92.1623 51.6255 92.4353C51.2807 92.5231 50.9293 92.5824 50.5748 92.6126C49.5104 92.6126 48.8418 91.057 48.8281 88.8055C48.8281 87.9731 48.8281 87.1407 48.6917 86.3356C48.5552 85.5305 48.6917 84.7663 48.5961 84.0021C48.5275 82.561 48.294 81.1326 47.9002 79.7446C47.1546 77.1506 45.5651 74.8793 43.3834 73.2902C42.5951 72.7452 41.7243 72.3305 40.8044 72.062C39.9131 71.8377 38.9899 71.7685 38.0752 71.8573C36.2438 72.0427 34.5419 72.8864 33.2855 74.2317L33.19 74.0953Z" fill="#FED83C"/>
<path d="M71.1124 34.9458C71.5873 33.8564 72.322 32.8999 73.2522 32.16C74.1823 31.4202 75.2796 30.9196 76.4479 30.702C77.5923 30.4762 78.7697 30.4762 79.914 30.702C80.8097 30.883 81.6803 31.1717 82.5067 31.5617C83.9641 32.247 85.3152 33.1386 86.5186 34.209C87.7166 35.239 88.7679 36.4281 89.6435 37.7432C91.1103 39.7571 91.9504 42.1589 92.0588 44.648C92.0794 46.999 91.2563 49.2794 89.739 51.0752C88.4229 52.6141 86.795 53.856 84.9629 54.7186C81.5957 56.441 77.817 57.1968 74.0463 56.902C70.7744 56.6737 67.6164 55.6069 64.8763 53.8044C61.4477 51.6086 58.8015 48.3844 57.3165 44.5934C56.8389 43.4472 57.7259 43.2289 59.0359 43.6109C60.6769 44.1833 62.169 45.1158 63.4025 46.3401C65.5586 48.6836 68.3443 50.356 71.4263 51.1571C72.9018 51.5549 74.4302 51.7207 75.9567 51.6483C77.5526 51.6019 79.1335 51.3262 80.6509 50.8296C82.4902 50.2824 84.1246 49.1992 85.345 47.7183C85.8129 47.1155 86.1238 46.406 86.2501 45.6534C86.3763 44.9009 86.3138 44.1287 86.0683 43.4062C85.4484 41.431 84.2447 39.6897 82.6159 38.4119C81.7945 37.7201 80.8747 37.1544 79.8867 36.7334C79.481 36.5707 79.0606 36.4473 78.6313 36.365C78.348 36.3037 78.0549 36.3037 77.7716 36.365C77.3976 36.4334 77.0582 36.6277 76.81 36.9157C76.5617 37.2036 76.4195 37.5679 76.407 37.9479C76.3931 38.3895 76.4986 38.8266 76.7124 39.2133C76.9261 39.5999 77.2402 39.9218 77.6215 40.1449C80.528 42.3282 85.6862 41.2911 88.6746 38.5074C89.7846 37.5272 90.5877 36.2471 90.9871 34.8211C91.3866 33.3952 91.3654 31.8842 90.9262 30.47C90.7488 29.8696 90.4349 29.3374 90.2575 28.7233C89.8934 27.9057 89.641 27.0429 89.507 26.1579C89.5958 25.4356 89.8081 24.734 90.1347 24.0837C90.2985 23.7835 90.4076 23.4424 90.5577 23.1968C90.7078 22.9511 91.3083 22.6782 92.0724 22.8556C93.1575 23.052 94.1305 23.6455 94.8016 24.5204C95.1323 24.9098 95.4377 25.32 95.7159 25.7485C96.0156 26.1867 96.289 26.6424 96.5346 27.1131C97.0466 28.1162 97.4141 29.1866 97.6263 30.2926C98.0481 32.6478 97.8169 35.0735 96.9576 37.3066C96.0702 39.469 94.7234 41.4127 93.0105 43.0032C91.2975 44.5936 89.2593 45.7927 87.0371 46.5175C85.3874 47.0989 83.6551 47.4121 81.9063 47.4454C80.0296 47.4767 78.1682 47.1045 76.4479 46.3537C75.5135 45.9427 74.6372 45.4105 73.8416 44.7708C72.8913 44.0278 72.1021 43.0992 71.5218 42.0417C70.8994 40.9524 70.5275 39.7381 70.4331 38.4871C70.3387 37.2361 70.5241 35.9798 70.976 34.8094L71.1124 34.9458Z" fill="#FED83C"/>
</svg>
