<svg width="104" height="108" viewBox="0 0 104 108" fill="none" xmlns="http://www.w3.org/2000/svg">
<path d="M35.2206 50.5019C35.2206 50.5019 31.3001 60.0664 29.5446 58.7699C26.7204 56.6695 26.0408 42.3844 26.6658 41.3391C27.2908 40.2938 36.3682 40.9074 38.7305 42.7821C40.1811 43.9193 41.4488 47.6826 38.561 49.5942C37.5799 50.2607 36.4041 50.5802 35.2206 50.5019Z" fill="#6AA5DA"/>
<path d="M55.8248 85.0162C56.5656 84.3081 57.2383 83.5319 57.8339 82.6979C58.3899 81.9023 58.8506 81.0443 59.2067 80.1414C59.9464 78.4084 60.226 76.5136 60.0182 74.6408C59.9435 73.9728 59.6398 73.3513 59.1588 72.8818C58.6777 72.4123 58.049 72.1239 57.3794 72.0654C56.7989 71.9831 56.2071 72.0831 55.6859 72.3517C54.9674 72.6823 54.3279 73.163 53.8106 73.7614C52.0227 75.9264 51.0232 78.6345 50.9758 81.4418C50.9711 81.9355 51.0355 82.4274 51.1669 82.9032L51.2392 83.046L51.3387 83.2422L51.5421 83.6436C51.6549 83.9222 51.7909 84.1908 51.9488 84.4465C52.5441 85.4626 53.366 86.3275 54.3504 86.9739C56.5349 88.2782 59.1074 88.7757 61.6207 88.3798C62.9661 88.2171 64.2891 87.9041 65.5647 87.4465C66.8227 86.983 68.0077 86.3411 69.0832 85.5406C71.3293 83.7649 73.3277 81.6967 75.0253 79.391C76.6377 77.3074 78.1374 75.0678 79.7355 72.8232C81.3202 70.4563 83.2009 68.3017 85.3319 66.4116C86.8487 65.11 88.6572 64.1937 90.6038 63.7405C91.0931 63.6365 91.5887 63.5651 92.0875 63.5269C92.5726 63.4696 93.0615 63.4505 93.5496 63.47C94.5985 63.4655 95.6398 63.6478 96.6248 64.0082C97.6551 64.3915 98.579 65.015 99.3199 65.827C100.061 66.6389 100.597 67.616 100.885 68.6769C101.334 70.4975 101.4 72.3916 101.08 74.2393C100.712 76.4773 100.155 76.042 99.4967 74.2343C99.0666 73.0788 98.5693 71.9496 98.0073 70.8522C97.7034 70.2521 97.3345 69.6871 96.9072 69.1676C96.5634 68.7768 96.149 68.4543 95.6857 68.217C95.2308 67.9899 94.7336 67.86 94.2257 67.8357C93.9186 67.8198 93.6108 67.8259 93.3045 67.854C92.953 67.8796 92.6036 67.9292 92.2588 68.0027C91.6491 68.0883 91.0577 68.2743 90.5087 68.5531C89.9229 68.8013 89.3678 69.1164 88.8545 69.4921C86.6628 71.1182 84.6916 73.8433 82.7478 76.6667C80.7682 79.7225 78.5969 82.6498 76.247 85.431C74.9635 86.9303 73.5155 88.2806 71.9304 89.4565C70.2392 90.6537 68.3566 91.5544 66.3632 92.1202C64.0318 92.8218 61.6012 93.1369 59.168 93.0529C57.8989 92.9997 56.6396 92.8069 55.4127 92.478C54.1582 92.1242 52.9578 91.6009 51.8446 90.9228C49.6016 89.4702 47.8324 87.3934 46.7548 84.9481C46.2077 83.624 45.9515 82.1978 46.0036 80.7661C46.0311 79.4916 46.2182 78.2256 46.5605 76.9976C47.268 74.2898 48.645 71.8034 50.5649 69.7671C51.6514 68.6338 52.9977 67.7824 54.4873 67.2866C55.3034 67.0637 56.1498 66.9716 56.9948 67.0139C57.8086 67.0606 58.6091 67.2422 59.3634 67.5514C60.8925 68.0959 62.2015 69.1255 63.0909 70.4832C63.5134 71.1445 63.8394 71.8625 64.0593 72.6158C64.1838 72.9647 64.2726 73.3253 64.3244 73.6922C64.4041 74.0358 64.4538 74.3857 64.4731 74.7379C64.5876 76.1054 64.4954 77.4824 64.1996 78.8224C63.9389 80.1182 63.533 81.3806 62.9897 82.5855C62.6647 83.337 62.2828 84.0626 61.8474 84.7561C61.3858 85.416 60.9377 86.0803 60.4355 86.6822C59.4659 87.9144 58.3851 89.0549 57.2068 90.0893C54.8688 92.1726 52.1933 93.8428 49.2949 95.0284C47.0301 95.9674 44.5983 96.4367 42.1467 96.408C39.596 96.3159 37.1253 95.494 35.0278 94.0398C32.9674 92.5754 31.3554 90.5662 30.3727 88.2372C29.8785 87.1186 29.5079 85.9494 29.2674 84.7503C29.0244 83.5702 28.8893 82.3704 28.8638 81.1658C28.8781 77.5223 29.5561 73.9118 30.8644 70.5113C31.9872 67.1959 33.3707 64.1296 34.2758 61.0926C34.6541 59.8186 34.9195 58.5137 35.0691 57.1931C35.2519 55.583 35.2372 53.9565 35.0254 52.35C34.915 51.4428 34.9861 50.5226 35.2347 49.6432C35.3007 49.2632 35.3959 48.8889 35.5194 48.5236C35.7493 48.026 36.3312 48.1123 37.2878 48.872C38.6785 50.1218 39.6285 51.7872 39.9963 53.6205C40.3997 55.4109 40.4972 57.2566 40.2847 59.0795C40.0742 60.7836 39.715 62.466 39.2113 64.1075C38.7323 65.7066 38.1904 67.2479 37.6438 68.7356L35.9894 73.0153C34.9411 75.5254 34.3539 78.204 34.256 80.9225C34.1938 83.376 34.8536 85.7937 36.1533 87.8756C37.0792 89.2423 38.4138 90.2809 39.966 90.8428C41.636 91.4195 43.4354 91.5108 45.1552 91.1059C49.2026 90.1212 52.8786 87.9862 55.7395 84.9585L55.8248 85.0162Z" fill="#6AA5DA"/>
<path d="M28.9116 44.7305C28.8556 47.4233 29.0345 50.1159 29.4463 52.7776C29.525 53.2501 29.6274 53.7182 29.7534 54.1803L29.8446 54.5152L29.8853 54.5955C29.9124 54.649 29.9395 54.7025 29.9712 54.765C29.9959 55.0478 30.1048 55.3167 30.2838 55.537C30.5663 55.6741 30.7661 55.4047 30.9618 55.1935L31.2728 54.8117L31.3353 54.7801L31.3881 54.6188L31.5655 54.3495L31.9069 53.7842L33.3125 51.5138L33.9732 50.4504L34.3548 49.8759L34.6392 49.5301C34.7486 49.4266 34.8646 49.3304 34.9865 49.242C35.2408 49.0684 35.5167 48.9286 35.8071 48.8262C36.0658 48.6951 36.2536 48.6897 36.4724 48.6125L37.6737 48.3064L40.6082 47.5932C41.5555 47.417 42.4851 47.1562 43.3858 46.8137C43.8942 46.5561 44.0925 46.8368 43.8679 47.4998C43.4262 48.504 42.6627 49.3325 41.698 49.8548C41.4393 49.9859 41.1896 50.1124 40.9309 50.2435L40.1497 50.516L38.6318 51.016C38.1362 51.1662 37.6629 51.3163 37.2389 51.4751L36.9534 51.6197L36.878 51.7364L36.7319 52.001L36.4043 52.6378L35.7005 54.0145C35.4525 54.4765 35.2136 54.9563 34.9298 55.4139L33.8831 57.0653C33.3447 57.9308 32.6846 58.7145 31.9233 59.3923C31.6079 59.6802 31.232 59.8938 30.8233 60.0175C30.4146 60.1411 29.9834 60.1717 29.5613 60.107C28.7228 59.8099 28.0225 59.2152 27.5936 58.4359C27.0246 57.5355 26.5745 56.5653 26.2545 55.5495C25.5427 52.6933 25.1079 49.7752 24.9559 46.8356C24.8976 45.9459 24.8659 45.0427 24.87 44.1214L24.8921 43.2358C24.8952 42.9125 24.9189 42.5897 24.963 42.2694C25.0071 41.6682 25.1975 41.0869 25.5175 40.576L25.6329 40.4054C25.9938 40.1496 26.3906 39.9486 26.8104 39.8088L27.4805 39.6711C27.7129 39.6431 27.9454 39.6373 28.1823 39.6182C28.6061 39.5829 29.0317 39.5732 29.4567 39.5891C29.8101 39.6006 30.1501 39.6301 30.4857 39.6507C31.8548 39.7642 33.1884 39.9404 34.5224 40.1838C36.6703 40.465 38.788 40.9418 40.8492 41.6081C41.3108 41.789 41.7811 41.9207 42.2384 42.1374C43.9022 43.0096 44.1745 43.746 43.6931 44.898C43.5938 45.1725 43.4742 45.4392 43.3351 45.6959C43.0653 46.0821 42.6679 46.3607 42.2128 46.4826C41.7578 46.6045 41.2743 46.5618 40.8476 46.3621C37.7298 45.2367 34.5053 44.4326 31.2241 43.9624C30.8616 43.9107 30.4947 43.8724 30.1412 43.8385C29.7877 43.8046 29.3673 43.7934 29.1481 43.7812C29.1481 43.7812 29.1481 43.7812 29.1164 43.7187C29.0848 43.6563 29.1164 43.7187 29.0629 43.7458C29.0629 43.7458 29.0313 43.6834 29.0546 43.8621L29.0454 44.6627L28.9116 44.7305Z" fill="#6AA5DA"/>
<path d="M30.6448 32.709C30.945 32.8147 30.5441 33.1076 29.7324 33.5412C29.3442 33.7202 28.9345 33.8486 28.5136 33.9233C28.2674 33.8985 28.0244 33.8489 27.7883 33.7751C27.3712 33.3325 26.9861 32.8608 26.6359 32.3636C26.3752 32.0492 26.1883 31.6804 26.089 31.2842C25.8792 30.5161 25.656 29.7436 25.4864 28.9663C25.4471 28.7859 25.4522 28.5987 25.5014 28.4207C25.6442 27.8151 25.6145 27.1816 25.4156 26.592C25.3704 26.5028 25.4011 26.3863 25.2665 26.2976C24.9534 25.6621 24.8226 24.9522 24.8889 24.2469C25.1229 23.6911 25.2586 23.1403 25.4794 22.6024C25.5418 22.5708 25.4116 22.4686 25.6302 22.3691C26.0227 22.1702 25.9684 22.0408 25.9988 21.8797C26.0356 21.6365 26.1243 21.4042 26.259 21.1985C26.3962 21.0625 26.558 20.9539 26.7359 20.8784C27.0093 20.8197 27.2927 20.8259 27.5633 20.8964C27.7517 21.0027 28.0375 20.9252 28.288 20.9328C28.3744 20.9248 28.4613 20.9258 28.5474 20.9359C29.004 21.3179 29.4106 21.756 29.7574 22.2398L29.8215 22.5212C29.8938 22.664 29.9308 22.8919 29.9767 23.1152C30.0529 23.4461 30.1472 23.7726 30.2592 24.0931C30.3089 24.1913 30.22 24.3035 30.1714 24.4066C30.1227 24.5098 30.6124 25.7639 30.6171 25.8175C30.6053 26.1038 30.79 26.3577 30.4831 26.6813C30.4028 26.722 30.4435 26.8023 30.4617 26.8603C30.5519 27.3467 30.5771 27.8428 30.5366 28.3358C30.5638 28.5806 30.6115 28.8227 30.6791 29.0595C30.6791 29.0595 30.6439 29.167 30.6307 29.2073C30.6175 29.2477 30.5732 29.3373 30.5914 29.3954C30.6586 29.9831 30.7968 30.5606 31.0031 31.115C31.0663 31.2399 30.8332 31.9746 30.9323 32.1037C31.0314 32.2329 30.5103 32.6426 30.6448 32.709Z" fill="#6AA5DA"/>
<path d="M17.9049 44.4894C18.1141 44.3049 18.2148 44.7471 18.2906 45.5383C18.2985 45.9126 18.2538 46.2862 18.1579 46.6481C18.0356 46.8415 17.8943 47.022 17.7359 47.187C17.6288 47.2413 16.4365 47.5651 16.0169 47.7105C15.6459 47.8271 15.2554 47.8687 14.8682 47.8328C14.1122 47.8011 13.3609 47.8006 12.6005 47.7823C12.4325 47.7754 12.2696 47.7221 12.1301 47.6282C11.6435 47.3454 11.0747 47.2379 10.5185 47.3238C10.4603 47.3184 10.4019 47.3295 10.3498 47.3559C10.2977 47.3823 10.2541 47.4228 10.2241 47.4729C10.0331 47.7154 8.5661 47.6964 8.40886 47.563C8.20448 47.4052 7.9917 47.2585 7.77147 47.1237C7.5606 46.9951 7.34508 46.8353 7.13861 46.6932C6.93213 46.5512 7.03156 46.7475 6.95865 46.493C6.86208 45.9926 6.74172 46.0648 6.58496 46.0209C6.38559 45.9226 6.20481 45.7904 6.05069 45.6302C5.93189 45.4521 5.83479 45.2604 5.76143 45.0593C5.68101 44.7609 5.65661 44.4501 5.68948 44.1428C5.73199 43.8796 5.72144 43.6105 5.65844 43.3514C5.61777 43.2711 5.63942 43.1369 5.63454 43.0609C6.05811 42.4442 6.59756 41.9158 7.22285 41.505L7.56254 41.4675C7.76366 41.444 8.02283 41.4024 8.28211 41.3831C8.8052 41.3535 9.37753 41.3326 9.44461 41.3322C9.5117 41.3319 9.66429 41.4339 9.75873 41.5318C9.85317 41.6297 11.3105 41.5191 11.3599 41.5501C11.6557 41.6693 11.9728 41.5871 12.2033 42.0421C12.2485 42.1313 12.311 42.122 12.3692 42.1262C12.8828 42.2415 13.3776 42.4286 13.839 42.6819C14.0815 42.7701 14.332 42.8347 14.5869 42.8747C14.5869 42.8747 14.6366 42.9728 14.7127 42.9903C14.7888 43.0078 14.776 43.1152 14.8698 43.1012C15.4453 43.2995 16.0372 43.446 16.6387 43.5391C16.7728 43.5383 17.3615 44.0585 17.5179 44.0353C17.6743 44.0121 17.8114 44.5704 17.9049 44.4894Z" fill="#6AA5DA"/>
</svg>
