<svg width="122" height="126" viewBox="0 0 122 126" fill="none" xmlns="http://www.w3.org/2000/svg">
<path d="M64.623 36.266C65.8257 35.5583 67.1255 35.0302 68.481 34.6986C69.9197 34.3427 71.4141 34.2714 72.8802 34.4888C74.289 34.6935 75.6517 35.1409 76.9077 35.8112C78.1664 36.4341 79.3146 37.259 80.3066 38.2532C82.2669 40.2385 83.5816 42.7698 84.0783 45.5153C84.5164 47.9102 84.5634 50.3602 84.2174 52.77C83.552 57.2158 82.1685 61.524 80.1212 65.526C79.6153 66.5105 79.076 67.5012 78.4733 68.4773C77.8706 69.4535 77.1688 70.3609 76.5234 71.2928C75.1386 73.0471 73.6245 74.6953 71.9937 76.2236C67.3175 80.6181 61.8641 84.1038 55.9123 86.5026C53.2637 87.5158 50.531 88.2935 47.7458 88.8266C47.038 88.9379 46.3463 89.0895 45.6324 89.1672L43.4808 89.3934L41.1988 89.4265C40.4331 89.4096 39.6727 89.2791 38.9146 89.2088C35.8736 88.7595 32.9779 87.6125 30.454 85.8576C28.0001 84.1384 25.9288 81.9297 24.3704 79.3707C22.8369 76.8845 21.7531 74.1477 21.1685 71.2857C20.8696 69.8327 20.6943 68.3569 20.6445 66.8743C20.6339 66.1482 20.6371 65.4023 20.6693 64.7205C20.7161 63.9642 20.811 63.2117 20.9534 62.4675C21.4755 59.5212 22.6758 56.7367 24.4593 54.3341C25.4714 52.9822 26.8263 51.9252 28.3838 51.2726C30.0909 50.621 31.9792 50.6271 33.6822 51.2895C35.0979 51.8541 36.3343 52.7915 37.2602 54.0022C38.0955 55.0781 38.7802 56.2629 39.2952 57.5239C40.2942 59.931 40.8516 62.4983 40.9406 65.1029C41.1901 70.2872 39.6232 75.3961 36.51 79.549C34.5382 82.2075 32.0051 84.399 29.0906 85.9679C26.1762 87.5369 22.9519 88.4446 19.647 88.6267C18.8267 88.6762 18.0037 88.6605 17.1858 88.5797C16.3651 88.5277 15.5481 88.4272 14.7392 88.2788C13.1184 87.9827 11.5499 87.45 10.084 86.6977C7.30168 85.2103 4.80891 83.2355 2.72435 80.8673C1.43108 79.4729 0.998756 78.7627 1.16427 78.672C1.32979 78.5813 2.14425 79.0573 3.54899 79.8248C5.42949 80.8569 7.40363 81.7084 9.44488 82.3679C10.6986 82.7492 11.9832 83.0204 13.2841 83.1785C14.6662 83.3778 16.0649 83.4373 17.459 83.3561C18.0912 83.3567 18.7222 83.303 19.3452 83.1955C19.6635 83.1737 19.9791 83.1222 20.2879 83.0416C20.4458 83.0127 20.6002 82.9673 20.7485 82.9059L21.2184 82.8206C21.8378 82.6955 22.4469 82.524 23.0405 82.3076C23.6471 82.1214 24.2358 81.881 24.7994 81.5895C27.0684 80.4929 29.096 78.9549 30.7636 77.0655C32.4795 75.244 33.7658 73.0614 34.5281 70.6779C35.2904 68.2944 35.5093 65.7705 35.1689 63.2914C34.9729 62.0567 34.6456 60.8465 34.1925 59.6814C33.8398 58.696 33.3069 57.7848 32.6211 56.9942C32.2094 56.5149 31.6262 56.2163 30.9967 56.1626C30.647 56.1779 30.304 56.2645 29.989 56.4171C29.6739 56.5697 29.3934 56.7851 29.1646 57.05C27.5449 58.8776 26.4611 61.1168 26.0327 63.5209C25.9601 63.8374 25.9281 64.1379 25.8723 64.4513C25.8279 64.749 25.8014 65.049 25.7929 65.3498C25.8111 66.0225 25.7522 66.7005 25.8436 67.3945C25.897 68.7109 26.0765 70.0191 26.3799 71.3011C26.7899 72.8738 27.397 74.3884 28.1867 75.8089C28.9933 77.2106 29.9906 78.4936 31.1498 79.6213C32.8755 81.2877 34.9707 82.5226 37.2644 83.2252C37.6404 83.3389 38.0309 83.3893 38.4206 83.4832C38.8064 83.5821 39.2007 83.6439 39.5982 83.668C43.0045 83.8614 46.4159 83.3889 49.6414 82.277C53.0274 81.1825 56.2915 79.7416 59.3817 77.9771C66.2007 74.1039 72.1872 68.7005 75.2956 61.6706C76.9857 58.2207 78.0699 54.5059 78.5007 50.6885C78.6844 48.9149 78.5323 47.1225 78.0524 45.4053C77.5997 43.8657 76.648 42.5203 75.347 41.5807C74.5725 40.9915 73.6816 40.5734 72.7334 40.3542C71.7852 40.135 70.8013 40.1196 69.8467 40.3091C67.7819 40.9089 65.9376 42.0994 64.5409 43.7342C61.3384 47.3127 58.9802 51.5647 57.6403 56.1763C56.7117 59.7053 56.3544 63.3603 56.5822 67.0024C56.6976 70.5727 57.6645 74.0638 59.4024 77.1847C60.2477 78.633 61.3883 79.8871 62.7501 80.8656C64.1119 81.8441 65.6644 82.5251 67.3067 82.8642C70.7902 83.4939 74.3743 83.274 77.7548 82.2231C83.1358 80.5788 88.0879 77.7677 92.2579 73.99C93.3172 73.0804 94.3281 72.1157 95.2862 71.1C96.2573 70.1003 97.133 69.0052 98.0515 67.9544C99.7623 65.7599 101.299 63.435 102.647 61.001L103.555 59.4148C103.891 58.929 104.063 58.2998 104.297 57.7721L105.035 56.1126L105.668 54.3944L106.267 52.8294C106.43 52.3406 106.552 51.8677 106.694 51.4086C106.964 50.5102 107.313 49.7102 107.494 48.9407C107.868 47.4253 108.325 46.2158 108.603 45.2205C108.991 43.682 109.694 42.2409 110.669 40.9887C111.008 40.5124 111.377 40.0575 111.773 39.6268C112.361 39.1387 112.866 39.8702 113.405 41.7397C113.562 42.2664 113.68 42.804 113.758 43.3482C113.797 43.9477 113.832 44.6174 113.843 45.3434C113.86 47.0506 113.711 48.7553 113.398 50.4335C112.417 56.1104 110.364 61.5484 107.347 66.4565C104.316 71.5282 100.449 76.0513 95.9109 79.8351C91.2226 83.8039 85.7477 86.7359 79.8458 88.4385C76.7379 89.3239 73.5145 89.737 70.2838 89.6641C68.5542 89.5975 66.8369 89.3427 65.1625 88.9043C63.3992 88.4182 61.7122 87.6891 60.1497 86.7382C57.839 85.2835 55.8845 83.3283 54.4306 81.0171C53.1053 78.8706 52.1167 76.5336 51.4992 74.0876C50.412 69.5336 50.196 64.815 50.8624 60.1807C51.003 59.0459 51.2037 57.9087 51.4411 56.7823C51.6836 55.6031 51.9991 54.4401 52.3859 53.3C53.1554 51.1409 54.0769 49.0389 55.1433 47.0099C56.2199 44.9484 57.4935 42.9959 58.9463 41.1798C60.5056 39.1882 62.3975 37.4812 64.5384 36.1341L64.623 36.266Z" fill="#FED83C"/>
</svg>
