<svg width="54" height="54" viewBox="0 0 54 54" fill="none" xmlns="http://www.w3.org/2000/svg">
<g clip-path="url(#clip0_1548_3057)">
<path d="M26.2994 40.6161L19.7376 43.5984L17.3514 32.8608L9 25.7025L15.5619 22.7198L22.1237 10.1926L32.8613 17.351L42.4058 19.7371L39.4231 29.2817L40.0197 38.8262L26.2994 40.6161Z" fill="#FED83C" stroke="black" stroke-width="1.19306"/>
<path d="M16.3434 18.0395L20.0849 10.2406C20.3724 9.63366 20.7613 9.14757 21.2516 8.78232C21.7416 8.41714 22.283 8.17138 22.8758 8.04505C23.4685 7.91872 24.0638 7.92221 24.6617 8.05553C25.2599 8.18878 25.814 8.47388 26.324 8.91082L32.9203 14.5064L41.3264 15.4671C42.2434 15.5524 43.0212 15.898 43.6599 16.5038C44.299 17.1099 44.7085 17.8353 44.8885 18.6799C44.9729 19.0759 45 19.484 44.9698 19.9041C44.9397 20.3244 44.8321 20.744 44.647 21.1626L41.1219 29.4355L42.9187 36.9594C43.1944 38.102 43.0155 39.1527 42.3819 40.1115C41.7483 41.0703 40.891 41.6649 39.8099 41.8953C39.7557 41.9069 39.4042 41.9373 38.7555 41.9868L29.998 41.4505L22.2201 45.511C22.0719 45.6069 21.9071 45.6823 21.7256 45.7371C21.5441 45.7919 21.3727 45.8364 21.2114 45.8708C20.1407 46.099 19.1197 45.9035 18.1481 45.2842C17.1765 44.6646 16.5871 43.7751 16.3799 42.6156L14.9451 34.9774L8.38479 28.8913C8.04551 28.5847 7.77634 28.2461 7.57729 27.8755C7.37847 27.5046 7.23693 27.1214 7.15267 26.726C6.97718 25.9027 7.05179 25.0852 7.3765 24.2737C7.70096 23.4625 8.26194 22.8194 9.05944 22.3442L16.3434 18.0395ZM19.6802 21.099L11.5084 25.8962L18.8984 32.8026L20.548 41.5008L29.0679 37.0867L38.6658 37.676L36.6175 29.0261L40.5582 19.8013L31.1098 18.663L23.8156 12.389L19.6802 21.099Z" fill="black"/>
</g>
<defs>
<clipPath id="clip0_1548_3057">
<rect width="45.3364" height="45.3364" fill="white" transform="translate(0 9.45044) rotate(-12.0315)"/>
</clipPath>
</defs>
</svg>
