<svg width="108" height="108" viewBox="0 0 108 108" fill="none" xmlns="http://www.w3.org/2000/svg">
<path d="M32.9939 50.2693C32.9939 50.2693 39.761 47.6305 45.5647 51.3102C51.3684 54.9899 53.3859 62.967 53.6117 64.1762C53.8375 65.3855 54.9988 57.2372 54.9988 57.2372C54.9988 57.2372 53.1516 49.1915 49.1281 47.1755C45.1046 45.1594 40.6798 44.755 38.6438 45.5994C36.6078 46.4437 32.9939 50.2693 32.9939 50.2693Z" fill="#4D78E7"/>
<path d="M48.3893 44.0138C49.9888 44.7561 51.4344 45.7926 52.6506 47.0693C53.3058 47.7118 53.8894 48.4235 54.3913 49.1917C54.8229 49.8851 55.2039 50.6087 55.5314 51.3569C56.592 54.0393 57.3145 56.8433 57.6822 59.7042C57.9803 61.5985 58.4494 63.263 58.8517 64.8986C59.5847 67.7901 60.7751 70.546 62.3778 73.0619C63.9589 75.5692 66.1016 77.6744 68.6366 79.211C69.1999 79.5378 69.7863 79.823 70.3911 80.0645C70.9965 80.2945 71.6294 80.4677 72.2624 80.6408C72.8953 80.8139 73.5399 80.8978 74.2457 80.8989L75.2476 80.9486C75.5796 80.9896 75.9138 81.0095 76.2483 81.0082C77.9681 80.9918 79.6819 80.8027 81.3639 80.4437C83.1082 80.1362 84.9136 79.7459 86.7562 79.3806C87.9133 79.1682 88.0264 79.8485 87.3857 80.9752C86.4178 82.6556 84.9666 84.0058 83.2208 84.8501C81.2228 85.7459 79.1065 86.3501 76.9368 86.6442C74.637 86.9433 72.2997 86.739 70.0868 86.0452C67.8548 85.4208 65.7537 84.3993 63.8841 83.0296C62.9919 82.3646 62.1498 81.6348 61.3647 80.8462C60.5965 80.0483 59.885 79.1975 59.2355 78.3002C56.0831 74.1628 53.8004 69.4304 52.5247 64.3879C51.9406 61.6697 51.6346 59.1391 51.0458 56.8439C50.6521 54.7328 49.6735 52.7746 48.2216 51.1922C47.2441 50.3328 46.1023 49.6806 44.8654 49.2753C43.6286 48.8699 42.3223 48.7198 41.0257 48.8339C38.8091 49.099 36.6432 49.6868 34.5968 50.5789C32.2376 51.5758 29.7749 52.3072 27.254 52.7596C25.1054 53.1153 22.9073 53.035 20.7904 52.5235C18.6293 51.9629 16.6509 50.8506 15.0489 49.2956C14.3455 48.663 13.7071 47.9617 13.1432 47.2022C12.4066 46.2195 11.9191 45.0731 11.7225 43.8609C11.6909 43.5111 11.7329 43.1585 11.8457 42.8259C11.9584 42.4932 12.1395 42.1878 12.3772 41.9292C12.5685 41.6654 12.7796 41.4164 13.0086 41.1845C13.7461 40.5544 15.1065 41.3365 16.4844 42.8368C17.4429 43.8383 18.4793 44.7622 19.5838 45.5999C20.5193 46.2567 21.5866 46.7019 22.7116 46.9044C23.8881 47.0898 25.0876 47.072 26.258 46.8516C27.6364 46.5743 28.9803 46.1473 30.2659 45.5782C32.8484 44.404 35.5446 43.4978 38.3121 42.8739C39.9832 42.5508 41.6919 42.4675 43.3865 42.6267C45.1194 42.7951 46.8148 43.237 48.4095 43.9358L48.3893 44.0138Z" fill="#4D78E7"/>
<path d="M71.6145 45.9371C69.9266 39.9996 67.6879 38.9923 65.3412 37.497C62.0981 35.4514 57.5859 35.6407 57.5859 35.6407C58.3173 34.8644 59.2276 34.2791 60.2373 33.9359C61.2471 33.5926 62.3256 33.5019 63.3785 33.6717C67.107 34.1569 69.0455 37.6261 70.8742 39.77C72.7028 41.9139 71.6145 45.9371 71.6145 45.9371Z" fill="#4D78E7"/>
<path d="M74.6864 39.1568C75.4686 41.2557 75.9531 43.4538 76.1258 45.6871C76.3337 47.731 76.3731 49.753 76.4431 51.6176C76.5082 52.9774 76.7621 54.2811 76.8858 55.5779C77.0805 57.7749 77.5475 59.9392 78.2759 62.0211C78.953 63.9591 80.2346 65.6283 81.932 66.7828C82.1187 66.8978 82.3029 67.0327 82.5008 67.1391L83.1307 67.4127C83.5153 67.6177 83.9272 67.7664 84.354 67.8543C85.2463 67.9994 86.1532 68.0327 87.0538 67.9535C88.2501 67.8183 89.4194 67.5048 90.5228 67.0234C90.7914 66.897 91.0772 66.793 91.3285 66.6442C91.61 66.5476 91.8845 66.4317 92.1501 66.2973C92.701 66.0478 93.2219 65.7367 93.7028 65.3699C94.2967 64.9127 94.7866 65.1782 94.9386 66.2568C95.0092 66.976 94.9148 67.7017 94.6625 68.3789C94.5225 68.8197 94.3287 69.2416 94.0856 69.635C93.9567 69.8501 93.7934 70.0205 93.6434 70.243C93.462 70.4155 93.2662 70.5722 93.0581 70.7114C91.5919 71.7152 89.956 72.4453 88.2296 72.8663C86.3805 73.3918 84.423 73.402 82.5685 72.896C80.7997 72.3706 79.1595 71.483 77.7523 70.2894C76.3452 69.0959 75.2017 67.6226 74.3948 65.9633C72.6845 62.4648 71.5751 58.7034 71.1131 54.8367C70.6377 50.7411 70.8202 47.0135 70.0039 43.5997C69.6382 41.6441 68.7052 39.8393 67.3212 38.4101C66.2262 37.4265 64.9015 36.7339 63.4689 36.3961C61.8139 36.1132 60.1303 36.0363 58.4565 36.1674C56.8407 36.2558 55.2215 36.0723 53.6665 35.6247C52.0357 35.1107 50.5459 34.2265 49.3135 33.0414C48.7868 32.5473 48.307 32.0055 47.8803 31.4229C47.551 30.9576 47.2779 30.4549 47.0668 29.9254C46.956 29.528 46.9244 29.1127 46.9737 28.7032C47.0012 28.3899 47.092 28.0855 47.2407 27.8084C47.3895 27.5313 47.593 27.2873 47.8389 27.0913C48.0386 26.8898 48.2549 26.7054 48.4855 26.5402C48.6899 26.44 48.9157 26.3911 49.1432 26.3979C49.3708 26.4047 49.5933 26.4668 49.7914 26.579C50.3983 26.8313 50.9723 27.1566 51.5007 27.5477C52.9161 28.9924 54.7526 30.0684 55.911 30.078C56.5832 30.1049 57.3778 30.1983 58.478 30.1902C59.5783 30.1821 60.9479 30.1183 62.5958 30.242C63.9032 30.3317 65.1916 30.6046 66.4231 31.0527C68.3323 31.6939 70.0777 32.7457 71.5365 34.1343C72.9953 35.5228 74.132 37.2142 74.8666 39.0894L74.6864 39.1568Z" fill="#4D78E7"/>
</svg>
