<svg width="125" height="125" viewBox="0 0 125 125" fill="none" xmlns="http://www.w3.org/2000/svg">
<circle cx="62.9309" cy="62.1123" r="62.0696" fill="#FF9356"/>
<circle cx="62.9315" cy="62.1121" r="50.1658" stroke="white" stroke-width="5.10161" stroke-dasharray="6.8 6.8"/>
<circle cx="62.9319" cy="62.1123" r="25.508" fill="white"/>
<g clip-path="url(#clip0_1656_88)">
<path d="M62.9318 88.3919C59.2965 88.3919 55.8801 87.7021 52.6828 86.3224C49.4855 84.9428 46.7042 83.0704 44.3391 80.7052C41.9739 78.3401 40.1015 75.5588 38.7219 72.3615C37.3422 69.1641 36.6523 65.7478 36.6523 62.1125C36.6523 58.4772 37.3422 55.0608 38.7219 51.8635C40.1015 48.6662 41.9739 45.8849 44.3391 43.5198C46.7042 41.1546 49.4855 39.2822 52.6828 37.9025C55.8801 36.5229 59.2965 35.833 62.9318 35.833C64.8152 35.833 66.6328 36.0192 68.3848 36.3915C70.1368 36.7638 71.823 37.3003 73.4436 38.0011V43.914C71.9106 43.038 70.2572 42.3481 68.4833 41.8445C66.7095 41.3408 64.859 41.0889 62.9318 41.0889C57.1065 41.0889 52.1463 43.1365 48.0511 47.2317C43.9558 51.327 41.9082 56.2872 41.9082 62.1125C41.9082 67.9378 43.9558 72.898 48.0511 76.9932C52.1463 81.0884 57.1065 83.1361 62.9318 83.1361C68.7571 83.1361 73.7173 81.0884 77.8125 76.9932C81.9078 72.898 83.9554 67.9378 83.9554 62.1125C83.9554 60.7109 83.813 59.3531 83.5283 58.0392C83.2436 56.7252 82.8604 55.455 82.3786 54.2286H88.0287C88.4229 55.4988 88.7185 56.7799 88.9156 58.072C89.1127 59.3641 89.2113 60.7109 89.2113 62.1125C89.2113 65.7478 88.5214 69.1641 87.1418 72.3615C85.7621 75.5588 83.8897 78.3401 81.5245 80.7052C79.1594 83.0704 76.3781 84.9428 73.1808 86.3224C69.9835 87.7021 66.5671 88.3919 62.9318 88.3919ZM83.9554 48.9728V43.7169H78.6995V38.461H83.9554V33.2051H89.2113V38.461H94.4672V43.7169H89.2113V48.9728H83.9554ZM72.1296 59.4845C73.2246 59.4845 74.1553 59.1013 74.9218 58.3348C75.6883 57.5683 76.0715 56.6376 76.0715 55.5426C76.0715 54.4476 75.6883 53.5169 74.9218 52.7504C74.1553 51.9839 73.2246 51.6007 72.1296 51.6007C71.0346 51.6007 70.1039 51.9839 69.3374 52.7504C68.5709 53.5169 68.1877 54.4476 68.1877 55.5426C68.1877 56.6376 68.5709 57.5683 69.3374 58.3348C70.1039 59.1013 71.0346 59.4845 72.1296 59.4845ZM53.734 59.4845C54.829 59.4845 55.7597 59.1013 56.5262 58.3348C57.2927 57.5683 57.6759 56.6376 57.6759 55.5426C57.6759 54.4476 57.2927 53.5169 56.5262 52.7504C55.7597 51.9839 54.829 51.6007 53.734 51.6007C52.639 51.6007 51.7083 51.9839 50.9418 52.7504C50.1753 53.5169 49.7921 54.4476 49.7921 55.5426C49.7921 56.6376 50.1753 57.5683 50.9418 58.3348C51.7083 59.1013 52.639 59.4845 53.734 59.4845ZM62.9318 76.5662C65.9101 76.5662 68.6147 75.7231 71.0456 74.0368C73.4764 72.3505 75.2394 70.1277 76.3343 67.3684H49.5293C50.6243 70.1277 52.3872 72.3505 54.818 74.0368C57.2489 75.7231 59.9535 76.5662 62.9318 76.5662Z" fill="black"/>
</g>
<defs>
<clipPath id="clip0_1656_88">
<rect width="63.0707" height="63.0707" fill="white" transform="translate(31.3965 30.5771)"/>
</clipPath>
</defs>
</svg>
