<svg width="207" height="207" viewBox="0 0 207 207" fill="none" xmlns="http://www.w3.org/2000/svg">
<circle cx="103.276" cy="103.092" r="59.3165" transform="rotate(-11.2181 103.276 103.092)" fill="#4D78E7"/>
<circle cx="103.275" cy="103.093" r="47.9407" transform="rotate(-11.2181 103.275 103.093)" stroke="white" stroke-width="4.87533" stroke-dasharray="6.5 6.5"/>
<circle cx="103.274" cy="103.092" r="24.3766" transform="rotate(-11.2181 103.274 103.092)" fill="white"/>
<path d="M76.6862 97.7938C77.7245 91.293 80.7204 85.8527 85.6739 81.4729C90.6274 77.0931 96.5242 74.8169 103.364 74.6442C106.785 74.5579 110.022 75.0311 113.078 76.0639C116.133 77.0967 118.888 78.5996 121.342 80.5725C120.726 81.7905 120.232 82.832 119.86 83.6969C119.489 84.5619 119.244 85.3658 119.124 86.1088C117.041 84.219 114.668 82.7412 112.005 81.6753C109.342 80.6095 106.509 80.1145 103.504 80.1904C98.8365 80.3082 94.6867 81.7194 91.0552 84.4241C87.4238 87.1287 84.8274 90.5356 83.2663 94.6448C82.0172 94.6301 80.8098 94.8918 79.6441 95.4299C78.4784 95.9681 77.4924 96.756 76.6862 97.7938ZM104.765 130.105C97.9243 130.278 91.9201 128.302 86.752 124.178C81.5838 120.054 78.3172 114.772 76.9522 108.331C77.7636 109.328 78.7652 110.078 79.9572 110.58C81.1492 111.081 82.3916 111.293 83.6845 111.214C85.451 115.239 88.2157 118.499 91.9784 120.994C95.7412 123.489 99.9565 124.677 104.625 124.559C110.771 124.404 115.951 122.111 120.163 117.681C124.376 113.25 126.404 107.962 126.249 101.815C126.229 101.029 126.175 100.244 126.085 99.4603C125.996 98.6764 125.849 97.8939 125.645 97.1129C126.158 97.2849 126.681 97.4104 127.215 97.4894C127.749 97.5685 128.316 97.6004 128.917 97.5852C129.333 97.5747 129.748 97.5411 130.163 97.4844C130.578 97.4277 130.969 97.3484 131.336 97.2467C131.448 97.9838 131.547 98.7097 131.634 99.4243C131.722 100.139 131.775 100.889 131.795 101.675C131.892 105.511 131.255 109.134 129.884 112.545C128.514 115.955 126.612 118.94 124.179 121.499C121.746 124.058 118.861 126.108 115.524 127.649C112.187 129.19 108.601 130.009 104.765 130.105ZM94.0535 101.518L99.7299 95.5472L93.6884 89.8032L90.8502 92.7884L93.9047 95.6249L90.9989 98.6812L94.0535 101.518ZM128.812 93.4256C127.287 93.4641 125.967 92.954 124.854 91.8953C123.74 90.8366 123.164 89.5447 123.126 88.0195C123.094 86.7716 123.407 85.4341 124.065 84.007C124.723 82.5798 126.165 80.1733 128.392 76.7873C130.787 80.0566 132.349 82.3873 133.078 83.7795C133.806 85.1716 134.187 86.4916 134.218 87.7395C134.257 89.2647 133.747 90.584 132.688 91.6976C131.629 92.8111 130.337 93.3871 128.812 93.4256ZM114.091 101.081L116.996 98.0249L113.94 95.1191L116.778 92.1339L113.793 89.2957L108.049 95.3372L114.091 101.081ZM104.17 106.534C102.968 106.565 101.804 106.733 100.679 107.039C99.5537 107.345 98.489 107.765 97.4851 108.299L87.4261 102.795C87.4075 102.055 87.2051 101.367 86.819 100.729C86.4329 100.091 85.9117 99.5958 85.2553 99.2424C84.2245 98.7134 83.1699 98.6129 82.0914 98.9407C81.0128 99.2686 80.1854 99.9253 79.6091 100.911C79.0801 101.942 78.9796 102.997 79.3074 104.075C79.6352 105.154 80.292 105.981 81.2778 106.557C81.9341 106.911 82.6321 107.078 83.3716 107.059C84.111 107.041 84.7996 106.838 85.4373 106.452L93.808 111.028C93.0421 111.833 92.3586 112.694 91.7574 113.611C91.1562 114.528 90.661 115.524 90.2719 116.597L94.8475 116.482C95.776 114.793 97.0594 113.42 98.6976 112.361C100.336 111.302 102.195 110.747 104.275 110.694C106.354 110.642 108.239 111.103 109.928 112.077C111.618 113.052 112.969 114.359 113.982 115.999L118.557 115.883C117.376 113.046 115.503 110.757 112.938 109.019C110.374 107.28 107.451 106.452 104.17 106.534Z" fill="black"/>
</svg>
