<svg width="125" height="125" viewBox="0 0 125 125" fill="none" xmlns="http://www.w3.org/2000/svg">
<circle cx="62.7649" cy="62.1077" r="62.0696" fill="#FED83C"/>
<circle cx="62.7655" cy="62.1075" r="50.1658" stroke="white" stroke-width="5.10161" stroke-dasharray="6.8 6.8"/>
<circle cx="62.7659" cy="62.1077" r="25.508" fill="white"/>
<path fill-rule="evenodd" clip-rule="evenodd" d="M65.0182 75.1221C70.6855 75.1221 75.2797 72.4328 75.2797 69.1154C75.2797 65.7979 70.6855 63.1086 65.0182 63.1086C62.803 63.1086 60.7518 63.5195 59.0748 64.2182C55.184 64.725 52.2539 66.9491 52.2539 69.6159C52.2539 72.6569 56.0638 75.1221 60.7634 75.1221C61.443 75.1221 62.1039 75.0706 62.7374 74.9732C63.4709 75.0707 64.2343 75.1221 65.0182 75.1221Z" fill="#FED83C"/>
<path d="M57.6686 78.1675C58.4132 78.1675 59.1249 78.0361 59.8038 77.7733C60.4827 77.5105 61.1506 77.2039 61.8076 76.8535C62.0704 76.6783 62.3442 76.525 62.6289 76.3936C62.9136 76.2622 63.2092 76.1965 63.5158 76.1965C63.8662 76.1965 64.4356 76.4155 65.224 76.8535C65.8809 77.2039 66.5489 77.5105 67.2278 77.7733C67.9066 78.0361 68.6184 78.1675 69.363 78.1675C71.5529 78.1675 73.3158 77.3901 74.6517 75.8352C75.9876 74.2803 76.6555 72.2108 76.6555 69.6267C76.6555 66.4731 75.5715 64.0423 73.4034 62.3341C71.2354 60.626 68.1147 59.7719 64.0414 59.7719H62.9902C58.9169 59.7719 55.7962 60.626 53.6281 62.3341C51.4601 64.0423 50.3761 66.4731 50.3761 69.6267C50.3761 72.2108 51.044 74.2803 52.3799 75.8352C53.7157 77.3901 55.4787 78.1675 57.6686 78.1675ZM57.6029 74.2256C56.5517 74.2256 55.7305 73.8204 55.1392 73.0102C54.5479 72.1999 54.2523 71.072 54.2523 69.6267C54.2523 67.6119 54.964 66.1227 56.3875 65.1592C57.811 64.1956 60.0119 63.7138 62.9902 63.7138H63.9757C66.954 63.7138 69.144 64.1956 70.5455 65.1592C71.9471 66.1227 72.6479 67.6119 72.6479 69.6267C72.6479 71.072 72.3632 72.1999 71.7938 73.0102C71.2244 73.8204 70.4141 74.2256 69.363 74.2256C68.8374 74.2256 68.0928 73.9628 67.1292 73.4372C66.5598 73.0868 65.9795 72.8021 65.3882 72.5831C64.7969 72.3641 64.1728 72.2546 63.5158 72.2546C62.8588 72.2546 62.2237 72.3641 61.6105 72.5831C60.9973 72.8021 60.4061 73.0868 59.8367 73.4372C59.4863 73.6562 59.1249 73.8423 58.7526 73.9956C58.3803 74.1489 57.9971 74.2256 57.6029 74.2256ZM48.4708 58.9835C51.0987 57.9323 53.2011 56.7716 54.7779 55.5015C56.3546 54.2313 57.8438 52.5012 59.2454 50.3113L55.9604 48.2089C54.8217 50.0047 53.6281 51.3843 52.3799 52.3479C51.1316 53.3115 49.3249 54.297 46.9597 55.3044L48.4708 58.9835ZM78.4951 58.9835L80.0062 55.3044C77.6848 54.3408 75.9109 53.3772 74.6846 52.4136C73.4582 51.45 72.2537 50.0485 71.0711 48.2089L67.7862 50.3113C69.1878 52.5012 70.6769 54.2203 72.2537 55.4686C73.8305 56.7169 75.9109 57.8885 78.4951 58.9835ZM63.5158 88.6793C59.8805 88.6793 56.4641 87.9894 53.2668 86.6098C50.0695 85.2301 47.2882 83.3577 44.9231 80.9925C42.5579 78.6274 40.6855 75.8461 39.3058 72.6488C37.9262 69.4515 37.2363 66.0351 37.2363 62.3998C37.2363 58.7645 37.9262 55.3482 39.3058 52.1508C40.6855 48.9535 42.5579 46.1723 44.9231 43.8071C47.2882 41.442 50.0695 39.5695 53.2668 38.1899C56.4641 36.8102 59.8805 36.1204 63.5158 36.1204C67.1511 36.1204 70.5674 36.8102 73.7648 38.1899C76.9621 39.5695 79.7434 41.442 82.1085 43.8071C84.4737 46.1723 86.3461 48.9535 87.7257 52.1508C89.1054 55.3482 89.7952 58.7645 89.7952 62.3998C89.7952 66.0351 89.1054 69.4515 87.7257 72.6488C86.3461 75.8461 84.4737 78.6274 82.1085 80.9925C79.7434 83.3577 76.9621 85.2301 73.7648 86.6098C70.5674 87.9894 67.1511 88.6793 63.5158 88.6793ZM63.5158 83.4234C69.3849 83.4234 74.3561 81.3867 78.4294 77.3134C82.5027 73.2401 84.5394 68.2689 84.5394 62.3998C84.5394 56.5307 82.5027 51.5595 78.4294 47.4862C74.3561 43.4129 69.3849 41.3763 63.5158 41.3763C57.6467 41.3763 52.6755 43.4129 48.6022 47.4862C44.5289 51.5595 42.4922 56.5307 42.4922 62.3998C42.4922 68.2689 44.5289 73.2401 48.6022 77.3134C52.6755 81.3867 57.6467 83.4234 63.5158 83.4234Z" fill="black"/>
</svg>
