<svg width="325" height="325" viewBox="0 0 325 325" fill="none" xmlns="http://www.w3.org/2000/svg">
<circle cx="162.035" cy="162.953" r="118.5" transform="rotate(-30.2141 162.035 162.953)" fill="#E0537D"/>
<circle cx="162.035" cy="162.954" r="95.774" transform="rotate(-30.2141 162.035 162.954)" stroke="white" stroke-width="9.73973" stroke-dasharray="12.99 12.99"/>
<g clip-path="url(#clip0_1548_3637)">
<circle cx="162.035" cy="162.954" r="48.6986" transform="rotate(-30.2141 162.035 162.954)" fill="white"/>
<path d="M162.497 214.502C155.293 214.502 148.522 213.134 142.185 210.4C135.848 207.666 130.336 203.955 125.648 199.267C120.961 194.58 117.25 189.068 114.516 182.731C111.781 176.394 110.414 169.623 110.414 162.418C110.414 155.213 111.781 148.443 114.516 142.106C117.25 135.769 120.961 130.257 125.648 125.569C130.336 120.882 135.848 117.171 142.185 114.437C148.522 111.702 155.293 110.335 162.497 110.335C169.702 110.335 176.473 111.702 182.81 114.437C189.147 117.171 194.659 120.882 199.346 125.569C204.034 130.257 207.745 135.769 210.479 142.106C213.214 148.443 214.581 155.213 214.581 162.418C214.581 169.623 213.214 176.394 210.479 182.731C207.745 189.068 204.034 194.58 199.346 199.267C194.659 203.955 189.147 207.666 182.81 210.4C176.473 213.134 169.702 214.502 162.497 214.502ZM162.497 204.085C174.043 204.085 183.873 200.027 191.99 191.91C200.106 183.794 204.164 173.963 204.164 162.418C204.164 150.873 200.106 141.042 191.99 132.926C183.873 124.81 174.043 120.752 162.497 120.752C150.952 120.752 141.122 124.81 133.005 132.926C124.889 141.042 120.831 150.873 120.831 162.418C120.831 173.963 124.889 183.794 133.005 191.91C141.122 200.027 150.952 204.085 162.497 204.085ZM170.31 156.689L172.914 155.127C173.088 157.21 173.912 158.946 175.388 160.335C176.864 161.724 178.643 162.418 180.727 162.418C182.897 162.418 184.741 161.659 186.26 160.14C187.78 158.621 188.539 156.776 188.539 154.606C188.539 153.304 188.235 152.067 187.628 150.895C187.02 149.723 186.195 148.79 185.154 148.095L188.539 146.142L185.935 141.585L167.706 152.002L170.31 156.689ZM154.685 156.689L157.289 152.002L139.06 141.585L136.456 146.142L139.841 148.095C138.799 148.79 137.975 149.723 137.367 150.895C136.76 152.067 136.456 153.304 136.456 154.606C136.456 156.776 137.215 158.621 138.734 160.14C140.253 161.659 142.098 162.418 144.268 162.418C146.352 162.418 148.131 161.724 149.607 160.335C151.082 158.946 151.907 157.21 152.081 155.127L154.685 156.689ZM162.497 167.627C156.334 167.627 150.909 169.601 146.221 173.551C141.534 177.501 138.235 182.47 136.326 188.46H188.669C186.76 182.47 183.461 177.501 178.773 173.551C174.086 169.601 168.661 167.627 162.497 167.627Z" fill="black"/>
</g>
<defs>
<clipPath id="clip0_1548_3637">
<rect width="136.356" height="136.356" fill="white" transform="translate(68.8086 138.347) rotate(-30.2141)"/>
</clipPath>
</defs>
</svg>
