<svg width="70" height="70" viewBox="0 0 70 70" fill="none" xmlns="http://www.w3.org/2000/svg">
<ellipse cx="35" cy="26" rx="14" ry="15" fill="#4D78E7"/>
<ellipse cx="23" cy="30" rx="14" ry="15" fill="#4D78E7"/>
<ellipse cx="49.0002" cy="34" rx="12" ry="11" transform="rotate(3.8106 49.0002 34)" fill="#4D78E7"/>
<path d="M21.8757 67.0832L24.5007 59.7916H18.959L22.6048 49.5833H29.8965L26.7611 56.8749H32.8132L24.7923 67.0832H21.8757ZM41.5631 64.1666L43.6048 58.3333H37.9173L41.0527 49.5833H48.3444L45.7923 55.4166H51.7715L44.4798 64.1666H41.5631ZM21.8757 46.6666C17.452 46.6666 13.6725 45.0989 10.5371 41.9635C7.40169 38.828 5.83398 35.0485 5.83398 30.6249C5.83398 26.5902 7.17079 23.0659 9.8444 20.052C12.518 17.0381 15.8236 15.2638 19.7611 14.7291C21.3166 11.9583 23.4434 9.7829 26.1413 8.20304C28.8392 6.62318 31.7923 5.83325 35.0007 5.83325C39.3756 5.83325 43.1795 7.23082 46.4121 10.026C49.6447 12.8211 51.6013 16.3089 52.2819 20.4895C55.6361 20.7812 58.4555 22.1666 60.7402 24.6458C63.025 27.1249 64.1673 30.0902 64.1673 33.5416C64.1673 37.1874 62.8913 40.2864 60.3392 42.8385C57.7871 45.3905 54.6881 46.6666 51.0423 46.6666H21.8757ZM21.8757 40.8333H51.0423C53.084 40.8333 54.8097 40.1284 56.2194 38.7187C57.6291 37.3089 58.334 35.5833 58.334 33.5416C58.334 31.4999 57.6291 29.7742 56.2194 28.3645C54.8097 26.9548 53.084 26.2499 51.0423 26.2499H46.6673V23.3333C46.6673 20.1249 45.525 17.3784 43.2402 15.0937C40.9555 12.8089 38.209 11.6666 35.0007 11.6666C32.6673 11.6666 30.5406 12.2985 28.6204 13.5624C26.7003 14.8263 25.2541 16.5277 24.2819 18.6666L23.5527 20.4166H21.7298C18.959 20.5138 16.5892 21.5468 14.6204 23.5155C12.6517 25.4843 11.6673 27.8541 11.6673 30.6249C11.6673 33.4444 12.6638 35.8506 14.6569 37.8437C16.65 39.8367 19.0562 40.8333 21.8757 40.8333Z" fill="black"/>
</svg>
