<svg width="71" height="70" viewBox="0 0 71 70" fill="none" xmlns="http://www.w3.org/2000/svg">
<ellipse cx="36" cy="35.5" rx="26" ry="25.5" fill="#BB6486"/>
<path d="M46.9701 37.9166L41.1367 32.0833H50.2513V37.9166H46.9701ZM30.3451 32.0833V37.9166H21.0846V32.0833H30.3451ZM60.3867 67.9583L51.7826 59.3541C49.4492 60.9096 46.9336 62.1006 44.2357 62.927C41.5378 63.7534 38.6819 64.1666 35.668 64.1666C31.6332 64.1666 27.8416 63.401 24.293 61.8697C20.7444 60.3385 17.6576 58.2603 15.0326 55.6353C12.4076 53.0103 10.3294 49.9235 8.79818 46.3749C7.26693 42.8263 6.5013 39.0346 6.5013 34.9999C6.5013 31.986 6.9145 29.1301 7.74089 26.4322C8.56727 23.7343 9.75825 21.2187 11.3138 18.8853L2.63672 10.2083L6.79297 6.052L64.543 63.802L60.3867 67.9583ZM35.668 58.3333C37.8555 58.3333 39.9336 58.0416 41.9023 57.4583C43.8711 56.8749 45.7305 56.0728 47.4805 55.052L15.6159 23.1874C14.5951 24.9374 13.793 26.7968 13.2096 28.7655C12.6263 30.7343 12.3346 32.8124 12.3346 34.9999C12.3346 41.4652 14.6072 46.9704 19.1523 51.5155C23.6975 56.0607 29.2027 58.3333 35.668 58.3333ZM60.0951 51.0416L55.793 46.7395C56.8138 45.0381 57.6037 43.203 58.1628 41.2343C58.7218 39.2655 59.0013 37.1874 59.0013 34.9999C59.0013 28.5346 56.7287 23.0294 52.1836 18.4843C47.6385 13.9392 42.1332 11.6666 35.668 11.6666C33.4805 11.6666 31.4023 11.9461 29.4336 12.5051C27.4648 13.0642 25.6298 13.8541 23.9284 14.8749L19.6263 10.5728C21.9596 9.06589 24.4753 7.89922 27.1732 7.07284C29.8711 6.24645 32.7027 5.83325 35.668 5.83325C39.7027 5.83325 43.4944 6.59888 47.043 8.13013C50.5916 9.66138 53.6784 11.7395 56.3034 14.3645C58.9284 16.9895 61.0065 20.0763 62.5378 23.6249C64.069 27.1735 64.8346 30.9652 64.8346 34.9999C64.8346 37.9652 64.4214 40.7968 63.5951 43.4947C62.7687 46.1926 61.602 48.7083 60.0951 51.0416Z" fill="black"/>
</svg>
