<svg width="26" height="26" viewBox="0 0 26 26" fill="none" xmlns="http://www.w3.org/2000/svg">
<g filter="url(#filter0_d_1441_4210)">
<rect x="3.25" y="5.41675" width="20.5833" height="15.1667" fill="white"/>
<path d="M4.33317 21.6666C3.73734 21.6666 3.22727 21.4544 2.80296 21.0301C2.37866 20.6058 2.1665 20.0958 2.1665 19.4999V6.49992C2.1665 5.90409 2.37866 5.39402 2.80296 4.96971C3.22727 4.5454 3.73734 4.33325 4.33317 4.33325H21.6665C22.2623 4.33325 22.7724 4.5454 23.1967 4.96971C23.621 5.39402 23.8332 5.90409 23.8332 6.49992V19.4999C23.8332 20.0958 23.621 20.6058 23.1967 21.0301C22.7724 21.4544 22.2623 21.6666 21.6665 21.6666H4.33317ZM7.0415 16.2499H8.28734V9.74992H7.31234L5.4165 11.1041L6.0665 12.0791L7.0415 11.3749V16.2499ZM10.3998 16.2499H14.6248V15.1666H12.079L12.0248 15.1124C12.404 14.7513 12.7155 14.4444 12.9592 14.1916C13.203 13.9388 13.3971 13.7402 13.5415 13.5958C13.8665 13.2708 14.1103 12.9458 14.2728 12.6208C14.4353 12.2958 14.5165 11.9527 14.5165 11.5916C14.5165 11.068 14.3179 10.6301 13.9207 10.278C13.5234 9.92596 13.0179 9.74992 12.404 9.74992C11.9346 9.74992 11.5103 9.88534 11.1311 10.1562C10.7519 10.427 10.4901 10.7791 10.3457 11.2124L11.429 11.6458C11.5193 11.411 11.6502 11.226 11.8217 11.0905C11.9932 10.9551 12.1873 10.8874 12.404 10.8874C12.6748 10.8874 12.896 10.9596 13.0675 11.1041C13.2391 11.2485 13.3248 11.4291 13.3248 11.6458C13.3248 11.8444 13.2887 12.0294 13.2165 12.201C13.1443 12.3725 12.9818 12.5846 12.729 12.8374L11.8623 13.7041L10.3998 15.1666V16.2499ZM18.4165 16.2499C19.0665 16.2499 19.5901 16.0694 19.9873 15.7083C20.3846 15.3471 20.5832 14.8777 20.5832 14.2999C20.5832 13.9749 20.4929 13.686 20.3123 13.4333C20.1318 13.1805 19.879 12.9819 19.554 12.8374V12.7833C19.8068 12.6388 20.0054 12.4537 20.1498 12.228C20.2943 12.0023 20.3665 11.736 20.3665 11.4291C20.3665 10.9416 20.1769 10.5398 19.7978 10.2239C19.4186 9.9079 18.9401 9.74992 18.3623 9.74992C17.9109 9.74992 17.4912 9.88082 17.103 10.1426C16.7148 10.4044 16.4665 10.7249 16.3582 11.1041L17.4415 11.5374C17.5137 11.3208 17.6311 11.1492 17.7936 11.0228C17.9561 10.8964 18.1457 10.8333 18.3623 10.8333C18.5971 10.8333 18.7912 10.901 18.9446 11.0364C19.0981 11.1718 19.1748 11.3388 19.1748 11.5374C19.1748 11.7902 19.0846 11.9888 18.904 12.1333C18.7234 12.2777 18.4887 12.3499 18.1998 12.3499H17.7123V13.4333H18.254C18.6151 13.4333 18.895 13.5055 19.0936 13.6499C19.2922 13.7944 19.3915 13.993 19.3915 14.2458C19.3915 14.4805 19.2922 14.6836 19.0936 14.8551C18.895 15.0267 18.6693 15.1124 18.4165 15.1124C18.1096 15.1124 17.8748 15.0447 17.7123 14.9093C17.5498 14.7739 17.4054 14.5346 17.279 14.1916L16.1957 14.6249C16.3221 15.1485 16.5794 15.5503 16.9675 15.8301C17.3557 16.11 17.8387 16.2499 18.4165 16.2499ZM4.33317 19.4999H21.6665V6.49992H4.33317V19.4999Z" fill="black"/>
</g>
<defs>
<filter id="filter0_d_1441_4210" x="1.5165" y="4.33325" width="22.317" height="17.9833" filterUnits="userSpaceOnUse" color-interpolation-filters="sRGB">
<feFlood flood-opacity="0" result="BackgroundImageFix"/>
<feColorMatrix in="SourceAlpha" type="matrix" values="0 0 0 0 0 0 0 0 0 0 0 0 0 0 0 0 0 0 127 0" result="hardAlpha"/>
<feOffset dx="-0.65" dy="0.65"/>
<feComposite in2="hardAlpha" operator="out"/>
<feColorMatrix type="matrix" values="0 0 0 0 0 0 0 0 0 0 0 0 0 0 0 0 0 0 1 0"/>
<feBlend mode="normal" in2="BackgroundImageFix" result="effect1_dropShadow_1441_4210"/>
<feBlend mode="normal" in="SourceGraphic" in2="effect1_dropShadow_1441_4210" result="shape"/>
</filter>
</defs>
</svg>
